<?xml version="1.0" encoding="UTF-8" standalone="no"?>
<!-- Created with Inkscape (http://www.inkscape.org/) -->

<svg
   xmlns:dc="http://purl.org/dc/elements/1.1/"
   xmlns:cc="http://creativecommons.org/ns#"
   xmlns:rdf="http://www.w3.org/1999/02/22-rdf-syntax-ns#"
   xmlns:svg="http://www.w3.org/2000/svg"
   xmlns="http://www.w3.org/2000/svg"
   xmlns:xlink="http://www.w3.org/1999/xlink"
   xmlns:sodipodi="http://sodipodi.sourceforge.net/DTD/sodipodi-0.dtd"
   xmlns:inkscape="http://www.inkscape.org/namespaces/inkscape"
   width="733.59979"
   height="252.38583"
   id="svg2"
   version="1.1"
   inkscape:version="0.48.4 r"
   sodipodi:docname="ComputationalSystem.svg">
  <defs
     id="defs4" />
  <sodipodi:namedview
     id="base"
     pagecolor="#ffffff"
     bordercolor="#666666"
     borderopacity="1.0"
     inkscape:pageopacity="0.0"
     inkscape:pageshadow="2"
     inkscape:zoom="0.45254834"
     inkscape:cx="113.50987"
     inkscape:cy="433.67648"
     inkscape:document-units="px"
     inkscape:current-layer="layer1"
     showgrid="false"
     inkscape:window-width="1066"
     inkscape:window-height="833"
     inkscape:window-x="1692"
     inkscape:window-y="197"
     inkscape:window-maximized="0"
     fit-margin-top="0"
     fit-margin-left="0"
     fit-margin-right="0"
     fit-margin-bottom="0" />
  <metadata
     id="metadata7">
    <rdf:RDF>
      <cc:Work
         rdf:about="">
        <dc:format>image/svg+xml</dc:format>
        <dc:type
           rdf:resource="http://purl.org/dc/dcmitype/StillImage" />
        <dc:title></dc:title>
      </cc:Work>
    </rdf:RDF>
  </metadata>
  <g
     inkscape:label="Layer 1"
     inkscape:groupmode="layer"
     id="layer1"
     transform="translate(-6.7443828,-269.90221)">
    <rect
       style="fill:#3e3e3e;fill-opacity:1;stroke:#000000;stroke-width:0.59818846;stroke-miterlimit:4;stroke-opacity:1;stroke-dasharray:none;stroke-dashoffset:0"
       id="rect2985"
       width="733.00159"
       height="15.780846"
       x="7.0434771"
       y="506.2081"
       ry="3.6074319" />
    <path
       id="path4245"
       d="M 131.69203,317.83967 H 62.35292 c -4.41903,0 -8.00067,3.57896 -8.00067,8.00067 v 53.33778 c 0,4.41103 3.5683,7.98466 7.974,7.99533 h 26.69556 v 3.2456 l -16.64672,2.16285 c -1.18943,0.29602 -2.0215,1.36278 -2.0215,2.58688 0,1.47479 1.1921,2.66689 2.66689,2.66689 h 48.004 c 1.47479,0 2.66689,-1.1921 2.66689,-2.66689 0,-1.2241 -0.83207,-2.29086 -2.02151,-2.58955 l -16.64672,-2.16018 v -3.2456 h 26.69556 c 4.4057,-0.0107 7.974,-3.5843 7.974,-7.99533 v -53.33778 c 0,-4.42171 -3.5843,-8.00067 -8.00067,-8.00067 z m 2.66689,61.33845 c 0,1.46945 -1.19743,2.66688 -2.66689,2.66688 H 62.35292 c -1.47212,0 -2.66689,-1.19743 -2.66689,-2.66688 v -53.33778 c 0,-1.47213 1.19477,-2.66689 2.66689,-2.66689 h 69.33911 c 1.46946,0 2.66689,1.19476 2.66689,2.66689 v 53.33778 z m -8.00066,-50.68156 -58.67156,0.0107 c -1.47479,0 -2.66689,1.18143 -2.66689,2.65622 v 37.33644 c 0,1.47479 1.1921,2.66689 2.66689,2.66689 h 58.67156 c 1.47478,0 2.66688,-1.1921 2.66688,-2.66689 v -37.33644 c 0,-1.47479 -1.1921,-2.66689 -2.66688,-2.66689 z m 0,40.014 H 67.6867 v -37.34711 h 58.67156 v 37.34711 z"
       inkscape:connector-curvature="0"
       style="fill:#000000" />
    <path
       id="path4292"
       d="m 253.97399,310.83867 h -53.61 c -3.042,0 -5.508,2.466 -5.508,5.508 v 82.982 c 0,3.042 2.466,5.508 5.508,5.508 h 53.609 c 3.042,0 5.508,-2.466 5.508,-5.508 v -82.982 c 10e-4,-3.042 -2.466,-5.508 -5.507,-5.508 z m -13.172,10.507 c 0.825,-0.914 1.957,-1.452 3.188,-1.516 0.084,-0.004 0.167,-0.007 0.25,-0.007 2.446,0 4.461,1.923 4.588,4.382 0.009,0.157 0.007,0.319 0,0.466 -0.067,1.321 -0.161,2.642 -0.261,3.956 l -0.122,1.668 c -0.056,0.775 -0.111,1.551 -0.189,2.354 l -0.875,9.532 c -0.015,0.16 -0.073,0.347 -0.154,0.498 l -18.785,25.942 12.491,-27.94 -0.741,-8.063 c -0.079,-0.807 -0.135,-1.614 -0.196,-2.479 l -0.112,-1.504 c -0.101,-1.322 -0.194,-2.643 -0.262,-3.964 -0.064,-1.229 0.356,-2.411 1.18,-3.325 z m -40.621,-1.512 c 0,-2.129 1.726,-3.855 3.855,-3.855 2.129,0 3.855,1.727 3.855,3.855 0,2.128 -1.726,3.855 -3.855,3.855 -2.129,0 -3.855,-1.726 -3.855,-3.855 z m 26.988,77.843 c -12.573,0 -22.766,-10.192 -22.766,-22.766 0,-12.574 10.193,-22.765 22.766,-22.765 1.644,0 3.243,0.185 4.787,0.519 l -7.999,17.893 5.018,2.963 12.059,-16.653 c 5.409,4.162 8.901,10.692 8.901,18.045 0,12.571 -10.193,22.764 -22.766,22.764 z"
       inkscape:connector-curvature="0"
       style="fill:#000000" />
    <g
       id="g7173"
       transform="translate(9.2330028,23.4375)">
      <path
         inkscape:connector-curvature="0"
         d="m 718.81119,272.7737 h -27.20826 c 0,-8.17541 3.0859,-8.60138 8.19435,-9.31132 5.32617,-0.73835 12.61809,-1.7512 12.61809,-14.47342 0,-1.39465 -1.1296,-2.52425 -2.52425,-2.52425 -1.39464,0 -2.52425,1.1296 -2.52425,2.52425 0,8.32687 -3.11114,8.75599 -8.26692,9.47225 -5.29461,0.73518 -12.54552,1.74173 -12.54552,14.31249 h -27.20826 c -4.92544,0 -8.92007,3.99463 -8.92007,8.92007 v 23.78475 c 0,4.92229 3.99463,8.92007 8.92007,8.92007 h 59.46502 c 4.92545,0 8.92007,-3.99463 8.92007,-8.92007 v -23.78475 c 0,-4.92544 -3.99462,-8.92007 -8.92007,-8.92007 z m -14.86468,8.92007 h 5.94777 v 5.94777 h -5.94777 v -5.94777 z m 8.91692,8.92007 v 5.94777 h -5.94777 v -5.94777 h 5.94777 z m -17.83698,-8.92007 h 5.94776 v 5.94777 h -5.94776 v -5.94777 z m 8.92006,8.92007 v 5.94777 h -5.94776 v -5.94777 h 5.94776 z m -17.84013,-8.92007 h 5.94776 v 5.94777 h -5.94776 v -5.94777 z m 8.92007,8.92007 v 5.94777 h -5.94777 v -5.94777 h 5.94777 z m -17.84014,-8.92007 h 5.94776 v 5.94777 h -5.94776 v -5.94777 z m 8.92007,8.92007 v 5.94777 h -5.94777 v -5.94777 h 5.94777 z m -17.84014,-8.92007 h 5.94776 v 5.94777 h -5.94776 v -5.94777 z m 8.92007,8.92007 v 5.94777 h -5.94777 v -5.94777 h 5.94777 z m -17.84014,-8.92007 h 5.94776 v 5.94777 h -5.94776 v -5.94777 z m 8.92007,8.92007 v 5.94777 h -5.94777 v -5.94777 h 5.94777 z m -2.97231,14.86468 h -5.94776 v -5.94776 h 5.94776 v 5.94776 z m 44.59719,0 h -41.62488 v -5.94776 h 41.62488 v 5.94776 z m 8.92007,0 h -5.94776 v -5.94776 h 5.94776 v 5.94776 z m 0,-17.84014 h -5.94776 v -5.94776 h 5.94776 v 5.94776 z"
         id="path4339" />
      <g
         transform="matrix(2.5722927,0,0,2.5722927,658.01129,320.80174)"
         id="g4418">
        <path
           style="fill:none;stroke:#000000;stroke-width:1.60000002;stroke-linecap:round;stroke-linejoin:round;stroke-miterlimit:10"
           inkscape:connector-curvature="0"
           stroke-miterlimit="10"
           d="m 16,7 c 1.771,-1.771 4.563,-4.438 7,-2 2.084,2.084 0.424,4.686 -1.848,6.957 -2.013,2.013 -2.77,3.691 -1.508,4.953 1.262,1.262 3.004,0.442 5.356,-1.91"
           id="path4398" />
        <rect
           style="fill:none"
           y="0"
           x="0"
           width="26"
           height="26"
           id="rect4400" />
        <path
           style="fill:#000000"
           inkscape:connector-curvature="0"
           d="m 3.682,10.18 -1.487,1.488 c -2.556,2.556 -2.556,6.698 0,9.254 2.556,2.555 6.699,2.555 9.253,0 L 12.937,19.433 3.682,10.18 z"
           id="path4402" />
        <g
           id="g4404">
          <path
             style="fill:#000000"
             inkscape:connector-curvature="0"
             d="m 10.094,10.199 1.104,-1.105 c 0.531,-0.53 1.321,-0.63 1.957,-0.313 L 14.32,7.616 C 11.754,5.635 8.068,5.795 5.715,8.147 L 4.646,9.216 8.683,13.252 9.781,12.155 C 9.465,11.52 9.564,10.729 10.094,10.199 z"
             id="path4406" />
          <path
             style="fill:#000000"
             inkscape:connector-curvature="0"
             d="m 15.491,8.784 -1.204,1.204 c 0.234,0.607 0.108,1.322 -0.382,1.813 l -1.104,1.105 c -0.491,0.49 -1.206,0.615 -1.813,0.381 l -1.135,1.135 4.047,4.047 1.068,-1.068 c 2.356,-2.356 2.514,-6.051 0.523,-8.617 z"
             id="path4408" />
        </g>
        <path
           style="fill:#000000"
           inkscape:connector-curvature="0"
           d="m 13.197,11.094 -1.102,1.104 c -0.133,0.132 -0.31,0.206 -0.497,0.206 -0.187,0 -0.362,-0.073 -0.495,-0.206 L 10.8,11.895 c -0.272,-0.272 -0.272,-0.717 0,-0.989 l 1.104,-1.105 c 0.133,-0.132 0.31,-0.205 0.496,-0.205 0.188,0 0.363,0.072 0.494,0.205 l 0.304,0.304 c 0.132,0.132 0.205,0.308 0.205,0.494 0,0.186 -0.073,0.362 -0.206,0.495 z"
           id="path4410" />
      </g>
    </g>
    <g
       id="g4885"
       transform="matrix(1.7729057,0,0,1.7729057,545.30398,313.51503)">
      <g
         id="text" />
      <g
         id="_x31_" />
      <g
         id="_x32_" />
      <g
         id="_x33__1_" />
      <g
         id="_x34_" />
      <g
         id="_x35_" />
      <g
         id="_x36_" />
      <g
         id="_x37_" />
      <g
         id="_x38_" />
      <g
         id="_x39_" />
      <g
         id="_x31_0" />
      <g
         id="_x31_1" />
      <g
         id="_x31_2" />
      <g
         id="_x31_3" />
      <g
         id="_x31_4" />
      <g
         id="_x31_5" />
      <g
         id="_x31_6" />
      <g
         id="_x31_7" />
      <g
         id="_x31_8" />
      <g
         id="_x31_9" />
      <g
         id="_x32_0" />
      <g
         id="_x32_1" />
      <g
         id="_x32_2" />
      <g
         id="_x32_3" />
      <g
         id="_x32_4" />
      <g
         id="_x32_5" />
      <g
         id="_x32_6" />
      <g
         id="_x32_7" />
      <g
         id="_x32_8" />
      <g
         id="_x32_9" />
      <g
         id="_x33_0" />
      <g
         id="_x33_1" />
      <g
         id="_x33_2" />
      <g
         id="_x33_3" />
      <g
         id="_x33_4" />
      <g
         id="_x33_5" />
      <g
         id="_x33_6" />
      <g
         id="_x33_7" />
      <g
         id="_x33_8">
        <g
           id="g4711">
          <path
             id="path4713"
             d="m 8.09,24.791 h 3.435 v 5.7 h 0.633 c 0.001,0 0.001,0 0.002,0 h 0.636 v -5.7 h 3.51 V 23.732 H 33.43 v 1.104 h 3.177 v 5.655 h 0.619 c 10e-4,0 10e-4,0 0.002,0 h 0.619 v -5.655 h 3.737 v -0.857 c 0,-0.011 0.006,-0.021 0.006,-0.032 0,-0.072 0,-0.143 0,-0.215 h 5.72 v -1.316 h -5.72 c 0,-0.054 0,-0.109 0,-0.164 0,-0.011 -0.006,-0.021 -0.006,-0.032 V 21.387 H 33.43 v 1.029 H 25.519 V 19.763 H 24.83 c -10e-4,0 -10e-4,0 -0.002,0 H 24.15 v 2.653 H 16.304 V 21.312 H 8.09 v 1.104 H 1.752 v 1.316 H 8.09 v 1.059 z"
             inkscape:connector-curvature="0" />
          <path
             id="path4715"
             d="m 22.122,17.487 h 5.204 v -2.611 h 7.133 V 2.193 H 15.226 v 12.683 h 6.896 v 2.611 z m -4.947,-4.56 V 4.143 H 32.51 v 8.784 H 17.175 z"
             inkscape:connector-curvature="0" />
          <rect
             id="rect4717"
             height="0.537"
             width="10.808"
             y="17.537001"
             x="19.32" />
          <path
             id="path4719"
             d="m 0.638,44.609 h 6.896 v 2.611 h 5.204 v -2.611 h 7.134 V 31.926 H 0.638 V 44.609 z M 2.588,33.875 H 17.922 V 42.66 H 2.588 v -8.785 z"
             inkscape:connector-curvature="0" />
          <rect
             id="rect4721"
             height="0.537"
             width="10.808"
             y="47.27"
             x="4.7329998" />
          <path
             id="path4723"
             d="m 30.128,31.633 v 12.683 h 6.896 v 2.611 h 5.204 v -2.611 h 7.134 V 31.633 H 30.128 z M 47.412,42.367 H 32.078 v -8.784 h 15.334 v 8.784 z"
             inkscape:connector-curvature="0" />
          <rect
             id="rect4725"
             height="0.537"
             width="10.808"
             y="46.977001"
             x="34.223" />
        </g>
      </g>
      <g
         id="_x33_9" />
      <g
         id="_x34_0" />
      <g
         id="_x34_1" />
      <g
         id="_x34_2" />
      <g
         id="_x34_3" />
      <g
         id="_x34_4" />
      <g
         id="_x34_5" />
      <g
         id="_x34_6" />
      <g
         id="_x34_7" />
      <g
         id="_x34_8" />
      <g
         id="_x34_9" />
      <g
         id="_x35_0" />
      <g
         id="_x35_1" />
      <g
         id="_x35_2" />
      <g
         id="_x35_3" />
      <g
         id="_x35_4" />
      <g
         id="_x35_5" />
      <g
         id="_x35_6" />
      <g
         id="_x35_7" />
      <g
         id="_x35_8" />
      <g
         id="_x35_9" />
      <g
         id="_x36_0" />
      <g
         id="_x36_1" />
      <g
         id="_x36_2" />
      <g
         id="_x36_3" />
      <g
         id="_x36_4" />
      <g
         id="_x36_5" />
      <g
         id="_x36_6" />
      <g
         id="_x36_7" />
      <g
         id="_x36_8" />
      <g
         id="_x36_9" />
      <g
         id="_x37_0" />
      <g
         id="_x37_1" />
      <g
         id="_x37_2" />
      <g
         id="_x37_3" />
      <g
         id="_x37_4" />
      <g
         id="_x37_5" />
      <g
         id="_x37_6" />
      <g
         id="_x37_7" />
      <g
         id="_x37_8" />
      <g
         id="_x37_9" />
      <g
         id="_x38_0" />
      <g
         id="_x38_1" />
      <g
         id="_x38_2" />
      <g
         id="_x38_3" />
      <g
         id="_x38_4" />
      <g
         id="_x38_5" />
      <g
         id="_x38_6" />
      <g
         id="_x38_7" />
      <g
         id="_x38_8" />
      <g
         id="_x38_9" />
      <g
         id="_x39_0" />
      <g
         id="_x39_1" />
      <g
         id="_x39_2" />
      <g
         id="_x39_3" />
      <g
         id="_x39_4" />
      <g
         id="_x39_5" />
      <g
         id="_x39_6" />
      <g
         id="_x39_7" />
      <g
         id="_x39_8" />
      <g
         id="_x39_9" />
      <g
         id="_x31_00" />
      <g
         id="_x31_01" />
      <g
         id="_x31_02" />
      <g
         id="_x31_03" />
      <g
         id="_x31_04" />
      <g
         id="_x31_05" />
      <g
         id="_x31_06" />
      <g
         id="_x31_07" />
      <g
         id="_x31_08" />
      <g
         id="_x31_09" />
      <g
         id="_x31_10" />
      <g
         id="_x31_11" />
      <g
         id="_x31_12" />
      <g
         id="_x31_13" />
      <g
         id="_x31_14" />
      <g
         id="_x31_15" />
      <g
         id="_x31_16" />
      <g
         id="_x31_17" />
      <g
         id="_x31_18" />
      <g
         id="_x31_19" />
      <g
         id="_x31_20" />
      <g
         id="_x31_21" />
      <g
         id="_x31_22" />
      <g
         id="_x31_23" />
      <g
         id="_x31_24" />
      <g
         id="_x31_25" />
      <g
         id="_x31_26" />
      <g
         id="_x31_27" />
      <g
         id="_x31_28" />
      <g
         id="_x31_29" />
      <g
         id="_x31_30" />
      <g
         id="_x31_31" />
      <g
         id="_x31_32" />
      <g
         id="_x31_33" />
      <g
         id="_x31_34" />
      <g
         id="_x31_35" />
      <g
         id="_x31_36" />
      <g
         id="_x31_37" />
      <g
         id="_x31_38" />
      <g
         id="_x31_39" />
      <g
         id="_x31_40" />
      <g
         id="_x31_41" />
      <g
         id="_x31_42" />
      <g
         id="_x31_43" />
      <g
         id="_x31_44" />
      <g
         id="_x31_45" />
      <g
         id="_x31_46" />
      <g
         id="_x31_47" />
      <g
         id="_x31_48" />
      <g
         id="_x31_49" />
      <g
         id="_x31_50" />
      <g
         id="_x31_51" />
      <g
         id="_x31_52" />
      <g
         id="_x31_53" />
      <g
         id="_x31_54" />
      <g
         id="_x31_55" />
      <g
         id="_x31_56" />
      <g
         id="_x31_57" />
      <g
         id="_x31_58" />
      <g
         id="_x31_59" />
      <g
         id="_x31_60" />
      <g
         id="_x31_61" />
      <g
         id="_x31_62" />
      <g
         id="_x31_63" />
      <g
         id="_x31_64" />
      <g
         id="_x31_65" />
      <g
         id="_x31_66" />
      <g
         id="_x31_67" />
      <g
         id="_x31_68" />
      <g
         id="_x31_69" />
      <g
         id="_x31_70" />
      <g
         id="_x31_71" />
      <g
         id="_x31_72" />
      <g
         id="_x31_73" />
      <g
         id="_x31_74" />
      <g
         id="_x31_75" />
      <g
         id="_x31_76" />
      <g
         id="_x31_77" />
      <g
         id="_x31_78" />
      <g
         id="_x31_79" />
      <g
         id="_x31_80" />
      <g
         id="_x31_81" />
      <g
         id="_x31_82" />
      <g
         id="_x31_83" />
      <g
         id="_x31_84" />
      <g
         id="_x31_85" />
      <g
         id="_x31_86" />
      <g
         id="_x31_87" />
      <g
         id="_x31_88" />
      <g
         id="_x31_89" />
      <g
         id="_x31_90" />
    </g>
    <g
       id="g5128"
       transform="matrix(1.8737931,0,0,1.8737931,296.75664,323.28794)"
       style="fill:#000000">
      <g
         id="g5130"
         style="fill:#000000">
        <path
           id="path5132"
           d="m 46.4,29.128 h 0.657 V 7.756 H 40.571 V 2.918 H 19.334 l 0.084,0.852 c 0,0.936 -0.764,1.695 -1.691,1.697 L 16.942,5.415 v 53.361 l 0.697,-0.037 c 0.039,0 0.078,-0.006 0.083,-0.009 0.935,0 1.695,0.759 1.695,1.694 v 0.658 h 21.152 v -3.371 h 6.486 V 34.873 H 46.4 c -1.584,0 -2.872,-1.291 -2.872,-2.873 0,-1.585 1.288,-2.872 2.872,-2.872 z M 35.04,56.566 H 21.708 V 50.675 H 35.04 v 5.891 z m 0,-7.82 H 21.708 V 42.855 H 35.04 v 5.891 z m 0,-8.2 H 21.708 V 34.652 H 35.04 v 5.894 z m 0,-10.876 H 21.708 V 23.78 H 35.04 v 5.89 z m 0,-7.82 H 21.708 V 15.958 H 35.04 v 5.892 z m 0,-8.202 H 21.708 V 7.756 H 35.04 v 5.892 z m 10.703,22.485 v 20.264 h -5.172 v -3.834 h 3.815 v -1.314 h -3.815 v -1.452 h 3.815 v -1.312 h -3.815 v -1.407 h 3.815 v -1.314 h -3.815 v -1.26 h 3.815 V 43.19 h -3.815 v -1.452 h 3.815 v -1.314 h -3.815 v -1.403 h 3.815 v -1.314 h -3.815 v -10.75 h 3.815 V 25.643 H 40.571 V 24.19 h 3.815 v -1.313 h -3.815 v -1.405 h 3.815 v -1.313 h -3.815 v -1.263 h 3.815 v -1.314 h -3.815 v -1.451 h 3.815 v -1.314 h -3.815 v -1.404 h 3.815 V 12.099 H 40.571 V 9.072 h 5.172 v 18.791 c -2.029,0.319 -3.531,2.055 -3.531,4.138 0,2.081 1.502,3.815 3.531,4.132 z"
           inkscape:connector-curvature="0"
           style="fill:#000000" />
      </g>
    </g>
    <g
       id="g5605"
       transform="matrix(1.5683797,0,0,1.5683797,425.45376,341.9)"
       style="fill:#000000">
      <path
         id="path5607"
         d="m 44.282,9.785 c 0.48,0 0.871,-0.389 0.871,-0.869 V 3.713 c 0,-0.48 -0.391,-0.871 -0.871,-0.871 -0.479,0 -0.869,0.391 -0.869,0.871 v 5.203 c 0,0.48 0.391,0.869 0.869,0.869 z"
         inkscape:connector-curvature="0"
         style="fill:#000000" />
      <path
         id="path5609"
         d="m 39.544,9.785 c 0.481,0 0.872,-0.389 0.872,-0.869 V 3.713 c 0,-0.48 -0.391,-0.871 -0.872,-0.871 -0.478,0 -0.868,0.391 -0.868,0.871 v 5.203 c 0,0.48 0.39,0.869 0.868,0.869 z"
         inkscape:connector-curvature="0"
         style="fill:#000000" />
      <path
         id="path5611"
         d="m 34.719,9.785 c 0.479,0 0.867,-0.389 0.867,-0.869 V 3.713 c 0,-0.48 -0.389,-0.871 -0.867,-0.871 -0.48,0 -0.871,0.391 -0.871,0.871 v 5.203 c 0,0.48 0.39,0.869 0.871,0.869 z"
         inkscape:connector-curvature="0"
         style="fill:#000000" />
      <path
         id="path5613"
         d="m 29.98,9.785 c 0.479,0 0.869,-0.389 0.869,-0.869 V 3.713 c 0,-0.48 -0.391,-0.871 -0.869,-0.871 -0.48,0 -0.87,0.391 -0.87,0.871 v 5.203 c 0,0.48 0.39,0.869 0.87,0.869 z"
         inkscape:connector-curvature="0"
         style="fill:#000000" />
      <path
         id="path5615"
         d="m 25.609,9.785 c 0.477,0 0.868,-0.389 0.868,-0.869 V 3.713 c 0,-0.48 -0.391,-0.871 -0.868,-0.871 -0.482,0 -0.871,0.391 -0.871,0.871 v 5.203 c 0,0.48 0.389,0.869 0.871,0.869 z"
         inkscape:connector-curvature="0"
         style="fill:#000000" />
      <path
         id="path5617"
         d="m 20.87,9.785 c 0.479,0 0.868,-0.389 0.868,-0.869 V 3.713 c 0,-0.48 -0.389,-0.871 -0.868,-0.871 -0.48,0 -0.87,0.39 -0.87,0.871 v 5.203 c 0,0.48 0.39,0.869 0.87,0.869 z"
         inkscape:connector-curvature="0"
         style="fill:#000000" />
      <path
         id="path5619"
         d="M 8.912,18.761 H 3.711 c -0.48,0 -0.869,0.391 -0.869,0.869 0,0.478 0.389,0.869 0.869,0.869 h 5.201 c 0.482,0 0.871,-0.391 0.871,-0.869 0,-0.478 -0.389,-0.869 -0.871,-0.869 z"
         inkscape:connector-curvature="0"
         style="fill:#000000" />
      <path
         id="path5621"
         d="M 8.912,23.5 H 3.711 c -0.48,0 -0.869,0.389 -0.869,0.868 0,0.48 0.389,0.869 0.869,0.869 h 5.201 c 0.482,0 0.871,-0.389 0.871,-0.869 0,-0.48 -0.389,-0.868 -0.871,-0.868 z"
         inkscape:connector-curvature="0"
         style="fill:#000000" />
      <path
         id="path5623"
         d="M 8.912,28.328 H 3.711 c -0.48,0 -0.869,0.389 -0.869,0.871 0,0.479 0.389,0.868 0.869,0.868 h 5.201 c 0.482,0 0.871,-0.389 0.871,-0.868 0,-0.482 -0.389,-0.871 -0.871,-0.871 z"
         inkscape:connector-curvature="0"
         style="fill:#000000" />
      <path
         id="path5625"
         d="M 8.912,33.064 H 3.711 c -0.48,0 -0.869,0.391 -0.869,0.869 0,0.478 0.389,0.869 0.869,0.869 h 5.201 c 0.482,0 0.871,-0.391 0.871,-0.869 0,-0.478 -0.389,-0.869 -0.871,-0.869 z"
         inkscape:connector-curvature="0"
         style="fill:#000000" />
      <path
         id="path5627"
         d="M 8.912,37.434 H 3.711 c -0.48,0 -0.869,0.391 -0.869,0.869 0,0.482 0.389,0.873 0.869,0.873 h 5.201 c 0.482,0 0.871,-0.391 0.871,-0.873 0,-0.479 -0.389,-0.869 -0.871,-0.869 z"
         inkscape:connector-curvature="0"
         style="fill:#000000" />
      <path
         id="path5629"
         d="M 8.912,42.174 H 3.711 c -0.48,0 -0.869,0.388 -0.869,0.869 0,0.479 0.389,0.87 0.869,0.87 h 5.201 c 0.482,0 0.871,-0.391 0.871,-0.87 0,-0.481 -0.389,-0.869 -0.871,-0.869 z"
         inkscape:connector-curvature="0"
         style="fill:#000000" />
      <path
         id="path5631"
         d="m 44.282,54.217 c -0.479,0 -0.869,0.391 -0.869,0.869 v 5.203 c 0,0.481 0.391,0.869 0.869,0.869 0.48,0 0.871,-0.388 0.871,-0.869 v -5.203 c 0,-0.479 -0.39,-0.869 -0.871,-0.869 z"
         inkscape:connector-curvature="0"
         style="fill:#000000" />
      <path
         id="path5633"
         d="m 39.544,54.217 c -0.478,0 -0.868,0.391 -0.868,0.869 v 5.203 c 0,0.481 0.391,0.869 0.868,0.869 0.481,0 0.872,-0.388 0.872,-0.869 v -5.203 c 0,-0.479 -0.391,-0.869 -0.872,-0.869 z"
         inkscape:connector-curvature="0"
         style="fill:#000000" />
      <path
         id="path5635"
         d="m 34.719,54.217 c -0.48,0 -0.871,0.391 -0.871,0.869 v 5.203 c 0,0.481 0.391,0.869 0.871,0.869 0.479,0 0.867,-0.388 0.867,-0.869 v -5.203 c 0,-0.479 -0.389,-0.869 -0.867,-0.869 z"
         inkscape:connector-curvature="0"
         style="fill:#000000" />
      <path
         id="path5637"
         d="m 29.98,54.217 c -0.48,0 -0.87,0.391 -0.87,0.869 v 5.203 c 0,0.481 0.389,0.869 0.87,0.869 0.479,0 0.869,-0.388 0.869,-0.869 v -5.203 c 0,-0.479 -0.391,-0.869 -0.869,-0.869 z"
         inkscape:connector-curvature="0"
         style="fill:#000000" />
      <path
         id="path5639"
         d="m 25.609,54.217 c -0.482,0 -0.871,0.391 -0.871,0.869 v 5.203 c 0,0.481 0.389,0.869 0.871,0.869 0.477,0 0.868,-0.388 0.868,-0.869 v -5.203 c 0,-0.479 -0.391,-0.869 -0.868,-0.869 z"
         inkscape:connector-curvature="0"
         style="fill:#000000" />
      <path
         id="path5641"
         d="m 20.87,54.217 c -0.48,0 -0.871,0.391 -0.871,0.869 v 5.203 c 0,0.481 0.391,0.869 0.871,0.869 0.479,0 0.868,-0.388 0.868,-0.869 v -5.203 c 0,-0.479 -0.389,-0.869 -0.868,-0.869 z"
         inkscape:connector-curvature="0"
         style="fill:#000000" />
      <path
         id="path5643"
         d="M 46.699,12.062 H 18.451 c -2.964,0 -5.378,2.416 -5.378,5.38 v 28.246 c 0,2.969 2.414,5.385 5.378,5.385 h 28.248 c 2.965,0 5.381,-2.416 5.381,-5.385 V 17.442 c 0,-2.964 -2.416,-5.38 -5.381,-5.38 z m -25.516,8.584 c -0.948,0 -1.716,-0.768 -1.716,-1.714 0,-0.946 0.768,-1.716 1.716,-1.716 0.944,0 1.714,0.77 1.714,1.716 0,0.946 -0.77,1.714 -1.714,1.714 z m 20.48,19.445 H 23.68 V 21.94 h 17.983 v 18.151 z"
         inkscape:connector-curvature="0"
         style="fill:#000000" />
      <path
         id="path5645"
         d="m 55.083,20.499 h 5.204 c 0.48,0 0.871,-0.391 0.871,-0.869 0,-0.478 -0.391,-0.869 -0.871,-0.869 h -5.204 c -0.479,0 -0.869,0.391 -0.869,0.869 0,0.478 0.39,0.869 0.869,0.869 z"
         inkscape:connector-curvature="0"
         style="fill:#000000" />
      <path
         id="path5647"
         d="m 60.287,23.5 h -5.204 c -0.479,0 -0.869,0.389 -0.869,0.868 0,0.48 0.391,0.869 0.869,0.869 h 5.204 c 0.48,0 0.871,-0.389 0.871,-0.869 0,-0.48 -0.39,-0.868 -0.871,-0.868 z"
         inkscape:connector-curvature="0"
         style="fill:#000000" />
      <path
         id="path5649"
         d="m 60.287,28.328 h -5.204 c -0.479,0 -0.869,0.389 -0.869,0.871 0,0.479 0.391,0.868 0.869,0.868 h 5.204 c 0.48,0 0.871,-0.389 0.871,-0.868 0,-0.482 -0.39,-0.871 -0.871,-0.871 z"
         inkscape:connector-curvature="0"
         style="fill:#000000" />
      <path
         id="path5651"
         d="m 60.287,33.064 h -5.204 c -0.479,0 -0.869,0.391 -0.869,0.869 0,0.478 0.391,0.869 0.869,0.869 h 5.204 c 0.48,0 0.871,-0.391 0.871,-0.869 0,-0.478 -0.39,-0.869 -0.871,-0.869 z"
         inkscape:connector-curvature="0"
         style="fill:#000000" />
      <path
         id="path5653"
         d="m 60.287,37.434 h -5.204 c -0.479,0 -0.869,0.391 -0.869,0.869 0,0.482 0.391,0.873 0.869,0.873 h 5.204 c 0.48,0 0.871,-0.391 0.871,-0.873 0,-0.479 -0.39,-0.869 -0.871,-0.869 z"
         inkscape:connector-curvature="0"
         style="fill:#000000" />
      <path
         id="path5655"
         d="m 60.287,42.174 h -5.204 c -0.479,0 -0.869,0.388 -0.869,0.869 0,0.479 0.391,0.87 0.869,0.87 h 5.204 c 0.48,0 0.871,-0.391 0.871,-0.87 0,-0.481 -0.39,-0.869 -0.871,-0.869 z"
         inkscape:connector-curvature="0"
         style="fill:#000000" />
    </g>
    <text
       xml:space="preserve"
       style="font-size:12px;font-style:normal;font-weight:normal;line-height:125%;letter-spacing:0px;word-spacing:0px;fill:#000000;fill-opacity:1;stroke:none;font-family:Sans"
       x="303.2825"
       y="459.05539"
       id="text6347"
       sodipodi:linespacing="125%"><tspan
         sodipodi:role="line"
         id="tspan6349"
         x="303.2825"
         y="459.05539">Memória Principal</tspan></text>
    <text
       xml:space="preserve"
       style="font-size:12px;font-style:normal;font-weight:normal;line-height:125%;letter-spacing:0px;word-spacing:0px;fill:#000000;fill-opacity:1;stroke:none;font-family:Sans"
       x="463.61847"
       y="461.28781"
       id="text7142"
       sodipodi:linespacing="125%"><tspan
         sodipodi:role="line"
         id="tspan7144"
         x="463.61847"
         y="461.28781">CPU</tspan></text>
    <text
       xml:space="preserve"
       style="font-size:12px;font-style:normal;font-weight:normal;line-height:125%;letter-spacing:0px;word-spacing:0px;fill:#000000;fill-opacity:1;stroke:none;font-family:Sans"
       x="190.07571"
       y="433.57928"
       id="text7146"
       sodipodi:linespacing="125%"><tspan
         sodipodi:role="line"
         id="tspan7148"
         x="190.07571"
         y="433.57928">Disco Rígido</tspan></text>
    <text
       xml:space="preserve"
       style="font-size:12px;font-style:normal;font-weight:normal;line-height:125%;letter-spacing:0px;word-spacing:0px;fill:#000000;fill-opacity:1;stroke:none;font-family:Sans"
       x="74.701187"
       y="433.64374"
       id="text7150"
       sodipodi:linespacing="125%"><tspan
         sodipodi:role="line"
         id="tspan7152"
         x="74.701187"
         y="433.64374">Display</tspan></text>
    <text
       xml:space="preserve"
       style="font-size:12px;font-style:normal;font-weight:normal;line-height:125%;letter-spacing:0px;word-spacing:0px;fill:#000000;fill-opacity:1;stroke:none;font-family:Sans"
       x="574.27509"
       y="432.04968"
       id="text7184"
       sodipodi:linespacing="125%"><tspan
         sodipodi:role="line"
         id="tspan7186"
         x="574.27509"
         y="432.04968">Rede</tspan></text>
    <text
       xml:space="preserve"
       style="font-size:12px;font-style:normal;font-weight:normal;line-height:125%;letter-spacing:0px;word-spacing:0px;fill:#000000;fill-opacity:1;stroke:none;font-family:Sans"
       x="662.12714"
       y="435.17468"
       id="text7188"
       sodipodi:linespacing="125%"><tspan
         sodipodi:role="line"
         id="tspan7190"
         x="662.12714"
         y="435.17468">Dispositivos</tspan></text>
    <text
       xml:space="preserve"
       style="font-size:12px;font-style:normal;font-weight:normal;line-height:125%;letter-spacing:0px;word-spacing:0px;fill:#ffffff;fill-opacity:1;stroke:none;font-family:Sans"
       x="360.69467"
       y="518.4491"
       id="text7192"
       sodipodi:linespacing="125%"><tspan
         sodipodi:role="line"
         id="tspan7194"
         x="360.69467"
         y="518.4491">BUS</tspan></text>
    <rect
       style="fill:#cbcbcb;fill-opacity:1;stroke:#000000;stroke-width:0.2;stroke-miterlimit:4;stroke-opacity:1;stroke-dasharray:none;stroke-dashoffset:0"
       id="rect7204"
       width="73.635399"
       height="22.499704"
       x="189.07956"
       y="457.79572"
       ry="2.3611972" />
    <text
       xml:space="preserve"
       style="font-size:8px;font-style:normal;font-variant:normal;font-weight:normal;font-stretch:normal;text-align:start;line-height:125%;letter-spacing:0px;word-spacing:0px;writing-mode:lr-tb;text-anchor:start;fill:#000000;fill-opacity:1;stroke:none;font-family:Sans;-inkscape-font-specification:Sans"
       x="202.05936"
       y="472.02408"
       id="text7200"
       sodipodi:linespacing="125%"><tspan
         sodipodi:role="line"
         id="tspan7202"
         x="202.05936"
         y="472.02408">Controlador</tspan></text>
    <use
       x="0"
       y="0"
       xlink:href="#rect7204"
       id="use7254"
       transform="translate(-132.03125,0.78125)"
       width="744.09448"
       height="1052.3622" />
    <use
       x="0"
       y="0"
       xlink:href="#text7200"
       id="use7256"
       transform="translate(-132.03125,0.78125477)"
       width="744.09448"
       height="1052.3622" />
    <use
       x="0"
       y="0"
       xlink:href="#use7254"
       id="use7258"
       width="744.09448"
       height="1052.3622" />
    <use
       x="0"
       y="0"
       xlink:href="#use7256"
       id="use7260"
       width="744.09448"
       height="1052.3622" />
    <use
       x="0"
       y="0"
       xlink:href="#rect7204"
       id="use7262"
       transform="translate(362.5,0.78125)"
       width="744.09448"
       height="1052.3622" />
    <use
       x="0"
       y="0"
       xlink:href="#text7200"
       id="use7264"
       transform="translate(362.5,0.78125477)"
       width="744.09448"
       height="1052.3622" />
    <use
       x="0"
       y="0"
       xlink:href="#use7262"
       id="use7289"
       transform="translate(107.03125,-2.0000016e-8)"
       width="744.09448"
       height="1052.3622" />
    <use
       x="0"
       y="0"
       xlink:href="#use7264"
       id="use7291"
       transform="translate(107.03125,4.7483716e-6)"
       width="744.09448"
       height="1052.3622" />
    <use
       x="0"
       y="0"
       xlink:href="#rect7204"
       id="use7293"
       transform="translate(0,0.78125)"
       width="744.09448"
       height="1052.3622" />
    <use
       x="0"
       y="0"
       xlink:href="#text7200"
       id="use7295"
       transform="translate(0,0.78125477)"
       width="744.09448"
       height="1052.3622" />
    <path
       style="fill:none;stroke:#000000;stroke-width:1px;stroke-linecap:butt;stroke-linejoin:miter;stroke-opacity:1"
       d="m 474.53705,471.80818 0,33.54496"
       id="path7307"
       inkscape:connector-curvature="0"
       sodipodi:nodetypes="cc" />
    <path
       style="fill:none;stroke:#000000;stroke-width:1px;stroke-linecap:butt;stroke-linejoin:miter;stroke-opacity:1"
       d="m 588.28125,437.06078 0,21.09375"
       id="path7311"
       inkscape:connector-curvature="0" />
    <path
       style="fill:none;stroke:#000000;stroke-width:1px;stroke-linecap:butt;stroke-linejoin:miter;stroke-opacity:1"
       d="m 588.28125,481.26843 0,25.71423"
       id="path7313"
       inkscape:connector-curvature="0"
       sodipodi:nodetypes="cc" />
    <path
       style="fill:none;stroke:#000000;stroke-width:1px;stroke-linecap:butt;stroke-linejoin:miter;stroke-opacity:1"
       d="m 694.95339,438.61559 0,19.88738"
       id="path7315"
       inkscape:connector-curvature="0" />
    <path
       style="fill:none;stroke:#000000;stroke-width:1px;stroke-linecap:butt;stroke-linejoin:miter;stroke-opacity:1"
       d="m 694.95339,480.60006 0,25.96408"
       id="path7317"
       inkscape:connector-curvature="0" />
    <path
       style="fill:none;stroke:#000000;stroke-width:1px;stroke-linecap:butt;stroke-linejoin:miter;stroke-opacity:1"
       d="m 223.4375,438.85211 0,18.75"
       id="path7319"
       inkscape:connector-curvature="0" />
    <path
       style="fill:none;stroke:#000000;stroke-width:1px;stroke-linecap:butt;stroke-linejoin:miter;stroke-opacity:1"
       d="m 223.4375,480.25836 0,28.21165"
       id="path7321"
       inkscape:connector-curvature="0"
       sodipodi:nodetypes="cc" />
    <path
       style="fill:none;stroke:#000000;stroke-width:1px;stroke-linecap:butt;stroke-linejoin:miter;stroke-opacity:1"
       d="m 93.164062,444.94031 0,14.0625"
       id="path7323"
       inkscape:connector-curvature="0" />
    <path
       style="fill:none;stroke:#000000;stroke-width:1px;stroke-linecap:butt;stroke-linejoin:miter;stroke-opacity:1"
       d="m 93.164062,482.04968 0,24.60938"
       id="path7325"
       inkscape:connector-curvature="0" />
    <path
       sodipodi:nodetypes="cc"
       inkscape:connector-curvature="0"
       id="path7327"
       d="m 349.68851,471.80818 0,33.54496"
       style="fill:none;stroke:#000000;stroke-width:1px;stroke-linecap:butt;stroke-linejoin:miter;stroke-opacity:1" />
  </g>
</svg>
