<?xml version="1.0" encoding="UTF-8" standalone="no"?>
<!-- Created with Inkscape (http://www.inkscape.org/) -->
<svg
   xmlns:dc="http://purl.org/dc/elements/1.1/"
   xmlns:cc="http://creativecommons.org/ns#"
   xmlns:rdf="http://www.w3.org/1999/02/22-rdf-syntax-ns#"
   xmlns:svg="http://www.w3.org/2000/svg"
   xmlns="http://www.w3.org/2000/svg"
   xmlns:sodipodi="http://sodipodi.sourceforge.net/DTD/sodipodi-0.dtd"
   xmlns:inkscape="http://www.inkscape.org/namespaces/inkscape"
   width="210mm"
   height="297mm"
   id="svg2"
   sodipodi:version="0.32"
   inkscape:version="0.46"
   sodipodi:docname="glsl_program.svg"
   inkscape:output_extension="org.inkscape.output.svg.inkscape"
   inkscape:export-filename="/home/andre/glsl/presentation/glsl_program.png"
   inkscape:export-xdpi="90"
   inkscape:export-ydpi="90">
  <defs
     id="defs4">
    <marker
       inkscape:stockid="Arrow2Lend"
       orient="auto"
       refY="0.0"
       refX="0.0"
       id="Arrow2Lend"
       style="overflow:visible;">
      <path
         id="path3246"
         style="font-size:12.0;fill-rule:evenodd;stroke-width:0.62500000;stroke-linejoin:round;"
         d="M 8.7185878,4.0337352 L -2.2072895,0.016013256 L 8.7185884,-4.0017078 C 6.9730900,-1.6296469 6.9831476,1.6157441 8.7185878,4.0337352 z "
         transform="scale(1.1) rotate(180) translate(1,0)" />
    </marker>
    <marker
       inkscape:stockid="Arrow1Lend"
       orient="auto"
       refY="0.0"
       refX="0.0"
       id="Arrow1Lend"
       style="overflow:visible;">
      <path
         id="path3228"
         d="M 0.0,0.0 L 5.0,-5.0 L -12.5,0.0 L 5.0,5.0 L 0.0,0.0 z "
         style="fill-rule:evenodd;stroke:#000000;stroke-width:1.0pt;marker-start:none;"
         transform="scale(0.8) rotate(180) translate(12.5,0)" />
    </marker>
    <inkscape:perspective
       sodipodi:type="inkscape:persp3d"
       inkscape:vp_x="0 : 526.18109 : 1"
       inkscape:vp_y="0 : 1000 : 0"
       inkscape:vp_z="744.09448 : 526.18109 : 1"
       inkscape:persp3d-origin="372.04724 : 350.78739 : 1"
       id="perspective10" />
    <inkscape:perspective
       id="perspective2390"
       inkscape:persp3d-origin="372.04724 : 350.78739 : 1"
       inkscape:vp_z="744.09448 : 526.18109 : 1"
       inkscape:vp_y="0 : 1000 : 0"
       inkscape:vp_x="0 : 526.18109 : 1"
       sodipodi:type="inkscape:persp3d" />
  </defs>
  <sodipodi:namedview
     id="base"
     pagecolor="#ffffff"
     bordercolor="#666666"
     borderopacity="1.0"
     inkscape:pageopacity="0.0"
     inkscape:pageshadow="2"
     inkscape:zoom="0.98994949"
     inkscape:cx="154.69973"
     inkscape:cy="531.12929"
     inkscape:document-units="px"
     inkscape:current-layer="layer1"
     showgrid="false"
     inkscape:window-width="1680"
     inkscape:window-height="996"
     inkscape:window-x="0"
     inkscape:window-y="0" />
  <metadata
     id="metadata7">
    <rdf:RDF>
      <cc:Work
         rdf:about="">
        <dc:format>image/svg+xml</dc:format>
        <dc:type
           rdf:resource="http://purl.org/dc/dcmitype/StillImage" />
      </cc:Work>
    </rdf:RDF>
  </metadata>
  <g
     inkscape:label="Camada 1"
     inkscape:groupmode="layer"
     id="layer1">
    <g
       id="g2428"
       transform="translate(-96.101913,109.92115)">
      <path
         style="fill:#d5d6d6"
         d="M 46.544905,233.09927 C 44.922929,230.06858 45.056121,195.15358 46.695797,193.54469 C 47.388026,192.86546 50.846204,192.25547 54.445797,192.17767 C 58.020797,192.1004 63.294276,191.8026 66.16464,191.5159 C 71.811106,190.95191 73.96229,192.10328 74.979811,196.23401 C 75.27517,197.43305 75.388346,205.83908 75.231312,214.91408 L 74.945797,231.41408 L 67.945797,232.595 C 64.095797,233.2445 57.952896,234.08575 54.294906,234.46444 C 48.230657,235.09224 47.547067,234.97182 46.544905,233.09927 z M 62.945797,230.7849 C 67.895797,230.1228 72.226876,229.15824 72.570416,228.64143 C 72.913956,228.12463 73.138956,220.88705 73.070416,212.55793 C 72.951762,198.13896 72.850064,197.41184 70.945797,197.36737 C 69.743845,197.3393 69.075072,196.75197 69.269776,195.89544 C 69.497392,194.89412 68.96985,195.03483 67.496148,196.36851 C 65.965204,197.754 65.100107,197.96839 64.293838,197.16212 C 63.487569,196.35585 62.675266,196.37574 61.286954,197.23575 C 59.763914,198.17921 59.194586,198.1151 58.430597,196.91408 C 57.905801,196.08908 57.469532,195.92844 57.46111,196.55709 C 57.438561,198.24025 54.229127,199.18154 53.351962,197.76225 C 52.768564,196.81829 52.224796,196.85261 50.945797,197.91408 C 49.541828,199.07927 49.156767,199.0696 48.384894,197.84978 C 47.820826,196.95836 47.470617,203.37487 47.46111,214.77537 L 47.445797,233.13666 L 50.695797,232.5627 C 52.483297,232.24702 57.995797,231.44701 62.945797,230.7849 z M 50.445797,229.01408 C 50.445797,228.05127 56.492838,226.62779 57.272186,227.40714 C 58.036174,228.17112 57.269561,228.56517 53.695797,229.24544 C 51.908297,229.58569 50.445797,229.48158 50.445797,229.01408 z M 50.445797,224.91408 C 50.445797,224.36408 52.020797,223.91408 53.945797,223.91408 C 55.870797,223.91408 57.445797,224.36408 57.445797,224.91408 C 57.445797,225.46408 55.870797,225.91408 53.945797,225.91408 C 52.020797,225.91408 50.445797,225.46408 50.445797,224.91408 z M 49.445797,219.11462 C 49.445797,218.54818 52.933297,217.78566 57.195797,217.42015 C 61.458297,217.05464 65.733297,216.53592 66.695797,216.26745 C 67.658297,215.99897 68.445797,216.22008 68.445797,216.75879 C 68.445797,217.7493 65.643178,218.32913 55.195797,219.50007 C 51.500663,219.91422 49.445797,219.77647 49.445797,219.11462 z M 49.881946,215.81077 C 49.42814,215.07649 52.489499,214.4989 62.695797,213.39313 C 66.507211,212.9802 68.445797,213.13157 68.445797,213.84212 C 68.445797,214.4317 67.433297,214.93719 66.195797,214.96543 C 64.958297,214.99367 60.881476,215.35731 57.136196,215.7735 C 53.390915,216.1897 50.126503,216.20647 49.881946,215.81077 z M 50.445797,212.14137 C 50.445797,211.11601 67.28674,209.42169 68.218371,210.35332 C 69.251354,211.3863 67.993286,211.66937 59.195797,212.38342 C 53.824436,212.81939 50.445797,212.72593 50.445797,212.14137 z M 49.445797,204.91408 C 49.445797,204.36408 51.020797,203.91408 52.945797,203.91408 C 54.870797,203.91408 56.445797,204.36408 56.445797,204.91408 C 56.445797,205.46408 54.870797,205.91408 52.945797,205.91408 C 51.020797,205.91408 49.445797,205.46408 49.445797,204.91408 z M 49.445797,201.91408 C 49.445797,201.36408 51.047355,200.91408 53.004814,200.91408 C 55.122848,200.91408 56.3136,201.31896 55.945797,201.91408 C 55.605878,202.46408 54.004321,202.91408 52.38678,202.91408 C 50.769239,202.91408 49.445797,202.46408 49.445797,201.91408 z"
         id="path2442" />
      <path
         style="fill:#a5a8cf"
         d="M 47.135069,233.12322 C 45.680954,231.51644 45.445797,228.74863 45.445797,213.24033 C 45.445797,196.5509 45.59171,195.09201 47.427039,193.43106 C 48.923079,192.07716 49.73707,191.91093 50.750833,192.75227 C 51.738908,193.5723 52.39275,193.56713 53.227209,192.73267 C 54.072309,191.88757 54.731126,191.90599 55.814388,192.80502 C 56.699403,193.53952 57.499691,193.63589 57.860882,193.05148 C 58.187109,192.52363 60.364671,192.19198 62.699909,192.31448 C 65.035148,192.43698 67.722984,192.16169 68.672879,191.70272 C 69.878347,191.12027 71.010922,191.47921 72.422879,192.89116 C 74.303212,194.7715 74.445797,196.17961 74.445797,212.86877 L 74.445797,230.82345 L 71.195797,231.37111 C 69.408297,231.67232 64.795797,232.3757 60.945797,232.93417 C 57.095797,233.49265 52.793469,234.18364 51.385069,234.46971 C 49.659189,234.82027 48.273606,234.38129 47.135069,233.12322 z M 65.945797,230.57821 L 72.945797,229.41408 L 73.219821,212.06863 C 73.482209,195.45966 73.41852,194.7985 71.719821,196.49722 C 70.084688,198.13237 69.920483,198.13985 69.622473,196.59267 C 69.221117,194.50897 67.852192,194.41265 67.084171,196.41408 C 66.767588,197.23908 66.044443,197.91408 65.477182,197.91408 C 64.90992,197.91408 64.445797,197.23908 64.445797,196.41408 C 64.445797,194.47287 62.829082,194.47287 62.084171,196.41408 C 61.767588,197.23908 60.792886,197.91408 59.918165,197.91408 C 59.043444,197.91408 58.605878,197.46408 58.945797,196.91408 C 59.9111,195.35219 58.295769,195.73988 56.295387,197.5502 C 54.620188,199.06623 54.440198,199.06307 53.843091,197.50703 C 53.244185,195.94631 53.061887,195.95154 51.261192,197.58115 C 49.593703,199.0902 49.194981,199.13106 48.40006,197.87432 C 47.815416,196.95002 47.470802,203.14823 47.46111,214.76227 L 47.445797,233.11045 L 53.195797,232.42639 C 56.358297,232.05016 62.095797,231.21848 65.945797,230.57821 z M 50.445797,229.13457 C 50.445797,227.89017 56.348808,226.94813 57.048842,228.08081 C 57.332086,228.53911 56.674078,228.91408 55.586601,228.91408 C 54.499125,228.91408 52.897568,229.18723 52.027584,229.52107 C 51.157601,229.85491 50.445797,229.68099 50.445797,229.13457 z M 50.945797,224.91408 C 51.285716,224.36408 52.887273,223.91408 54.504814,223.91408 C 56.122355,223.91408 57.445797,224.36408 57.445797,224.91408 C 57.445797,225.46408 55.844239,225.91408 53.88678,225.91408 C 51.768746,225.91408 50.577994,225.5092 50.945797,224.91408 z M 50.445797,218.97655 C 50.445797,218.01816 66.387608,216.03543 67.905737,216.805 C 69.305208,217.51442 64.912822,218.50306 57.195797,219.21559 C 53.483297,219.55837 50.445797,219.4508 50.445797,218.97655 z M 50.445797,215.77742 C 50.445797,215.39927 52.133297,214.84408 54.195797,214.54367 C 64.590278,213.02965 68.445797,212.79529 68.445797,213.67746 C 68.445797,214.20054 64.395797,215.04171 59.445797,215.54674 C 54.495797,216.05176 50.445797,216.15557 50.445797,215.77742 z M 50.445797,211.9828 C 50.445797,211.39501 51.729786,210.91408 53.299106,210.91408 C 54.868426,210.91408 59.030926,210.63113 62.549106,210.28531 C 66.859466,209.86162 68.619639,209.9865 67.945797,210.66819 C 66.498153,212.1327 50.445797,213.33857 50.445797,211.9828 z M 49.945797,204.91408 C 50.285716,204.36408 51.887273,203.91408 53.504814,203.91408 C 55.122355,203.91408 56.445797,204.36408 56.445797,204.91408 C 56.445797,205.46408 54.844239,205.91408 52.88678,205.91408 C 50.768746,205.91408 49.577994,205.5092 49.945797,204.91408 z M 49.445797,201.91408 C 49.445797,201.36408 51.047355,200.91408 53.004814,200.91408 C 55.122848,200.91408 56.3136,201.31896 55.945797,201.91408 C 55.605878,202.46408 54.004321,202.91408 52.38678,202.91408 C 50.769239,202.91408 49.445797,202.46408 49.445797,201.91408 z"
         id="path2440" />
      <path
         style="fill:#9f9fa0"
         d="M 48.445797,234.04817 C 48.445797,233.2416 53.385635,232.32157 68.695797,230.27667 L 73.445797,229.64223 L 73.445797,212.07816 C 73.445797,198.41721 73.17913,194.78075 72.245797,195.71408 C 70.794681,197.1652 69.080438,197.31426 69.945797,195.91408 C 70.285716,195.36408 69.862273,194.91408 69.004814,194.91408 C 68.147355,194.91408 67.445797,195.31594 67.445797,195.80709 C 67.445797,196.29825 66.720694,196.97835 65.834456,197.31843 C 64.681455,197.76088 64.388082,197.50687 64.803072,196.42542 C 65.145532,195.53298 64.825434,194.91408 64.021401,194.91408 C 63.272506,194.91408 62.400753,195.58908 62.084171,196.41408 C 61.767588,197.23908 60.996298,197.91408 60.370193,197.91408 C 59.744088,197.91408 59.490841,197.23908 59.807423,196.41408 C 60.161416,195.49159 59.805518,194.91408 58.883027,194.91408 C 58.058027,194.91408 57.124006,195.58908 56.807423,196.41408 C 56.490841,197.23908 55.578407,197.91408 54.779791,197.91408 C 53.981176,197.91408 53.605878,197.46408 53.945797,196.91408 C 54.285716,196.36408 53.910418,195.91408 53.111803,195.91408 C 52.313187,195.91408 51.389808,196.6176 51.059849,197.47746 C 50.729889,198.33732 49.999404,198.75623 49.436548,198.40836 C 48.873692,198.0605 48.672071,197.35698 48.988502,196.84498 C 49.304933,196.33299 48.872657,195.91408 48.027888,195.91408 C 46.7155,195.91408 46.44862,198.49756 46.194273,213.66408 L 45.8966,231.41408 L 45.671198,213.31907 C 45.456507,196.08385 45.54512,195.13417 47.536116,193.33234 C 49.468402,191.58365 49.718176,191.56609 50.839918,193.10017 C 51.970051,194.64572 52.125581,194.64528 53.104229,193.0938 C 53.976564,191.71086 54.419412,191.64729 55.711398,192.71955 C 56.647201,193.49619 57.504237,193.62854 57.860882,193.05148 C 58.187109,192.52363 60.364671,192.19198 62.699909,192.31448 C 65.035148,192.43698 67.711757,192.1677 68.64793,191.71608 C 69.844635,191.13877 70.958151,191.54765 72.39793,193.09308 C 74.302829,195.13775 74.445797,196.53468 74.445797,213.10264 C 74.445797,222.89893 74.217835,230.91408 73.939215,230.91408 C 72.820864,230.91408 52.794142,233.94376 50.695797,234.43039 C 49.458297,234.71738 48.445797,234.54538 48.445797,234.04817 z M 52.207456,228.20682 C 53.451369,227.96763 55.251369,227.97671 56.207456,228.227 C 57.163544,228.47729 56.145797,228.673 53.945797,228.6619 C 51.745797,228.6508 50.963544,228.44601 52.207456,228.20682 z M 51.945797,224.91408 C 54.708499,223.72691 56.445797,223.72691 56.445797,224.91408 C 56.445797,225.46408 54.983297,225.88245 53.195797,225.8438 C 50.47227,225.7849 50.26978,225.63429 51.945797,224.91408 z M 50.445797,219.11181 C 50.445797,218.12849 67.190408,216.32536 68.07814,217.21309 C 68.347846,217.4828 65.728402,217.99953 62.257155,218.36138 C 58.785908,218.72323 54.708297,219.25638 53.195797,219.54614 C 51.683297,219.83591 50.445797,219.64046 50.445797,219.11181 z M 53.445797,214.92373 C 58.702068,213.73815 67.445797,213.11028 67.445797,213.91842 C 67.445797,214.6625 57.036675,215.98679 52.549106,215.81363 C 50.366359,215.72941 50.511218,215.58564 53.445797,214.92373 z M 51.445797,212.01831 C 52.270797,211.55401 56.545797,210.88798 60.945797,210.53825 C 65.64468,210.16476 68.326838,210.26207 67.445797,210.77406 C 66.620797,211.25349 62.345797,211.91952 57.945797,212.25413 C 53.429577,212.59757 50.599006,212.49488 51.445797,212.01831 z M 50.945797,204.91408 C 53.724687,203.71995 56.445797,203.71995 56.445797,204.91408 C 56.445797,205.46408 54.758297,205.88245 52.695797,205.8438 C 49.687598,205.78741 49.341424,205.6035 50.945797,204.91408 z M 50.445797,201.93313 C 50.445797,201.37265 51.870797,200.91408 53.612464,200.91408 C 57.25374,200.91408 57.121783,201.35061 53.195797,202.29246 C 51.563258,202.6841 50.445797,202.53809 50.445797,201.93313 z"
         id="path2438" />
      <path
         style="fill:#7171b9"
         d="M 50.714829,233.22109 C 51.687796,232.96755 53.037796,232.98422 53.714829,233.25814 C 54.391861,233.53207 53.595797,233.73951 51.945797,233.71913 C 50.295797,233.69875 49.741861,233.47463 50.714829,233.22109 z M 56.714829,232.22109 C 57.687796,231.96755 59.037796,231.98422 59.714829,232.25814 C 60.391861,232.53207 59.595797,232.73951 57.945797,232.71913 C 56.295797,232.69875 55.741861,232.47463 56.714829,232.22109 z M 63.714829,231.22109 C 64.687796,230.96755 66.037796,230.98422 66.714829,231.25814 C 67.391861,231.53207 66.595797,231.73951 64.945797,231.71913 C 63.295797,231.69875 62.741861,231.47463 63.714829,231.22109 z M 45.671198,213.16408 L 45.445797,194.91408 L 48.195797,194.8438 C 50.632641,194.78151 50.718047,194.67564 48.945797,193.91408 C 47.037441,193.09403 47.048896,193.05143 49.195797,192.98437 C 50.433297,192.94571 51.445797,193.45009 51.445797,194.10521 C 51.445797,194.76033 52.090503,194.42283 52.878476,193.35521 C 53.980817,191.86165 54.586842,191.68577 55.506807,192.59241 C 56.424542,193.49685 57.167876,193.49685 58.704781,192.59241 C 60.26372,191.675 60.807343,191.69087 61.159784,192.66408 C 61.408758,193.35158 62.587464,193.90719 63.77913,193.89877 C 65.544621,193.88629 65.66806,193.70397 64.445797,192.91408 C 63.15311,192.07868 63.179505,191.94259 64.63678,191.92939 C 65.566821,191.92097 66.622521,192.39101 66.982781,192.97392 C 67.402389,193.65286 68.071447,193.44071 68.844411,192.38362 C 69.940879,190.88411 70.170537,190.87749 71.360286,192.31105 C 72.777506,194.01869 72.184896,196.91408 70.418165,196.91408 C 69.818444,196.91408 69.605878,196.46408 69.945797,195.91408 C 70.285716,195.36408 69.862273,194.91408 69.004814,194.91408 C 68.147355,194.91408 67.445797,195.31594 67.445797,195.80709 C 67.445797,196.29825 66.720694,196.97835 65.834456,197.31843 C 64.681455,197.76088 64.388082,197.50687 64.803072,196.42542 C 65.161675,195.49092 64.810521,194.91408 63.883027,194.91408 C 63.058027,194.91408 62.124006,195.58908 61.807423,196.41408 C 61.490841,197.23908 60.781819,197.91408 60.231819,197.91408 C 59.681819,197.91408 59.490841,197.23908 59.807423,196.41408 C 60.161416,195.49159 59.805518,194.91408 58.883027,194.91408 C 58.058027,194.91408 57.124006,195.58908 56.807423,196.41408 C 56.490841,197.23908 55.492464,197.90719 54.588808,197.89877 C 53.162652,197.88548 53.143776,197.75551 54.445797,196.91408 C 55.658756,196.13021 55.515235,195.94178 53.695797,195.92939 C 52.458297,195.92097 51.445797,196.36408 51.445797,196.91408 C 51.445797,197.46408 50.658297,197.90719 49.695797,197.89877 C 48.20025,197.88568 48.1639,197.74251 49.445797,196.91408 C 50.661263,196.12859 50.523373,195.9418 48.718871,195.92939 C 46.510462,195.91421 46.489471,196.06166 46.194273,213.66408 L 45.8966,231.41408 L 45.671198,213.16408 z M 70.195797,230.2518 C 70.883297,229.97439 72.008297,229.97439 72.695797,230.2518 C 73.383297,230.52921 72.820797,230.75619 71.445797,230.75619 C 70.070797,230.75619 69.508297,230.52921 70.195797,230.2518 z M 51.695797,228.22475 C 52.658297,227.97323 54.233297,227.97323 55.195797,228.22475 C 56.158297,228.47628 55.370797,228.68208 53.445797,228.68208 C 51.520797,228.68208 50.733297,228.47628 51.695797,228.22475 z M 50.52913,225.55476 C 51.723557,224.52471 56.445797,223.99817 56.445797,224.89503 C 56.445797,225.45551 55.020797,225.91408 53.27913,225.91408 C 51.537464,225.91408 50.299964,225.75238 50.52913,225.55476 z M 50.445797,219.12524 C 50.445797,218.19752 66.320696,216.45565 67.156687,217.29164 C 67.402212,217.53716 64.530205,218.03883 60.774447,218.40645 C 57.01869,218.77408 53.158297,219.29401 52.195797,219.56186 C 51.233297,219.82971 50.445797,219.63323 50.445797,219.12524 z M 53.945797,215.01574 C 60.611068,213.60255 67.445797,213.10699 67.445797,214.03692 C 67.445797,214.51936 66.386808,214.91408 65.092488,214.91408 C 63.798168,214.91408 59.860668,215.12777 56.342488,215.38896 C 51.164072,215.77339 50.707613,215.70231 53.945797,215.01574 z M 51.945797,212.01344 C 53.045797,211.57053 57.320797,210.93842 61.445797,210.60877 C 65.570797,210.27912 68.045797,210.3718 66.945797,210.81472 C 65.845797,211.25764 61.570797,211.88974 57.445797,212.21939 C 53.320797,212.54904 50.845797,212.45636 51.945797,212.01344 z M 51.945797,204.91408 C 54.677177,203.74037 55.445797,203.74037 55.445797,204.91408 C 55.445797,205.46408 54.208297,205.88245 52.695797,205.8438 C 50.258953,205.78151 50.173547,205.67564 51.945797,204.91408 z M 50.445797,201.74089 C 50.445797,201.28614 51.795797,200.91408 53.445797,200.91408 C 55.095797,200.91408 56.445797,201.08801 56.445797,201.30058 C 56.445797,201.51316 55.095797,201.88522 53.445797,202.12739 C 51.795797,202.36956 50.445797,202.19563 50.445797,201.74089 z"
         id="path2436" />
      <path
         style="fill:#bca231"
         d="M 50.714829,233.22109 C 51.687796,232.96755 53.037796,232.98422 53.714829,233.25814 C 54.391861,233.53207 53.595797,233.73951 51.945797,233.71913 C 50.295797,233.69875 49.741861,233.47463 50.714829,233.22109 z M 56.714829,232.22109 C 57.687796,231.96755 59.037796,231.98422 59.714829,232.25814 C 60.391861,232.53207 59.595797,232.73951 57.945797,232.71913 C 56.295797,232.69875 55.741861,232.47463 56.714829,232.22109 z M 63.714829,231.22109 C 64.687796,230.96755 66.037796,230.98422 66.714829,231.25814 C 67.391861,231.53207 66.595797,231.73951 64.945797,231.71913 C 63.295797,231.69875 62.741861,231.47463 63.714829,231.22109 z M 70.195797,230.2518 C 70.883297,229.97439 72.008297,229.97439 72.695797,230.2518 C 73.383297,230.52921 72.820797,230.75619 71.445797,230.75619 C 70.070797,230.75619 69.508297,230.52921 70.195797,230.2518 z M 51.695797,228.22475 C 52.658297,227.97323 54.233297,227.97323 55.195797,228.22475 C 56.158297,228.47628 55.370797,228.68208 53.445797,228.68208 C 51.520797,228.68208 50.733297,228.47628 51.695797,228.22475 z M 50.52913,225.55476 C 51.723557,224.52471 56.445797,223.99817 56.445797,224.89503 C 56.445797,225.45551 55.020797,225.91408 53.27913,225.91408 C 51.537464,225.91408 50.299964,225.75238 50.52913,225.55476 z M 50.445797,219.12524 C 50.445797,218.19752 66.320696,216.45565 67.156687,217.29164 C 67.402212,217.53716 64.530205,218.03883 60.774447,218.40645 C 57.01869,218.77408 53.158297,219.29401 52.195797,219.56186 C 51.233297,219.82971 50.445797,219.63323 50.445797,219.12524 z M 53.945797,215.01574 C 60.611068,213.60255 67.445797,213.10699 67.445797,214.03692 C 67.445797,214.51936 66.386808,214.91408 65.092488,214.91408 C 63.798168,214.91408 59.860668,215.12777 56.342488,215.38896 C 51.164072,215.77339 50.707613,215.70231 53.945797,215.01574 z M 51.945797,212.01344 C 53.045797,211.57053 57.320797,210.93842 61.445797,210.60877 C 65.570797,210.27912 68.045797,210.3718 66.945797,210.81472 C 65.845797,211.25764 61.570797,211.88974 57.445797,212.21939 C 53.320797,212.54904 50.845797,212.45636 51.945797,212.01344 z M 51.945797,204.91408 C 54.677177,203.74037 55.445797,203.74037 55.445797,204.91408 C 55.445797,205.46408 54.208297,205.88245 52.695797,205.8438 C 50.258953,205.78151 50.173547,205.67564 51.945797,204.91408 z M 50.445797,201.74089 C 50.445797,201.28614 51.795797,200.91408 53.445797,200.91408 C 55.095797,200.91408 56.445797,201.08801 56.445797,201.30058 C 56.445797,201.51316 55.095797,201.88522 53.445797,202.12739 C 51.795797,202.36956 50.445797,202.19563 50.445797,201.74089 z M 49.281207,197.03696 C 51.127173,195.86684 50.932683,194.62571 48.769797,193.77341 C 47.184301,193.14863 47.240004,193.04546 49.195797,192.98437 C 50.947873,192.92963 51.445797,193.46733 51.445797,195.41408 C 51.445797,197.1342 50.89988,197.9093 49.695797,197.89877 C 48.354019,197.88703 48.257308,197.68599 49.281207,197.03696 z M 55.200156,195.74541 C 55.650018,194.02514 55.4239,193.70851 54.106537,194.21403 C 52.233303,194.93285 51.825437,193.41552 53.597501,192.32032 C 55.052822,191.42088 57.488721,194.63865 56.770125,196.51128 C 55.90391,198.7686 54.578638,198.1221 55.200156,195.74541 z M 60.03799,195.40278 C 60.568101,193.29065 60.386103,192.99976 58.892997,193.57271 C 57.676995,194.03934 57.345501,193.88538 57.840769,193.08402 C 59.627867,190.19243 63.082105,193.09231 61.807423,196.41408 C 60.842564,198.92846 59.365046,198.084 60.03799,195.40278 z M 65.122899,195.31316 C 65.460782,194.43265 65.109159,193.28346 64.341514,192.7594 C 63.268809,192.02708 63.408659,191.87923 64.945797,192.12054 C 67.383251,192.50319 68.396304,196.91408 66.046733,196.91408 C 65.04722,196.91408 64.723701,196.35345 65.122899,195.31316 z M 70.156048,194.91408 C 70.460037,193.75163 70.18673,192.91408 69.503411,192.91408 C 68.856805,192.91408 68.632567,192.4209 69.005104,191.81812 C 70.014603,190.18472 72.856602,193.40116 72.113926,195.33654 C 71.231663,197.63568 69.539799,197.27062 70.156048,194.91408 z"
         id="path2434" />
      <path
         style="fill:#707170"
         d="M 50.714829,233.22109 C 51.687796,232.96755 53.037796,232.98422 53.714829,233.25814 C 54.391861,233.53207 53.595797,233.73951 51.945797,233.71913 C 50.295797,233.69875 49.741861,233.47463 50.714829,233.22109 z M 56.714829,232.22109 C 57.687796,231.96755 59.037796,231.98422 59.714829,232.25814 C 60.391861,232.53207 59.595797,232.73951 57.945797,232.71913 C 56.295797,232.69875 55.741861,232.47463 56.714829,232.22109 z M 63.714829,231.22109 C 64.687796,230.96755 66.037796,230.98422 66.714829,231.25814 C 67.391861,231.53207 66.595797,231.73951 64.945797,231.71913 C 63.295797,231.69875 62.741861,231.47463 63.714829,231.22109 z M 70.195797,230.2518 C 70.883297,229.97439 72.008297,229.97439 72.695797,230.2518 C 73.383297,230.52921 72.820797,230.75619 71.445797,230.75619 C 70.070797,230.75619 69.508297,230.52921 70.195797,230.2518 z M 51.695797,228.22475 C 52.658297,227.97323 54.233297,227.97323 55.195797,228.22475 C 56.158297,228.47628 55.370797,228.68208 53.445797,228.68208 C 51.520797,228.68208 50.733297,228.47628 51.695797,228.22475 z M 50.52913,225.55476 C 51.723557,224.52471 56.445797,223.99817 56.445797,224.89503 C 56.445797,225.45551 55.020797,225.91408 53.27913,225.91408 C 51.537464,225.91408 50.299964,225.75238 50.52913,225.55476 z M 50.445797,219.12524 C 50.445797,218.19752 66.320696,216.45565 67.156687,217.29164 C 67.402212,217.53716 64.530205,218.03883 60.774447,218.40645 C 57.01869,218.77408 53.158297,219.29401 52.195797,219.56186 C 51.233297,219.82971 50.445797,219.63323 50.445797,219.12524 z M 53.945797,215.01574 C 60.611068,213.60255 67.445797,213.10699 67.445797,214.03692 C 67.445797,214.51936 66.386808,214.91408 65.092488,214.91408 C 63.798168,214.91408 59.860668,215.12777 56.342488,215.38896 C 51.164072,215.77339 50.707613,215.70231 53.945797,215.01574 z M 51.945797,212.01344 C 53.045797,211.57053 57.320797,210.93842 61.445797,210.60877 C 65.570797,210.27912 68.045797,210.3718 66.945797,210.81472 C 65.845797,211.25764 61.570797,211.88974 57.445797,212.21939 C 53.320797,212.54904 50.845797,212.45636 51.945797,212.01344 z M 51.945797,204.91408 C 54.677177,203.74037 55.445797,203.74037 55.445797,204.91408 C 55.445797,205.46408 54.208297,205.88245 52.695797,205.8438 C 50.258953,205.78151 50.173547,205.67564 51.945797,204.91408 z M 50.445797,201.74089 C 50.445797,201.28614 51.795797,200.91408 53.445797,200.91408 C 55.095797,200.91408 56.445797,201.08801 56.445797,201.30058 C 56.445797,201.51316 55.095797,201.88522 53.445797,202.12739 C 51.795797,202.36956 50.445797,202.19563 50.445797,201.74089 z"
         id="path2432" />
      <path
         style="fill:#252626"
         d="M 52.714829,228.22109 C 53.687796,227.96755 55.037796,227.98422 55.714829,228.25814 C 56.391861,228.53207 55.595797,228.73951 53.945797,228.71913 C 52.295797,228.69875 51.741861,228.47463 52.714829,228.22109 z M 51.258297,225.23097 C 51.980172,224.9421 52.842672,224.97762 53.174964,225.30991 C 53.507255,225.64221 52.91663,225.87855 51.862464,225.83513 C 50.697521,225.78715 50.460564,225.55019 51.258297,225.23097 z M 54.695797,218.22475 C 55.658297,217.97323 57.233297,217.97323 58.195797,218.22475 C 59.158297,218.47628 58.370797,218.68208 56.445797,218.68208 C 54.520797,218.68208 53.733297,218.47628 54.695797,218.22475 z M 63.714829,217.22109 C 64.687796,216.96755 66.037796,216.98422 66.714829,217.25814 C 67.391861,217.53207 66.595797,217.73951 64.945797,217.71913 C 63.295797,217.69875 62.741861,217.47463 63.714829,217.22109 z M 51.714829,215.22109 C 52.687796,214.96755 54.037796,214.98422 54.714829,215.25814 C 55.391861,215.53207 54.595797,215.73951 52.945797,215.71913 C 51.295797,215.69875 50.741861,215.47463 51.714829,215.22109 z M 60.207456,214.20682 C 61.451369,213.96763 63.251369,213.97671 64.207456,214.227 C 65.163544,214.47729 64.145797,214.673 61.945797,214.6619 C 59.745797,214.6508 58.963544,214.44601 60.207456,214.20682 z M 57.207456,211.20682 C 58.451369,210.96763 60.251369,210.97671 61.207456,211.227 C 62.163544,211.47729 61.145797,211.673 58.945797,211.6619 C 56.745797,211.6508 55.963544,211.44601 57.207456,211.20682 z M 51.258297,205.23097 C 51.980172,204.9421 52.842672,204.97762 53.174964,205.30991 C 53.507255,205.64221 52.91663,205.87855 51.862464,205.83513 C 50.697521,205.78715 50.460564,205.55019 51.258297,205.23097 z M 53.195797,201.2518 C 53.883297,200.97439 55.008297,200.97439 55.695797,201.2518 C 56.383297,201.52921 55.820797,201.75619 54.445797,201.75619 C 53.070797,201.75619 52.508297,201.52921 53.195797,201.2518 z"
         id="path2430" />
    </g>
    <rect
       style="fill:none;fill-opacity:1;stroke:#000000;stroke-width:1.80463195;stroke-miterlimit:4;stroke-dasharray:none;stroke-opacity:1"
       id="rect2444"
       width="173.7675"
       height="192.48482"
       x="14.636576"
       y="221.32391" />
    <path
       style="fill:none;fill-rule:evenodd;stroke:#000000;stroke-width:1.71155441;stroke-linecap:butt;stroke-linejoin:miter;marker-start:none;marker-mid:none;marker-end:url(#Arrow2Lend);stroke-miterlimit:5.80000019;stroke-dasharray:none;stroke-opacity:1"
       d="M 101.39577,269.31539 L 101.60822,302.24611"
       id="path3220" />
    <rect
       style="fill:none;fill-opacity:1;stroke:#000000;stroke-width:1.20299995;stroke-miterlimit:5.80000019;stroke-dasharray:none;stroke-opacity:1"
       id="rect10703"
       width="148.49243"
       height="25.253813"
       x="27.274111"
       y="239.60434" />
    <rect
       style="fill:none;fill-opacity:1;stroke:#000000;stroke-width:1.20299995;stroke-miterlimit:5.80000019;stroke-dasharray:none;stroke-opacity:1"
       id="rect10709"
       width="148.49243"
       height="25.253813"
       x="27.274111"
       y="307.30484" />
    <path
       style="fill:none;fill-rule:evenodd;stroke:#000000;stroke-width:1.71155441;stroke-linecap:butt;stroke-linejoin:miter;marker-start:none;marker-mid:none;marker-end:url(#Arrow2Lend);stroke-miterlimit:5.80000019;stroke-dasharray:none;stroke-opacity:1"
       d="M 101.39577,334.78749 L 101.60822,367.71821"
       id="path10711" />
    <rect
       style="fill:none;fill-opacity:1;stroke:#000000;stroke-width:1.20299995;stroke-miterlimit:5.80000019;stroke-dasharray:none;stroke-opacity:1"
       id="rect10713"
       width="148.49243"
       height="25.253813"
       x="27.274111"
       y="374.33444" />
    <path
       style="fill:none;fill-rule:evenodd;stroke:#000000;stroke-width:1.71155441;stroke-linecap:butt;stroke-linejoin:miter;marker-start:none;marker-mid:none;marker-end:url(#Arrow2Lend);stroke-miterlimit:5.80000019;stroke-dasharray:none;stroke-opacity:1"
       d="M -10.965738,320.65732 L 21.964981,320.44487"
       id="path10715" />
    <text
       xml:space="preserve"
       style="font-size:12px;font-style:normal;font-weight:normal;fill:#000000;fill-opacity:1;stroke:none;stroke-width:1px;stroke-linecap:butt;stroke-linejoin:miter;stroke-opacity:1;font-family:Bitstream Vera Sans"
       x="54.495911"
       y="255.54179"
       id="text10717"><tspan
         sodipodi:role="line"
         id="tspan10719"
         x="54.495911"
         y="255.54179">glCreateShader</tspan></text>
    <text
       xml:space="preserve"
       style="font-size:12px;font-style:normal;font-weight:normal;fill:#000000;fill-opacity:1;stroke:none;stroke-width:1px;stroke-linecap:butt;stroke-linejoin:miter;stroke-opacity:1;font-family:Bitstream Vera Sans"
       x="54.1297"
       y="323.24228"
       id="text10721"><tspan
         sodipodi:role="line"
         id="tspan10723"
         x="54.1297"
         y="323.24228">glShaderSource</tspan></text>
    <text
       xml:space="preserve"
       style="font-size:12px;font-style:normal;font-weight:normal;fill:#000000;fill-opacity:1;stroke:none;stroke-width:1px;stroke-linecap:butt;stroke-linejoin:miter;stroke-opacity:1;font-family:Bitstream Vera Sans"
       x="49.925598"
       y="390.27188"
       id="text10725"><tspan
         sodipodi:role="line"
         id="tspan10727"
         x="49.925598"
         y="390.27188">glCompileShader</tspan></text>
    <g
       id="g10729"
       transform="translate(696.25851,109.92113)">
      <path
         style="fill:#d5d6d6"
         d="M 46.544905,233.09927 C 44.922929,230.06858 45.056121,195.15358 46.695797,193.54469 C 47.388026,192.86546 50.846204,192.25547 54.445797,192.17767 C 58.020797,192.1004 63.294276,191.8026 66.16464,191.5159 C 71.811106,190.95191 73.96229,192.10328 74.979811,196.23401 C 75.27517,197.43305 75.388346,205.83908 75.231312,214.91408 L 74.945797,231.41408 L 67.945797,232.595 C 64.095797,233.2445 57.952896,234.08575 54.294906,234.46444 C 48.230657,235.09224 47.547067,234.97182 46.544905,233.09927 z M 62.945797,230.7849 C 67.895797,230.1228 72.226876,229.15824 72.570416,228.64143 C 72.913956,228.12463 73.138956,220.88705 73.070416,212.55793 C 72.951762,198.13896 72.850064,197.41184 70.945797,197.36737 C 69.743845,197.3393 69.075072,196.75197 69.269776,195.89544 C 69.497392,194.89412 68.96985,195.03483 67.496148,196.36851 C 65.965204,197.754 65.100107,197.96839 64.293838,197.16212 C 63.487569,196.35585 62.675266,196.37574 61.286954,197.23575 C 59.763914,198.17921 59.194586,198.1151 58.430597,196.91408 C 57.905801,196.08908 57.469532,195.92844 57.46111,196.55709 C 57.438561,198.24025 54.229127,199.18154 53.351962,197.76225 C 52.768564,196.81829 52.224796,196.85261 50.945797,197.91408 C 49.541828,199.07927 49.156767,199.0696 48.384894,197.84978 C 47.820826,196.95836 47.470617,203.37487 47.46111,214.77537 L 47.445797,233.13666 L 50.695797,232.5627 C 52.483297,232.24702 57.995797,231.44701 62.945797,230.7849 z M 50.445797,229.01408 C 50.445797,228.05127 56.492838,226.62779 57.272186,227.40714 C 58.036174,228.17112 57.269561,228.56517 53.695797,229.24544 C 51.908297,229.58569 50.445797,229.48158 50.445797,229.01408 z M 50.445797,224.91408 C 50.445797,224.36408 52.020797,223.91408 53.945797,223.91408 C 55.870797,223.91408 57.445797,224.36408 57.445797,224.91408 C 57.445797,225.46408 55.870797,225.91408 53.945797,225.91408 C 52.020797,225.91408 50.445797,225.46408 50.445797,224.91408 z M 49.445797,219.11462 C 49.445797,218.54818 52.933297,217.78566 57.195797,217.42015 C 61.458297,217.05464 65.733297,216.53592 66.695797,216.26745 C 67.658297,215.99897 68.445797,216.22008 68.445797,216.75879 C 68.445797,217.7493 65.643178,218.32913 55.195797,219.50007 C 51.500663,219.91422 49.445797,219.77647 49.445797,219.11462 z M 49.881946,215.81077 C 49.42814,215.07649 52.489499,214.4989 62.695797,213.39313 C 66.507211,212.9802 68.445797,213.13157 68.445797,213.84212 C 68.445797,214.4317 67.433297,214.93719 66.195797,214.96543 C 64.958297,214.99367 60.881476,215.35731 57.136196,215.7735 C 53.390915,216.1897 50.126503,216.20647 49.881946,215.81077 z M 50.445797,212.14137 C 50.445797,211.11601 67.28674,209.42169 68.218371,210.35332 C 69.251354,211.3863 67.993286,211.66937 59.195797,212.38342 C 53.824436,212.81939 50.445797,212.72593 50.445797,212.14137 z M 49.445797,204.91408 C 49.445797,204.36408 51.020797,203.91408 52.945797,203.91408 C 54.870797,203.91408 56.445797,204.36408 56.445797,204.91408 C 56.445797,205.46408 54.870797,205.91408 52.945797,205.91408 C 51.020797,205.91408 49.445797,205.46408 49.445797,204.91408 z M 49.445797,201.91408 C 49.445797,201.36408 51.047355,200.91408 53.004814,200.91408 C 55.122848,200.91408 56.3136,201.31896 55.945797,201.91408 C 55.605878,202.46408 54.004321,202.91408 52.38678,202.91408 C 50.769239,202.91408 49.445797,202.46408 49.445797,201.91408 z"
         id="path10731" />
      <path
         style="fill:#a5a8cf"
         d="M 47.135069,233.12322 C 45.680954,231.51644 45.445797,228.74863 45.445797,213.24033 C 45.445797,196.5509 45.59171,195.09201 47.427039,193.43106 C 48.923079,192.07716 49.73707,191.91093 50.750833,192.75227 C 51.738908,193.5723 52.39275,193.56713 53.227209,192.73267 C 54.072309,191.88757 54.731126,191.90599 55.814388,192.80502 C 56.699403,193.53952 57.499691,193.63589 57.860882,193.05148 C 58.187109,192.52363 60.364671,192.19198 62.699909,192.31448 C 65.035148,192.43698 67.722984,192.16169 68.672879,191.70272 C 69.878347,191.12027 71.010922,191.47921 72.422879,192.89116 C 74.303212,194.7715 74.445797,196.17961 74.445797,212.86877 L 74.445797,230.82345 L 71.195797,231.37111 C 69.408297,231.67232 64.795797,232.3757 60.945797,232.93417 C 57.095797,233.49265 52.793469,234.18364 51.385069,234.46971 C 49.659189,234.82027 48.273606,234.38129 47.135069,233.12322 z M 65.945797,230.57821 L 72.945797,229.41408 L 73.219821,212.06863 C 73.482209,195.45966 73.41852,194.7985 71.719821,196.49722 C 70.084688,198.13237 69.920483,198.13985 69.622473,196.59267 C 69.221117,194.50897 67.852192,194.41265 67.084171,196.41408 C 66.767588,197.23908 66.044443,197.91408 65.477182,197.91408 C 64.90992,197.91408 64.445797,197.23908 64.445797,196.41408 C 64.445797,194.47287 62.829082,194.47287 62.084171,196.41408 C 61.767588,197.23908 60.792886,197.91408 59.918165,197.91408 C 59.043444,197.91408 58.605878,197.46408 58.945797,196.91408 C 59.9111,195.35219 58.295769,195.73988 56.295387,197.5502 C 54.620188,199.06623 54.440198,199.06307 53.843091,197.50703 C 53.244185,195.94631 53.061887,195.95154 51.261192,197.58115 C 49.593703,199.0902 49.194981,199.13106 48.40006,197.87432 C 47.815416,196.95002 47.470802,203.14823 47.46111,214.76227 L 47.445797,233.11045 L 53.195797,232.42639 C 56.358297,232.05016 62.095797,231.21848 65.945797,230.57821 z M 50.445797,229.13457 C 50.445797,227.89017 56.348808,226.94813 57.048842,228.08081 C 57.332086,228.53911 56.674078,228.91408 55.586601,228.91408 C 54.499125,228.91408 52.897568,229.18723 52.027584,229.52107 C 51.157601,229.85491 50.445797,229.68099 50.445797,229.13457 z M 50.945797,224.91408 C 51.285716,224.36408 52.887273,223.91408 54.504814,223.91408 C 56.122355,223.91408 57.445797,224.36408 57.445797,224.91408 C 57.445797,225.46408 55.844239,225.91408 53.88678,225.91408 C 51.768746,225.91408 50.577994,225.5092 50.945797,224.91408 z M 50.445797,218.97655 C 50.445797,218.01816 66.387608,216.03543 67.905737,216.805 C 69.305208,217.51442 64.912822,218.50306 57.195797,219.21559 C 53.483297,219.55837 50.445797,219.4508 50.445797,218.97655 z M 50.445797,215.77742 C 50.445797,215.39927 52.133297,214.84408 54.195797,214.54367 C 64.590278,213.02965 68.445797,212.79529 68.445797,213.67746 C 68.445797,214.20054 64.395797,215.04171 59.445797,215.54674 C 54.495797,216.05176 50.445797,216.15557 50.445797,215.77742 z M 50.445797,211.9828 C 50.445797,211.39501 51.729786,210.91408 53.299106,210.91408 C 54.868426,210.91408 59.030926,210.63113 62.549106,210.28531 C 66.859466,209.86162 68.619639,209.9865 67.945797,210.66819 C 66.498153,212.1327 50.445797,213.33857 50.445797,211.9828 z M 49.945797,204.91408 C 50.285716,204.36408 51.887273,203.91408 53.504814,203.91408 C 55.122355,203.91408 56.445797,204.36408 56.445797,204.91408 C 56.445797,205.46408 54.844239,205.91408 52.88678,205.91408 C 50.768746,205.91408 49.577994,205.5092 49.945797,204.91408 z M 49.445797,201.91408 C 49.445797,201.36408 51.047355,200.91408 53.004814,200.91408 C 55.122848,200.91408 56.3136,201.31896 55.945797,201.91408 C 55.605878,202.46408 54.004321,202.91408 52.38678,202.91408 C 50.769239,202.91408 49.445797,202.46408 49.445797,201.91408 z"
         id="path10733" />
      <path
         style="fill:#9f9fa0"
         d="M 48.445797,234.04817 C 48.445797,233.2416 53.385635,232.32157 68.695797,230.27667 L 73.445797,229.64223 L 73.445797,212.07816 C 73.445797,198.41721 73.17913,194.78075 72.245797,195.71408 C 70.794681,197.1652 69.080438,197.31426 69.945797,195.91408 C 70.285716,195.36408 69.862273,194.91408 69.004814,194.91408 C 68.147355,194.91408 67.445797,195.31594 67.445797,195.80709 C 67.445797,196.29825 66.720694,196.97835 65.834456,197.31843 C 64.681455,197.76088 64.388082,197.50687 64.803072,196.42542 C 65.145532,195.53298 64.825434,194.91408 64.021401,194.91408 C 63.272506,194.91408 62.400753,195.58908 62.084171,196.41408 C 61.767588,197.23908 60.996298,197.91408 60.370193,197.91408 C 59.744088,197.91408 59.490841,197.23908 59.807423,196.41408 C 60.161416,195.49159 59.805518,194.91408 58.883027,194.91408 C 58.058027,194.91408 57.124006,195.58908 56.807423,196.41408 C 56.490841,197.23908 55.578407,197.91408 54.779791,197.91408 C 53.981176,197.91408 53.605878,197.46408 53.945797,196.91408 C 54.285716,196.36408 53.910418,195.91408 53.111803,195.91408 C 52.313187,195.91408 51.389808,196.6176 51.059849,197.47746 C 50.729889,198.33732 49.999404,198.75623 49.436548,198.40836 C 48.873692,198.0605 48.672071,197.35698 48.988502,196.84498 C 49.304933,196.33299 48.872657,195.91408 48.027888,195.91408 C 46.7155,195.91408 46.44862,198.49756 46.194273,213.66408 L 45.8966,231.41408 L 45.671198,213.31907 C 45.456507,196.08385 45.54512,195.13417 47.536116,193.33234 C 49.468402,191.58365 49.718176,191.56609 50.839918,193.10017 C 51.970051,194.64572 52.125581,194.64528 53.104229,193.0938 C 53.976564,191.71086 54.419412,191.64729 55.711398,192.71955 C 56.647201,193.49619 57.504237,193.62854 57.860882,193.05148 C 58.187109,192.52363 60.364671,192.19198 62.699909,192.31448 C 65.035148,192.43698 67.711757,192.1677 68.64793,191.71608 C 69.844635,191.13877 70.958151,191.54765 72.39793,193.09308 C 74.302829,195.13775 74.445797,196.53468 74.445797,213.10264 C 74.445797,222.89893 74.217835,230.91408 73.939215,230.91408 C 72.820864,230.91408 52.794142,233.94376 50.695797,234.43039 C 49.458297,234.71738 48.445797,234.54538 48.445797,234.04817 z M 52.207456,228.20682 C 53.451369,227.96763 55.251369,227.97671 56.207456,228.227 C 57.163544,228.47729 56.145797,228.673 53.945797,228.6619 C 51.745797,228.6508 50.963544,228.44601 52.207456,228.20682 z M 51.945797,224.91408 C 54.708499,223.72691 56.445797,223.72691 56.445797,224.91408 C 56.445797,225.46408 54.983297,225.88245 53.195797,225.8438 C 50.47227,225.7849 50.26978,225.63429 51.945797,224.91408 z M 50.445797,219.11181 C 50.445797,218.12849 67.190408,216.32536 68.07814,217.21309 C 68.347846,217.4828 65.728402,217.99953 62.257155,218.36138 C 58.785908,218.72323 54.708297,219.25638 53.195797,219.54614 C 51.683297,219.83591 50.445797,219.64046 50.445797,219.11181 z M 53.445797,214.92373 C 58.702068,213.73815 67.445797,213.11028 67.445797,213.91842 C 67.445797,214.6625 57.036675,215.98679 52.549106,215.81363 C 50.366359,215.72941 50.511218,215.58564 53.445797,214.92373 z M 51.445797,212.01831 C 52.270797,211.55401 56.545797,210.88798 60.945797,210.53825 C 65.64468,210.16476 68.326838,210.26207 67.445797,210.77406 C 66.620797,211.25349 62.345797,211.91952 57.945797,212.25413 C 53.429577,212.59757 50.599006,212.49488 51.445797,212.01831 z M 50.945797,204.91408 C 53.724687,203.71995 56.445797,203.71995 56.445797,204.91408 C 56.445797,205.46408 54.758297,205.88245 52.695797,205.8438 C 49.687598,205.78741 49.341424,205.6035 50.945797,204.91408 z M 50.445797,201.93313 C 50.445797,201.37265 51.870797,200.91408 53.612464,200.91408 C 57.25374,200.91408 57.121783,201.35061 53.195797,202.29246 C 51.563258,202.6841 50.445797,202.53809 50.445797,201.93313 z"
         id="path10735" />
      <path
         style="fill:#7171b9"
         d="M 50.714829,233.22109 C 51.687796,232.96755 53.037796,232.98422 53.714829,233.25814 C 54.391861,233.53207 53.595797,233.73951 51.945797,233.71913 C 50.295797,233.69875 49.741861,233.47463 50.714829,233.22109 z M 56.714829,232.22109 C 57.687796,231.96755 59.037796,231.98422 59.714829,232.25814 C 60.391861,232.53207 59.595797,232.73951 57.945797,232.71913 C 56.295797,232.69875 55.741861,232.47463 56.714829,232.22109 z M 63.714829,231.22109 C 64.687796,230.96755 66.037796,230.98422 66.714829,231.25814 C 67.391861,231.53207 66.595797,231.73951 64.945797,231.71913 C 63.295797,231.69875 62.741861,231.47463 63.714829,231.22109 z M 45.671198,213.16408 L 45.445797,194.91408 L 48.195797,194.8438 C 50.632641,194.78151 50.718047,194.67564 48.945797,193.91408 C 47.037441,193.09403 47.048896,193.05143 49.195797,192.98437 C 50.433297,192.94571 51.445797,193.45009 51.445797,194.10521 C 51.445797,194.76033 52.090503,194.42283 52.878476,193.35521 C 53.980817,191.86165 54.586842,191.68577 55.506807,192.59241 C 56.424542,193.49685 57.167876,193.49685 58.704781,192.59241 C 60.26372,191.675 60.807343,191.69087 61.159784,192.66408 C 61.408758,193.35158 62.587464,193.90719 63.77913,193.89877 C 65.544621,193.88629 65.66806,193.70397 64.445797,192.91408 C 63.15311,192.07868 63.179505,191.94259 64.63678,191.92939 C 65.566821,191.92097 66.622521,192.39101 66.982781,192.97392 C 67.402389,193.65286 68.071447,193.44071 68.844411,192.38362 C 69.940879,190.88411 70.170537,190.87749 71.360286,192.31105 C 72.777506,194.01869 72.184896,196.91408 70.418165,196.91408 C 69.818444,196.91408 69.605878,196.46408 69.945797,195.91408 C 70.285716,195.36408 69.862273,194.91408 69.004814,194.91408 C 68.147355,194.91408 67.445797,195.31594 67.445797,195.80709 C 67.445797,196.29825 66.720694,196.97835 65.834456,197.31843 C 64.681455,197.76088 64.388082,197.50687 64.803072,196.42542 C 65.161675,195.49092 64.810521,194.91408 63.883027,194.91408 C 63.058027,194.91408 62.124006,195.58908 61.807423,196.41408 C 61.490841,197.23908 60.781819,197.91408 60.231819,197.91408 C 59.681819,197.91408 59.490841,197.23908 59.807423,196.41408 C 60.161416,195.49159 59.805518,194.91408 58.883027,194.91408 C 58.058027,194.91408 57.124006,195.58908 56.807423,196.41408 C 56.490841,197.23908 55.492464,197.90719 54.588808,197.89877 C 53.162652,197.88548 53.143776,197.75551 54.445797,196.91408 C 55.658756,196.13021 55.515235,195.94178 53.695797,195.92939 C 52.458297,195.92097 51.445797,196.36408 51.445797,196.91408 C 51.445797,197.46408 50.658297,197.90719 49.695797,197.89877 C 48.20025,197.88568 48.1639,197.74251 49.445797,196.91408 C 50.661263,196.12859 50.523373,195.9418 48.718871,195.92939 C 46.510462,195.91421 46.489471,196.06166 46.194273,213.66408 L 45.8966,231.41408 L 45.671198,213.16408 z M 70.195797,230.2518 C 70.883297,229.97439 72.008297,229.97439 72.695797,230.2518 C 73.383297,230.52921 72.820797,230.75619 71.445797,230.75619 C 70.070797,230.75619 69.508297,230.52921 70.195797,230.2518 z M 51.695797,228.22475 C 52.658297,227.97323 54.233297,227.97323 55.195797,228.22475 C 56.158297,228.47628 55.370797,228.68208 53.445797,228.68208 C 51.520797,228.68208 50.733297,228.47628 51.695797,228.22475 z M 50.52913,225.55476 C 51.723557,224.52471 56.445797,223.99817 56.445797,224.89503 C 56.445797,225.45551 55.020797,225.91408 53.27913,225.91408 C 51.537464,225.91408 50.299964,225.75238 50.52913,225.55476 z M 50.445797,219.12524 C 50.445797,218.19752 66.320696,216.45565 67.156687,217.29164 C 67.402212,217.53716 64.530205,218.03883 60.774447,218.40645 C 57.01869,218.77408 53.158297,219.29401 52.195797,219.56186 C 51.233297,219.82971 50.445797,219.63323 50.445797,219.12524 z M 53.945797,215.01574 C 60.611068,213.60255 67.445797,213.10699 67.445797,214.03692 C 67.445797,214.51936 66.386808,214.91408 65.092488,214.91408 C 63.798168,214.91408 59.860668,215.12777 56.342488,215.38896 C 51.164072,215.77339 50.707613,215.70231 53.945797,215.01574 z M 51.945797,212.01344 C 53.045797,211.57053 57.320797,210.93842 61.445797,210.60877 C 65.570797,210.27912 68.045797,210.3718 66.945797,210.81472 C 65.845797,211.25764 61.570797,211.88974 57.445797,212.21939 C 53.320797,212.54904 50.845797,212.45636 51.945797,212.01344 z M 51.945797,204.91408 C 54.677177,203.74037 55.445797,203.74037 55.445797,204.91408 C 55.445797,205.46408 54.208297,205.88245 52.695797,205.8438 C 50.258953,205.78151 50.173547,205.67564 51.945797,204.91408 z M 50.445797,201.74089 C 50.445797,201.28614 51.795797,200.91408 53.445797,200.91408 C 55.095797,200.91408 56.445797,201.08801 56.445797,201.30058 C 56.445797,201.51316 55.095797,201.88522 53.445797,202.12739 C 51.795797,202.36956 50.445797,202.19563 50.445797,201.74089 z"
         id="path10737" />
      <path
         style="fill:#bca231"
         d="M 50.714829,233.22109 C 51.687796,232.96755 53.037796,232.98422 53.714829,233.25814 C 54.391861,233.53207 53.595797,233.73951 51.945797,233.71913 C 50.295797,233.69875 49.741861,233.47463 50.714829,233.22109 z M 56.714829,232.22109 C 57.687796,231.96755 59.037796,231.98422 59.714829,232.25814 C 60.391861,232.53207 59.595797,232.73951 57.945797,232.71913 C 56.295797,232.69875 55.741861,232.47463 56.714829,232.22109 z M 63.714829,231.22109 C 64.687796,230.96755 66.037796,230.98422 66.714829,231.25814 C 67.391861,231.53207 66.595797,231.73951 64.945797,231.71913 C 63.295797,231.69875 62.741861,231.47463 63.714829,231.22109 z M 70.195797,230.2518 C 70.883297,229.97439 72.008297,229.97439 72.695797,230.2518 C 73.383297,230.52921 72.820797,230.75619 71.445797,230.75619 C 70.070797,230.75619 69.508297,230.52921 70.195797,230.2518 z M 51.695797,228.22475 C 52.658297,227.97323 54.233297,227.97323 55.195797,228.22475 C 56.158297,228.47628 55.370797,228.68208 53.445797,228.68208 C 51.520797,228.68208 50.733297,228.47628 51.695797,228.22475 z M 50.52913,225.55476 C 51.723557,224.52471 56.445797,223.99817 56.445797,224.89503 C 56.445797,225.45551 55.020797,225.91408 53.27913,225.91408 C 51.537464,225.91408 50.299964,225.75238 50.52913,225.55476 z M 50.445797,219.12524 C 50.445797,218.19752 66.320696,216.45565 67.156687,217.29164 C 67.402212,217.53716 64.530205,218.03883 60.774447,218.40645 C 57.01869,218.77408 53.158297,219.29401 52.195797,219.56186 C 51.233297,219.82971 50.445797,219.63323 50.445797,219.12524 z M 53.945797,215.01574 C 60.611068,213.60255 67.445797,213.10699 67.445797,214.03692 C 67.445797,214.51936 66.386808,214.91408 65.092488,214.91408 C 63.798168,214.91408 59.860668,215.12777 56.342488,215.38896 C 51.164072,215.77339 50.707613,215.70231 53.945797,215.01574 z M 51.945797,212.01344 C 53.045797,211.57053 57.320797,210.93842 61.445797,210.60877 C 65.570797,210.27912 68.045797,210.3718 66.945797,210.81472 C 65.845797,211.25764 61.570797,211.88974 57.445797,212.21939 C 53.320797,212.54904 50.845797,212.45636 51.945797,212.01344 z M 51.945797,204.91408 C 54.677177,203.74037 55.445797,203.74037 55.445797,204.91408 C 55.445797,205.46408 54.208297,205.88245 52.695797,205.8438 C 50.258953,205.78151 50.173547,205.67564 51.945797,204.91408 z M 50.445797,201.74089 C 50.445797,201.28614 51.795797,200.91408 53.445797,200.91408 C 55.095797,200.91408 56.445797,201.08801 56.445797,201.30058 C 56.445797,201.51316 55.095797,201.88522 53.445797,202.12739 C 51.795797,202.36956 50.445797,202.19563 50.445797,201.74089 z M 49.281207,197.03696 C 51.127173,195.86684 50.932683,194.62571 48.769797,193.77341 C 47.184301,193.14863 47.240004,193.04546 49.195797,192.98437 C 50.947873,192.92963 51.445797,193.46733 51.445797,195.41408 C 51.445797,197.1342 50.89988,197.9093 49.695797,197.89877 C 48.354019,197.88703 48.257308,197.68599 49.281207,197.03696 z M 55.200156,195.74541 C 55.650018,194.02514 55.4239,193.70851 54.106537,194.21403 C 52.233303,194.93285 51.825437,193.41552 53.597501,192.32032 C 55.052822,191.42088 57.488721,194.63865 56.770125,196.51128 C 55.90391,198.7686 54.578638,198.1221 55.200156,195.74541 z M 60.03799,195.40278 C 60.568101,193.29065 60.386103,192.99976 58.892997,193.57271 C 57.676995,194.03934 57.345501,193.88538 57.840769,193.08402 C 59.627867,190.19243 63.082105,193.09231 61.807423,196.41408 C 60.842564,198.92846 59.365046,198.084 60.03799,195.40278 z M 65.122899,195.31316 C 65.460782,194.43265 65.109159,193.28346 64.341514,192.7594 C 63.268809,192.02708 63.408659,191.87923 64.945797,192.12054 C 67.383251,192.50319 68.396304,196.91408 66.046733,196.91408 C 65.04722,196.91408 64.723701,196.35345 65.122899,195.31316 z M 70.156048,194.91408 C 70.460037,193.75163 70.18673,192.91408 69.503411,192.91408 C 68.856805,192.91408 68.632567,192.4209 69.005104,191.81812 C 70.014603,190.18472 72.856602,193.40116 72.113926,195.33654 C 71.231663,197.63568 69.539799,197.27062 70.156048,194.91408 z"
         id="path10739" />
      <path
         style="fill:#707170"
         d="M 50.714829,233.22109 C 51.687796,232.96755 53.037796,232.98422 53.714829,233.25814 C 54.391861,233.53207 53.595797,233.73951 51.945797,233.71913 C 50.295797,233.69875 49.741861,233.47463 50.714829,233.22109 z M 56.714829,232.22109 C 57.687796,231.96755 59.037796,231.98422 59.714829,232.25814 C 60.391861,232.53207 59.595797,232.73951 57.945797,232.71913 C 56.295797,232.69875 55.741861,232.47463 56.714829,232.22109 z M 63.714829,231.22109 C 64.687796,230.96755 66.037796,230.98422 66.714829,231.25814 C 67.391861,231.53207 66.595797,231.73951 64.945797,231.71913 C 63.295797,231.69875 62.741861,231.47463 63.714829,231.22109 z M 70.195797,230.2518 C 70.883297,229.97439 72.008297,229.97439 72.695797,230.2518 C 73.383297,230.52921 72.820797,230.75619 71.445797,230.75619 C 70.070797,230.75619 69.508297,230.52921 70.195797,230.2518 z M 51.695797,228.22475 C 52.658297,227.97323 54.233297,227.97323 55.195797,228.22475 C 56.158297,228.47628 55.370797,228.68208 53.445797,228.68208 C 51.520797,228.68208 50.733297,228.47628 51.695797,228.22475 z M 50.52913,225.55476 C 51.723557,224.52471 56.445797,223.99817 56.445797,224.89503 C 56.445797,225.45551 55.020797,225.91408 53.27913,225.91408 C 51.537464,225.91408 50.299964,225.75238 50.52913,225.55476 z M 50.445797,219.12524 C 50.445797,218.19752 66.320696,216.45565 67.156687,217.29164 C 67.402212,217.53716 64.530205,218.03883 60.774447,218.40645 C 57.01869,218.77408 53.158297,219.29401 52.195797,219.56186 C 51.233297,219.82971 50.445797,219.63323 50.445797,219.12524 z M 53.945797,215.01574 C 60.611068,213.60255 67.445797,213.10699 67.445797,214.03692 C 67.445797,214.51936 66.386808,214.91408 65.092488,214.91408 C 63.798168,214.91408 59.860668,215.12777 56.342488,215.38896 C 51.164072,215.77339 50.707613,215.70231 53.945797,215.01574 z M 51.945797,212.01344 C 53.045797,211.57053 57.320797,210.93842 61.445797,210.60877 C 65.570797,210.27912 68.045797,210.3718 66.945797,210.81472 C 65.845797,211.25764 61.570797,211.88974 57.445797,212.21939 C 53.320797,212.54904 50.845797,212.45636 51.945797,212.01344 z M 51.945797,204.91408 C 54.677177,203.74037 55.445797,203.74037 55.445797,204.91408 C 55.445797,205.46408 54.208297,205.88245 52.695797,205.8438 C 50.258953,205.78151 50.173547,205.67564 51.945797,204.91408 z M 50.445797,201.74089 C 50.445797,201.28614 51.795797,200.91408 53.445797,200.91408 C 55.095797,200.91408 56.445797,201.08801 56.445797,201.30058 C 56.445797,201.51316 55.095797,201.88522 53.445797,202.12739 C 51.795797,202.36956 50.445797,202.19563 50.445797,201.74089 z"
         id="path10741" />
      <path
         style="fill:#252626"
         d="M 52.714829,228.22109 C 53.687796,227.96755 55.037796,227.98422 55.714829,228.25814 C 56.391861,228.53207 55.595797,228.73951 53.945797,228.71913 C 52.295797,228.69875 51.741861,228.47463 52.714829,228.22109 z M 51.258297,225.23097 C 51.980172,224.9421 52.842672,224.97762 53.174964,225.30991 C 53.507255,225.64221 52.91663,225.87855 51.862464,225.83513 C 50.697521,225.78715 50.460564,225.55019 51.258297,225.23097 z M 54.695797,218.22475 C 55.658297,217.97323 57.233297,217.97323 58.195797,218.22475 C 59.158297,218.47628 58.370797,218.68208 56.445797,218.68208 C 54.520797,218.68208 53.733297,218.47628 54.695797,218.22475 z M 63.714829,217.22109 C 64.687796,216.96755 66.037796,216.98422 66.714829,217.25814 C 67.391861,217.53207 66.595797,217.73951 64.945797,217.71913 C 63.295797,217.69875 62.741861,217.47463 63.714829,217.22109 z M 51.714829,215.22109 C 52.687796,214.96755 54.037796,214.98422 54.714829,215.25814 C 55.391861,215.53207 54.595797,215.73951 52.945797,215.71913 C 51.295797,215.69875 50.741861,215.47463 51.714829,215.22109 z M 60.207456,214.20682 C 61.451369,213.96763 63.251369,213.97671 64.207456,214.227 C 65.163544,214.47729 64.145797,214.673 61.945797,214.6619 C 59.745797,214.6508 58.963544,214.44601 60.207456,214.20682 z M 57.207456,211.20682 C 58.451369,210.96763 60.251369,210.97671 61.207456,211.227 C 62.163544,211.47729 61.145797,211.673 58.945797,211.6619 C 56.745797,211.6508 55.963544,211.44601 57.207456,211.20682 z M 51.258297,205.23097 C 51.980172,204.9421 52.842672,204.97762 53.174964,205.30991 C 53.507255,205.64221 52.91663,205.87855 51.862464,205.83513 C 50.697521,205.78715 50.460564,205.55019 51.258297,205.23097 z M 53.195797,201.2518 C 53.883297,200.97439 55.008297,200.97439 55.695797,201.2518 C 56.383297,201.52921 55.820797,201.75619 54.445797,201.75619 C 53.070797,201.75619 52.508297,201.52921 53.195797,201.2518 z"
         id="path10743" />
    </g>
    <rect
       style="fill:none;fill-opacity:1;stroke:#000000;stroke-width:1.80463195;stroke-miterlimit:4;stroke-dasharray:none;stroke-opacity:1"
       id="rect10745"
       width="173.7675"
       height="192.48482"
       x="529.20508"
       y="221.32391" />
    <path
       style="fill:none;fill-rule:evenodd;stroke:#000000;stroke-width:1.71155441;stroke-linecap:butt;stroke-linejoin:miter;marker-start:none;marker-mid:none;marker-end:url(#Arrow2Lend);stroke-miterlimit:5.80000019;stroke-dasharray:none;stroke-opacity:1"
       d="M 615.96424,269.31538 L 616.17669,302.2461"
       id="path10747" />
    <rect
       style="fill:none;fill-opacity:1;stroke:#000000;stroke-width:1.20299995;stroke-miterlimit:5.80000019;stroke-dasharray:none;stroke-opacity:1"
       id="rect10749"
       width="148.49243"
       height="25.253813"
       x="541.84265"
       y="239.60434" />
    <rect
       style="fill:none;fill-opacity:1;stroke:#000000;stroke-width:1.20299995;stroke-miterlimit:5.80000019;stroke-dasharray:none;stroke-opacity:1"
       id="rect10751"
       width="148.49243"
       height="25.253813"
       x="541.84265"
       y="307.30484" />
    <path
       style="fill:none;fill-rule:evenodd;stroke:#000000;stroke-width:1.71155441;stroke-linecap:butt;stroke-linejoin:miter;marker-start:none;marker-mid:none;marker-end:url(#Arrow2Lend);stroke-miterlimit:5.80000019;stroke-dasharray:none;stroke-opacity:1"
       d="M 615.96424,334.78748 L 616.17669,367.7182"
       id="path10753" />
    <rect
       style="fill:none;fill-opacity:1;stroke:#000000;stroke-width:1.20299995;stroke-miterlimit:5.80000019;stroke-dasharray:none;stroke-opacity:1"
       id="rect10755"
       width="148.49243"
       height="25.253813"
       x="541.84265"
       y="374.33444" />
    <path
       style="fill:none;fill-rule:evenodd;stroke:#000000;stroke-width:1.71155441;stroke-linecap:butt;stroke-linejoin:miter;marker-start:none;marker-mid:none;marker-end:url(#Arrow2Lend);stroke-miterlimit:5.80000019;stroke-dasharray:none;stroke-opacity:1"
       d="M 728.86924,320.40819 L 695.93852,320.62064"
       id="path10757" />
    <text
       xml:space="preserve"
       style="font-size:12px;font-style:normal;font-weight:normal;fill:#000000;fill-opacity:1;stroke:none;stroke-width:1px;stroke-linecap:butt;stroke-linejoin:miter;stroke-opacity:1;font-family:Bitstream Vera Sans"
       x="569.06439"
       y="255.54179"
       id="text10759"><tspan
         sodipodi:role="line"
         id="tspan10761"
         x="569.06439"
         y="255.54179">glCreateShader</tspan></text>
    <text
       xml:space="preserve"
       style="font-size:12px;font-style:normal;font-weight:normal;fill:#000000;fill-opacity:1;stroke:none;stroke-width:1px;stroke-linecap:butt;stroke-linejoin:miter;stroke-opacity:1;font-family:Bitstream Vera Sans"
       x="568.69818"
       y="323.24228"
       id="text10763"><tspan
         sodipodi:role="line"
         id="tspan10765"
         x="568.69818"
         y="323.24228">glShaderSource</tspan></text>
    <text
       xml:space="preserve"
       style="font-size:12px;font-style:normal;font-weight:normal;fill:#000000;fill-opacity:1;stroke:none;stroke-width:1px;stroke-linecap:butt;stroke-linejoin:miter;stroke-opacity:1;font-family:Bitstream Vera Sans"
       x="564.49414"
       y="390.27188"
       id="text10767"><tspan
         sodipodi:role="line"
         id="tspan10769"
         x="564.49414"
         y="390.27188">glCompileShader</tspan></text>
    <rect
       style="fill:none;fill-opacity:1;stroke:#000000;stroke-width:2.38234019;stroke-miterlimit:4;stroke-dasharray:none;stroke-opacity:1"
       id="rect10838"
       width="180.77075"
       height="322.45349"
       x="275.82556"
       y="206.87546" />
    <rect
       style="fill:none;fill-opacity:1;stroke:#000000;stroke-width:1.20299995;stroke-miterlimit:5.80000019;stroke-dasharray:none;stroke-opacity:1"
       id="rect10884"
       width="148.49243"
       height="25.253813"
       x="291.96472"
       y="216.46095" />
    <rect
       style="fill:none;fill-opacity:1;stroke:#000000;stroke-width:1.20299995;stroke-miterlimit:5.80000019;stroke-dasharray:none;stroke-opacity:1"
       id="rect10911"
       width="148.49243"
       height="25.253813"
       x="291.96472"
       y="289.19193" />
    <path
       style="fill:none;fill-rule:evenodd;stroke:#000000;stroke-width:1.71155441;stroke-linecap:butt;stroke-linejoin:miter;marker-start:none;marker-mid:none;marker-end:url(#Arrow2Lend);stroke-miterlimit:5.80000019;stroke-dasharray:none;stroke-opacity:1"
       d="M 366.08638,243.22874 L 366.29883,276.15946"
       id="path10934" />
    <text
       xml:space="preserve"
       style="font-size:12px;font-style:normal;font-weight:normal;fill:#000000;fill-opacity:1;stroke:none;stroke-width:1px;stroke-linecap:butt;stroke-linejoin:miter;stroke-opacity:1;font-family:Bitstream Vera Sans"
       x="315.62695"
       y="232.39841"
       id="text11021"><tspan
         sodipodi:role="line"
         id="tspan11023"
         x="315.62695"
         y="232.39841">glCreateProgram</tspan></text>
    <text
       xml:space="preserve"
       style="font-size:12px;font-style:normal;font-weight:normal;fill:#000000;fill-opacity:1;stroke:none;stroke-width:1px;stroke-linecap:butt;stroke-linejoin:miter;stroke-opacity:1;font-family:Bitstream Vera Sans"
       x="319.63184"
       y="305.12936"
       id="text11025"><tspan
         sodipodi:role="line"
         id="tspan11027"
         x="319.63184"
         y="305.12936">glAttachShader</tspan></text>
    <rect
       style="fill:none;fill-opacity:1;stroke:#000000;stroke-width:1.20299995;stroke-miterlimit:5.80000019;stroke-dasharray:none;stroke-opacity:1"
       id="rect11029"
       width="148.49243"
       height="25.253813"
       x="291.96472"
       y="355.73721" />
    <path
       style="fill:none;fill-rule:evenodd;stroke:#000000;stroke-width:1.71155441;stroke-linecap:butt;stroke-linejoin:miter;marker-start:none;marker-mid:none;marker-end:url(#Arrow2Lend);stroke-miterlimit:5.80000019;stroke-dasharray:none;stroke-opacity:1"
       d="M 366.08638,315.83496 L 366.29883,348.76568"
       id="path11031" />
    <text
       xml:space="preserve"
       style="font-size:12px;font-style:normal;font-weight:normal;fill:#000000;fill-opacity:1;stroke:none;stroke-width:1px;stroke-linecap:butt;stroke-linejoin:miter;stroke-opacity:1;font-family:Bitstream Vera Sans"
       x="319.63184"
       y="371.67465"
       id="text11033"><tspan
         sodipodi:role="line"
         id="tspan11035"
         x="319.63184"
         y="371.67465">glAttachShader</tspan></text>
    <rect
       style="fill:none;fill-opacity:1;stroke:#000000;stroke-width:1.20299995;stroke-miterlimit:5.80000019;stroke-dasharray:none;stroke-opacity:1"
       id="rect11037"
       width="148.49243"
       height="25.253813"
       x="291.96472"
       y="422.40729" />
    <path
       style="fill:none;fill-rule:evenodd;stroke:#000000;stroke-width:1.71155441;stroke-linecap:butt;stroke-linejoin:miter;marker-start:none;marker-mid:none;marker-end:url(#Arrow2Lend);stroke-miterlimit:5.80000019;stroke-dasharray:none;stroke-opacity:1"
       d="M 366.08638,382.50502 L 366.29883,415.43574"
       id="path11039" />
    <text
       xml:space="preserve"
       style="font-size:12px;font-style:normal;font-weight:normal;fill:#000000;fill-opacity:1;stroke:none;stroke-width:1px;stroke-linecap:butt;stroke-linejoin:miter;stroke-opacity:1;font-family:Bitstream Vera Sans"
       x="323.29102"
       y="438.34473"
       id="text11041"><tspan
         sodipodi:role="line"
         id="tspan11043"
         x="323.29102"
         y="438.34473">glLinkProgram</tspan></text>
    <rect
       style="fill:none;fill-opacity:1;stroke:#000000;stroke-width:1.20299995;stroke-miterlimit:5.80000019;stroke-dasharray:none;stroke-opacity:1"
       id="rect11045"
       width="148.49243"
       height="25.253813"
       x="291.96472"
       y="490.08752" />
    <path
       style="fill:none;fill-rule:evenodd;stroke:#000000;stroke-width:1.71155441;stroke-linecap:butt;stroke-linejoin:miter;marker-start:none;marker-mid:none;marker-end:url(#Arrow2Lend);stroke-miterlimit:5.80000019;stroke-dasharray:none;stroke-opacity:1"
       d="M 366.08638,450.18524 L 366.29883,483.11596"
       id="path11047" />
    <text
       xml:space="preserve"
       style="font-size:12px;font-style:normal;font-weight:normal;fill:#000000;fill-opacity:1;stroke:none;stroke-width:1px;stroke-linecap:butt;stroke-linejoin:miter;stroke-opacity:1;font-family:Bitstream Vera Sans"
       x="324.36914"
       y="506.02496"
       id="text11049"><tspan
         sodipodi:role="line"
         id="tspan11051"
         x="324.36914"
         y="506.02496">glUseProgram</tspan></text>
    <path
       style="fill:none;fill-rule:evenodd;stroke:#000000;stroke-width:0.82630843px;stroke-linecap:butt;stroke-linejoin:miter;marker-start:none;marker-end:url(#Arrow2Lend);stroke-opacity:1"
       d="M 529.20808,319.63807 L 472.84644,319.63807 L 472.8318,302.41852 L 443.00877,301.94535"
       id="path11057" />
    <path
       style="fill:none;fill-rule:evenodd;stroke:#000000;stroke-width:0.9958716px;stroke-linecap:butt;stroke-linejoin:miter;marker-end:url(#Arrow2Lend);stroke-opacity:1"
       d="M 188.13884,322.64741 L 231.06993,322.41021 L 231.06993,369.85019 L 289.73356,369.37579"
       id="path12626" />
    <text
       xml:space="preserve"
       style="font-size:12px;font-style:normal;font-variant:normal;font-weight:bold;font-stretch:normal;text-align:start;line-height:125%;writing-mode:lr-tb;text-anchor:start;fill:#000000;fill-opacity:1;stroke:none;stroke-width:1px;stroke-linecap:butt;stroke-linejoin:miter;stroke-opacity:1;font-family:Bitstream Vera Sans;-inkscape-font-specification:Bitstream Vera Sans Bold"
       x="42.422668"
       y="210.90511"
       id="text13149"
       sodipodi:linespacing="125%"><tspan
         sodipodi:role="line"
         id="tspan13151"
         x="42.422668"
         y="210.90511">Fragment Shader</tspan></text>
    <text
       xml:space="preserve"
       style="font-size:12px;font-style:normal;font-variant:normal;font-weight:bold;font-stretch:normal;text-align:start;line-height:125%;writing-mode:lr-tb;text-anchor:start;fill:#000000;fill-opacity:1;stroke:none;stroke-width:1px;stroke-linecap:butt;stroke-linejoin:miter;stroke-opacity:1;font-family:Bitstream Vera Sans;-inkscape-font-specification:Bitstream Vera Sans Bold"
       x="567.86029"
       y="212.06819"
       id="text13153"
       sodipodi:linespacing="125%"><tspan
         sodipodi:role="line"
         id="tspan13155"
         x="567.86029"
         y="212.06819">Vertex Shader</tspan></text>
    <text
       xml:space="preserve"
       style="font-size:12px;font-style:normal;font-variant:normal;font-weight:bold;font-stretch:normal;text-align:start;line-height:125%;writing-mode:lr-tb;text-anchor:start;fill:#000000;fill-opacity:1;stroke:none;stroke-width:1px;stroke-linecap:butt;stroke-linejoin:miter;stroke-opacity:1;font-family:Bitstream Vera Sans;-inkscape-font-specification:Bitstream Vera Sans Bold"
       x="311.13574"
       y="195.75282"
       id="text13157"
       sodipodi:linespacing="125%"><tspan
         sodipodi:role="line"
         id="tspan13159"
         x="311.13574"
         y="195.75282">Shader Program</tspan></text>
  </g>
</svg>
