<?xml version="1.0" encoding="UTF-8" standalone="no"?>
<!-- Generator: Adobe Illustrator 13.0.0, SVG Export Plug-In . SVG Version: 6.00 Build 14948)  -->

<svg
   xmlns:dc="http://purl.org/dc/elements/1.1/"
   xmlns:cc="http://creativecommons.org/ns#"
   xmlns:rdf="http://www.w3.org/1999/02/22-rdf-syntax-ns#"
   xmlns:svg="http://www.w3.org/2000/svg"
   xmlns="http://www.w3.org/2000/svg"
   xmlns:sodipodi="http://sodipodi.sourceforge.net/DTD/sodipodi-0.dtd"
   xmlns:inkscape="http://www.inkscape.org/namespaces/inkscape"
   version="1.1"
   id="Layer_1"
   x="0px"
   y="0px"
   width="99.998001"
   height="115.91"
   viewBox="0 0 99.998001 115.91"
   enable-background="new 0 0 500 280"
   xml:space="preserve"
   inkscape:version="0.48.4 r9939"
   sodipodi:docname="apple.svg"><metadata
     id="metadata9"><rdf:RDF><cc:Work
         rdf:about=""><dc:format>image/svg+xml</dc:format><dc:type
           rdf:resource="http://purl.org/dc/dcmitype/StillImage" /><dc:title></dc:title></cc:Work></rdf:RDF></metadata><defs
     id="defs7" /><sodipodi:namedview
     pagecolor="#ffffff"
     bordercolor="#666666"
     borderopacity="1"
     objecttolerance="10"
     gridtolerance="10"
     guidetolerance="10"
     inkscape:pageopacity="0"
     inkscape:pageshadow="2"
     inkscape:window-width="640"
     inkscape:window-height="480"
     id="namedview5"
     showgrid="false"
     fit-margin-top="0"
     fit-margin-left="0"
     fit-margin-right="0"
     fit-margin-bottom="0"
     inkscape:zoom="0.84285714"
     inkscape:cx="49.986"
     inkscape:cy="58.485"
     inkscape:window-x="0"
     inkscape:window-y="0"
     inkscape:window-maximized="0"
     inkscape:current-layer="Layer_1" /><path
     d="m 96.894,38.047 c -8.77,6.201 -13.158,13.676 -13.158,22.41 0,10.458 5.425,18.479 16.262,24.076 -2.908,8.435 -7.122,15.764 -12.65,22.009 -5.516,6.243 -10.553,9.368 -15.11,9.368 -2.147,0 -5.075,-0.718 -8.794,-2.133 l -1.782,-0.687 c -3.646,-1.416 -6.854,-2.133 -9.656,-2.133 -2.641,0 -5.535,0.555 -8.679,1.665 l -2.237,0.807 -2.818,1.154 c -2.218,0.884 -4.468,1.326 -6.725,1.326 -5.328,0 -11.208,-4.387 -17.642,-13.161 C 4.632,90.181 0,76.484 0,61.663 0,51.125 2.886,42.643 8.678,36.203 c 5.78,-6.432 13.446,-9.658 22.979,-9.658 3.566,0 6.897,0.653 10,1.958 l 2.129,0.865 2.238,0.92 c 1.992,0.84 3.601,1.264 4.825,1.264 1.569,0 3.316,-0.364 5.231,-1.094 l 2.929,-1.151 2.19,-0.804 c 3.483,-1.262 7.34,-1.896 11.555,-1.896 10.009,0.001 18.046,3.814 24.14,11.44 z M 73.224,0 c 0.108,1.344 0.167,2.378 0.167,3.102 0,6.628 -2.412,12.442 -7.237,17.443 -4.823,5 -10.438,7.494 -16.837,7.494 -0.189,-1.493 -0.29,-2.563 -0.29,-3.212 0,-5.635 2.239,-10.924 6.726,-15.864 C 60.235,4.024 65.424,1.125 71.328,0.285 71.74,0.212 72.381,0.121 73.224,0 z"
     id="path3"
     inkscape:connector-curvature="0"
     style="fill:#333333" /></svg>