<?xml version="1.0" encoding="UTF-8" standalone="no"?>
<!-- Created with Inkscape (http://www.inkscape.org/) -->

<svg
   xmlns:dc="http://purl.org/dc/elements/1.1/"
   xmlns:cc="http://creativecommons.org/ns#"
   xmlns:rdf="http://www.w3.org/1999/02/22-rdf-syntax-ns#"
   xmlns:svg="http://www.w3.org/2000/svg"
   xmlns="http://www.w3.org/2000/svg"
   xmlns:sodipodi="http://sodipodi.sourceforge.net/DTD/sodipodi-0.dtd"
   xmlns:inkscape="http://www.inkscape.org/namespaces/inkscape"
   version="1.0"
   width="506.43042"
   height="431.04315"
   id="svg2"
   inkscape:version="0.48.4 r9939"
   sodipodi:docname="Pipeline.svg">
  <metadata
     id="metadata45">
    <rdf:RDF>
      <cc:Work
         rdf:about="">
        <dc:format>image/svg+xml</dc:format>
        <dc:type
           rdf:resource="http://purl.org/dc/dcmitype/StillImage" />
      </cc:Work>
    </rdf:RDF>
  </metadata>
  <sodipodi:namedview
     pagecolor="#ffffff"
     bordercolor="#666666"
     borderopacity="1"
     objecttolerance="10"
     gridtolerance="10"
     guidetolerance="10"
     inkscape:pageopacity="0"
     inkscape:pageshadow="2"
     inkscape:window-width="1920"
     inkscape:window-height="1025"
     id="namedview43"
     showgrid="false"
     inkscape:zoom="0.87245841"
     inkscape:cx="-82.247806"
     inkscape:cy="381.86509"
     inkscape:window-x="-2"
     inkscape:window-y="-3"
     inkscape:window-maximized="1"
     inkscape:current-layer="svg2"
     fit-margin-top="0"
     fit-margin-left="0"
     fit-margin-right="0"
     fit-margin-bottom="0" />
  <defs
     id="defs4">
    <marker
       inkscape:stockid="Arrow1Lstart"
       orient="auto"
       refY="0"
       refX="0"
       id="Arrow1Lstart"
       style="overflow:visible">
      <path
         id="path3945"
         d="M 0,0 5,-5 -12.5,0 5,5 0,0 z"
         style="fill-rule:evenodd;stroke:#000000;stroke-width:1pt"
         transform="matrix(0.8,0,0,0.8,10,0)"
         inkscape:connector-curvature="0" />
    </marker>
    <marker
       inkscape:stockid="Arrow1Lend"
       orient="auto"
       refY="0"
       refX="0"
       id="Arrow1Lend"
       style="overflow:visible">
      <path
         id="path3948"
         d="M 0,0 5,-5 -12.5,0 5,5 0,0 z"
         style="fill-rule:evenodd;stroke:#000000;stroke-width:1pt"
         transform="matrix(-0.8,0,0,-0.8,-10,0)"
         inkscape:connector-curvature="0" />
    </marker>
    <marker
       inkscape:stockid="Arrow1Send"
       orient="auto"
       refY="0"
       refX="0"
       id="Arrow1Send"
       style="overflow:visible">
      <path
         id="path3960"
         d="M 0,0 5,-5 -12.5,0 5,5 0,0 z"
         style="fill-rule:evenodd;stroke:#000000;stroke-width:1pt"
         transform="matrix(-0.2,0,0,-0.2,-1.2,0)"
         inkscape:connector-curvature="0" />
    </marker>
  </defs>
  <path
     inkscape:connector-curvature="0"
     style="fill:#e6e6e6;fill-opacity:1;stroke:none"
     id="rect2626"
     d="m 20.87629,0 206.04475,0 c 11.56546,0 20.87628,6.2694486 20.87628,14.057059 l 0,392.191931 c 0,7.78763 -9.31082,14.05707 -20.87628,14.05707 l -206.04475,0 C 9.3108254,420.30606 0,414.03662 0,406.24899 L 0,14.057059 C 0,6.2694486 9.3108254,0 20.87629,0 z" />
  <path
     inkscape:connector-curvature="0"
     style="font-size:24px;font-style:normal;font-variant:normal;font-weight:normal;font-stretch:normal;fill:#000000;fill-opacity:1;stroke:none;font-family:DejaVu Sans;-inkscape-font-specification:DejaVu Sans"
     id="text3505"
     d="m 223.93174,60.868271 0,1.69922 c -0.50782,-0.2604 -1.03516,-0.45572 -1.58203,-0.58593 -0.54688,-0.1302 -1.11328,-0.19531 -1.69922,-0.19532 -0.89193,1e-5 -1.56087,0.13673 -2.00683,0.41016 -0.44597,0.27345 -0.66895,0.6836 -0.66895,1.23047 0,0.41667 0.15951,0.74382 0.47852,0.98144 0.31901,0.23764 0.96028,0.46388 1.92383,0.67871 l 0.61523,0.13672 c 1.27604,0.27345 2.18261,0.65919 2.71973,1.15723 0.5371,0.49805 0.80565,1.19304 0.80566,2.08496 -1e-5,1.01563 -0.40203,1.81966 -1.20605,2.41211 -0.80405,0.59245 -1.90919,0.88867 -3.31543,0.88867 -0.58594,0 -1.1963,-0.057 -1.83106,-0.1709 -0.63477,-0.11393 -1.30371,-0.28483 -2.00683,-0.51269 l 0,-1.85547 c 0.66406,0.34505 1.31835,0.60384 1.96289,0.77637 0.64453,0.17252 1.28255,0.25879 1.91406,0.25879 0.84635,0 1.49739,-0.14486 1.95313,-0.43457 0.45572,-0.28972 0.68358,-0.69824 0.68359,-1.22559 -1e-5,-0.48828 -0.1644,-0.86263 -0.49317,-1.12305 -0.32878,-0.26041 -1.04981,-0.51106 -2.16308,-0.75195 l -0.625,-0.14649 c -1.11329,-0.23437 -1.91732,-0.59407 -2.41211,-1.0791 -0.49479,-0.48502 -0.74219,-1.15071 -0.74219,-1.99707 0,-1.02863 0.36458,-1.8229 1.09375,-2.38281 0.72917,-0.55988 1.76432,-0.83983 3.10547,-0.83984 0.66406,10e-6 1.28906,0.0488 1.875,0.14648 0.58593,0.0977 1.12629,0.24415 1.62109,0.43945 l 0,0 z m 5.23438,-3.42773 0,3.10547 3.70117,0 0,1.39648 -3.70117,0 0,5.9375 c 0,0.89193 0.12207,1.46485 0.36621,1.71875 0.24414,0.25391 0.74056,0.38086 1.48926,0.38086 l 1.8457,0 0,1.50391 -1.8457,0 c -1.38672,0 -2.34375,-0.25879 -2.8711,-0.77637 -0.52734,-0.51758 -0.79101,-1.45996 -0.79101,-2.82715 l 0,-5.9375 -1.31836,0 0,-1.39648 1.31836,0 0,-3.10547 1.80664,0 z m 13.27148,4.76562 0,-5.91796 1.79688,0 0,15.19531 -1.79688,0 0,-1.64063 c -0.37761,0.65105 -0.8545,1.13444 -1.43066,1.4502 -0.57618,0.31575 -1.26791,0.47363 -2.0752,0.47363 -1.32161,0 -2.39746,-0.52734 -3.22753,-1.58203 -0.83008,-1.05468 -1.24512,-2.4414 -1.24512,-4.16016 0,-1.71874 0.41504,-3.10546 1.24512,-4.16015 0.83007,-1.05468 1.90592,-1.58202 3.22753,-1.58203 0.80729,10e-6 1.49902,0.15789 2.0752,0.47363 0.57616,0.31577 1.05305,0.79916 1.43066,1.45019 l 0,0 z m -6.12304,3.81836 c -1e-5,1.32162 0.2718,2.35841 0.81543,3.11036 0.54361,0.75195 1.29068,1.12793 2.24121,1.12793 0.95051,0 1.69921,-0.37598 2.24609,-1.12793 0.54687,-0.75195 0.8203,-1.78874 0.82031,-3.11036 -1e-5,-1.3216 -0.27344,-2.35839 -0.82031,-3.11035 -0.54688,-0.75194 -1.29558,-1.12792 -2.24609,-1.12793 -0.95053,1e-5 -1.6976,0.37599 -2.24121,1.12793 -0.54363,0.75196 -0.81544,1.78875 -0.81543,3.11035 l 0,0 z m 11.62109,-5.47851 1.79688,0 0,10.9375 -1.79688,0 0,-10.9375 z m 0,-4.25781 1.79688,0 0,2.27539 -1.79688,0 0,-2.27539 z m 14.63867,8.59375 0,6.60156 -1.79687,0 0,-6.54297 c -10e-6,-1.03515 -0.20183,-1.80989 -0.60547,-2.32422 -0.40366,-0.51431 -1.00912,-0.77147 -1.81641,-0.77148 -0.97006,10e-6 -1.73503,0.30925 -2.29492,0.92773 -0.5599,0.6185 -0.83985,1.4616 -0.83984,2.5293 l 0,6.18164 -1.80664,0 0,-10.9375 1.80664,0 0,1.69922 c 0.42968,-0.65754 0.93586,-1.14908 1.51855,-1.47461 0.58268,-0.32551 1.25488,-0.48827 2.0166,-0.48828 1.25651,10e-6 2.20703,0.389 2.85157,1.16699 0.64452,0.778 0.96678,1.92221 0.96679,3.43262 l 0,0 z" />
  <path
     inkscape:connector-curvature="0"
     style="font-size:20px;font-style:normal;font-variant:normal;font-weight:normal;font-stretch:normal;fill:#000000;fill-opacity:1;stroke:none;font-family:DejaVu Sans;-inkscape-font-specification:DejaVu Sans"
     id="text3513"
     d="m 397.28003,130.77094 0,1.69922 c -0.50782,-0.26041 -1.03516,-0.45572 -1.58203,-0.58594 -0.54688,-0.1302 -1.11329,-0.1953 -1.69922,-0.19531 -0.89193,1e-5 -1.56088,0.13673 -2.00684,0.41015 -0.44596,0.27345 -0.66894,0.68361 -0.66894,1.23047 0,0.41668 0.1595,0.74382 0.47851,0.98145 0.31901,0.23763 0.96029,0.46387 1.92383,0.67871 l 0.61524,0.13672 c 1.27603,0.27344 2.18261,0.65918 2.71972,1.15722 0.5371,0.49806 0.80566,1.19304 0.80567,2.08496 -1e-5,1.01563 -0.40203,1.81967 -1.20606,2.41211 -0.80404,0.59245 -1.90918,0.88868 -3.31543,0.88868 -0.58594,0 -1.19629,-0.057 -1.83105,-0.1709 -0.63477,-0.11393 -1.30372,-0.28483 -2.00684,-0.5127 l 0,-1.85547 c 0.66406,0.34506 1.31836,0.60385 1.96289,0.77637 0.64453,0.17253 1.28255,0.25879 1.91406,0.25879 0.84635,0 1.49739,-0.14486 1.95313,-0.43457 0.45572,-0.28971 0.68359,-0.69824 0.68359,-1.22559 0,-0.48827 -0.16439,-0.86262 -0.49316,-1.12304 -0.32878,-0.26042 -1.04981,-0.51107 -2.16309,-0.75196 l -0.625,-0.14648 c -1.11328,-0.23437 -1.91732,-0.59407 -2.41211,-1.0791 -0.49479,-0.48502 -0.74218,-1.15071 -0.74218,-1.99707 0,-1.02864 0.36458,-1.82291 1.09375,-2.38282 0.72916,-0.55988 1.76432,-0.83983 3.10547,-0.83984 0.66405,1e-5 1.28905,0.0488 1.875,0.14649 0.58593,0.0977 1.12629,0.24415 1.62109,0.43945 l 0,0 z m 5.23437,-3.42774 0,3.10547 3.70118,0 0,1.39649 -3.70118,0 0,5.9375 c 0,0.89193 0.12207,1.46484 0.36622,1.71875 0.24413,0.2539 0.74055,0.38086 1.48925,0.38086 l 1.84571,0 0,1.5039 -1.84571,0 c -1.38672,0 -2.34375,-0.25879 -2.87109,-0.77636 -0.52735,-0.51758 -0.79102,-1.45996 -0.79102,-2.82715 l 0,-5.9375 -1.31836,0 0,-1.39649 1.31836,0 0,-3.10547 1.80664,0 z m 13.27149,4.76563 0,-5.91797 1.79687,0 0,15.19531 -1.79687,0 0,-1.64062 c -0.37761,0.65104 -0.8545,1.13444 -1.43067,1.45019 -0.57617,0.31576 -1.26791,0.47364 -2.07519,0.47364 -1.32162,0 -2.39746,-0.52735 -3.22754,-1.58204 -0.83008,-1.05468 -1.24512,-2.4414 -1.24512,-4.16015 0,-1.71874 0.41504,-3.10546 1.24512,-4.16016 0.83008,-1.05467 1.90592,-1.58202 3.22754,-1.58203 0.80728,1e-5 1.49902,0.15789 2.07519,0.47363 0.57617,0.31577 1.05306,0.79917 1.43067,1.4502 l 0,0 z m -6.12305,3.81836 c 0,1.32162 0.27181,2.3584 0.81543,3.11035 0.54362,0.75195 1.29069,1.12793 2.24121,1.12793 0.95052,0 1.69921,-0.37598 2.2461,-1.12793 0.54686,-0.75195 0.8203,-1.78873 0.82031,-3.11035 -10e-6,-1.32161 -0.27345,-2.35839 -0.82031,-3.11035 -0.54689,-0.75195 -1.29558,-1.12792 -2.2461,-1.12793 -0.95052,1e-5 -1.69759,0.37598 -2.24121,1.12793 -0.54362,0.75196 -0.81543,1.78874 -0.81543,3.11035 l 0,0 z m 15.85938,-4.21875 c -0.96355,1e-5 -1.72527,0.37598 -2.28516,1.12793 -0.5599,0.75196 -0.83985,1.78223 -0.83984,3.09082 -1e-5,1.3086 0.27831,2.33887 0.83496,3.09082 0.55663,0.75195 1.31998,1.12793 2.29004,1.12793 0.95702,0 1.71548,-0.3776 2.27539,-1.13281 0.55988,-0.75521 0.83983,-1.78385 0.83984,-3.08594 -10e-6,-1.29557 -0.27996,-2.32259 -0.83984,-3.08106 -0.55991,-0.75845 -1.31837,-1.13768 -2.27539,-1.13769 l 0,0 z m 0,-1.52344 c 1.56249,1e-5 2.7897,0.50782 3.68164,1.52344 0.89191,1.01563 1.33788,2.42188 1.33789,4.21875 -10e-6,1.79037 -0.44598,3.19499 -1.33789,4.21387 -0.89194,1.01888 -2.11915,1.52832 -3.68164,1.52832 -1.56902,0 -2.79786,-0.50944 -3.68653,-1.52832 -0.88867,-1.01888 -1.33301,-2.4235 -1.333,-4.21387 -10e-6,-1.79687 0.44433,-3.20312 1.333,-4.21875 0.88867,-1.01562 2.11751,-1.52343 3.68653,-1.52344 l 0,0 z m 7.80273,6.88477 0,-6.6211 1.79688,0 0,6.55274 c -10e-6,1.03516 0.20182,1.81152 0.60546,2.3291 0.40365,0.51758 1.00911,0.77637 1.81641,0.77637 0.97005,0 1.73665,-0.30925 2.29981,-0.92774 0.56314,-0.61849 0.84471,-1.46158 0.84472,-2.5293 l 0,-6.20117 1.79688,0 0,10.9375 -1.79688,0 0,-1.67968 c -0.4362,0.66406 -0.94239,1.15722 -1.51855,1.47949 -0.57618,0.32226 -1.24513,0.4834 -2.00684,0.4834 -1.25651,0 -2.21029,-0.39063 -2.86133,-1.17188 -0.65104,-0.78125 -0.97656,-1.92382 -0.97656,-3.42773 l 0,0 z m 14.6582,-9.72657 0,3.10547 3.70118,0 0,1.39649 -3.70118,0 0,5.9375 c 0,0.89193 0.12207,1.46484 0.36622,1.71875 0.24413,0.2539 0.74055,0.38086 1.48925,0.38086 l 1.84571,0 0,1.5039 -1.84571,0 c -1.38672,0 -2.34375,-0.25879 -2.87109,-0.77636 -0.52735,-0.51758 -0.79102,-1.45996 -0.79102,-2.82715 l 0,-5.9375 -1.31836,0 0,-1.39649 1.31836,0 0,-3.10547 1.80664,0 z m 9.26758,-0.53711 1.66016,0 -5.07813,16.43555 -1.66015,0 5.07812,-16.43555 z m 10.53711,3.96485 0,1.69922 c -0.50782,-0.26041 -1.03516,-0.45572 -1.58203,-0.58594 -0.54688,-0.1302 -1.11329,-0.1953 -1.69922,-0.19531 -0.89193,1e-5 -1.56087,0.13673 -2.00683,0.41015 -0.44597,0.27345 -0.66895,0.68361 -0.66895,1.23047 0,0.41668 0.1595,0.74382 0.47852,0.98145 0.319,0.23763 0.96028,0.46387 1.92382,0.67871 l 0.61524,0.13672 c 1.27603,0.27344 2.18261,0.65918 2.71973,1.15722 0.5371,0.49806 0.80565,1.19304 0.80566,2.08496 -1e-5,1.01563 -0.40203,1.81967 -1.20606,2.41211 -0.80404,0.59245 -1.90918,0.88868 -3.31543,0.88868 -0.58594,0 -1.19629,-0.057 -1.83105,-0.1709 -0.63477,-0.11393 -1.30371,-0.28483 -2.00684,-0.5127 l 0,-1.85547 c 0.66406,0.34506 1.31836,0.60385 1.96289,0.77637 0.64453,0.17253 1.28255,0.25879 1.91407,0.25879 0.84635,0 1.49739,-0.14486 1.95312,-0.43457 0.45572,-0.28971 0.68359,-0.69824 0.6836,-1.22559 -10e-6,-0.48827 -0.1644,-0.86262 -0.49317,-1.12304 -0.32878,-0.26042 -1.04981,-0.51107 -2.16308,-0.75196 l -0.625,-0.14648 c -1.11329,-0.23437 -1.91732,-0.59407 -2.41211,-1.0791 -0.4948,-0.48502 -0.74219,-1.15071 -0.74219,-1.99707 0,-1.02864 0.36458,-1.82291 1.09375,-2.38282 0.72916,-0.55988 1.76432,-0.83983 3.10547,-0.83984 0.66405,1e-5 1.28905,0.0488 1.875,0.14649 0.58593,0.0977 1.12629,0.24415 1.62109,0.43945 l 0,0 z m 5.23438,-3.42774 0,3.10547 3.70117,0 0,1.39649 -3.70117,0 0,5.9375 c -1e-5,0.89193 0.12206,1.46484 0.36621,1.71875 0.24413,0.2539 0.74055,0.38086 1.48926,0.38086 l 1.8457,0 0,1.5039 -1.8457,0 c -1.38673,0 -2.34376,-0.25879 -2.8711,-0.77636 -0.52734,-0.51758 -0.79102,-1.45996 -0.79101,-2.82715 l 0,-5.9375 -1.31836,0 0,-1.39649 1.31836,0 0,-3.10547 1.80664,0 z m 13.27148,4.76563 0,-5.91797 1.79688,0 0,15.19531 -1.79688,0 0,-1.64062 c -0.37761,0.65104 -0.8545,1.13444 -1.43066,1.45019 -0.57618,0.31576 -1.26791,0.47364 -2.0752,0.47364 -1.32162,0 -2.39746,-0.52735 -3.22754,-1.58204 -0.83008,-1.05468 -1.24512,-2.4414 -1.24511,-4.16015 -10e-6,-1.71874 0.41503,-3.10546 1.24511,-4.16016 0.83008,-1.05467 1.90592,-1.58202 3.22754,-1.58203 0.80729,1e-5 1.49902,0.15789 2.0752,0.47363 0.57616,0.31577 1.05305,0.79917 1.43066,1.4502 l 0,0 z m -6.12305,3.81836 c 0,1.32162 0.27181,2.3584 0.81543,3.11035 0.54362,0.75195 1.29069,1.12793 2.24121,1.12793 0.95052,0 1.69922,-0.37598 2.2461,-1.12793 0.54686,-0.75195 0.8203,-1.78873 0.82031,-3.11035 -10e-6,-1.32161 -0.27345,-2.35839 -0.82031,-3.11035 -0.54688,-0.75195 -1.29558,-1.12792 -2.2461,-1.12793 -0.95052,1e-5 -1.69759,0.37598 -2.24121,1.12793 -0.54362,0.75196 -0.81543,1.78874 -0.81543,3.11035 l 0,0 z m 11.6211,-5.47852 1.79687,0 0,10.9375 -1.79687,0 0,-10.9375 z m 0,-4.25781 1.79687,0 0,2.27539 -1.79687,0 0,-2.27539 z m 14.63867,8.59375 0,6.60156 -1.79688,0 0,-6.54297 c 0,-1.03514 -0.20183,-1.80988 -0.60546,-2.32421 -0.40366,-0.51432 -1.00913,-0.77148 -1.81641,-0.77149 -0.97006,1e-5 -1.73503,0.30925 -2.29492,0.92774 -0.5599,0.61849 -0.83985,1.46159 -0.83985,2.52929 l 0,6.18164 -1.80664,0 0,-10.9375 1.80664,0 0,1.69922 c 0.42969,-0.65754 0.93587,-1.14908 1.51856,-1.47461 0.58268,-0.32551 1.25488,-0.48827 2.0166,-0.48828 1.2565,1e-5 2.20702,0.38901 2.85156,1.16699 0.64452,0.77801 0.96679,1.92221 0.9668,3.43262 l 0,0 z" />
  <path
     inkscape:connector-curvature="0"
     style="fill:#ffffff;fill-opacity:1;stroke:none"
     id="path11879"
     d="m 48.944323,308.48415 149.908677,0 c 11.08,0 20,8.92 20,20 l 0,35.76144 c 0,11.08 -8.92,20 -20,20 l -149.908677,0 c -11.08,0 -20,-8.92 -20,-20 l 0,-35.76144 c 0,-11.08 8.92,-20 20,-20 z" />
  <path
     inkscape:connector-curvature="0"
     style="fill:#000000;fill-opacity:1;stroke:none"
     id="rect9054"
     d="m 48.929911,307.49962 c -11.616703,0 -21,9.3833 -21,21 l 0,35.75 c 0,11.6167 9.383298,21 21,21 l 149.937499,0 c 11.6167,0 21,-9.3833 21,-21 l 0,-35.75 c 0,-11.6167 -9.3833,-21 -21,-21 l -149.937499,0 z m 0,2 149.937499,0 c 10.5433,0 19,8.4567 19,19 l 0,35.75 c 0,10.5433 -8.4567,19 -19,19 l -149.937499,0 c -10.543297,0 -19,-8.4567 -19,-19 l 0,-35.75 c 0,-10.54329 8.456703,-19 19,-19 z" />
  <path
     inkscape:connector-curvature="0"
     style="font-size:20px;font-style:normal;font-variant:normal;font-weight:normal;font-stretch:normal;fill:#000000;fill-opacity:1;stroke:none;font-family:DejaVu Sans;-inkscape-font-specification:DejaVu Sans"
     id="text9056"
     d="m 251.23708,138.48063 0,1.69922 c -0.50782,-0.2604 -1.03516,-0.45572 -1.58203,-0.58593 -0.54688,-0.1302 -1.11329,-0.19531 -1.69922,-0.19532 -0.89193,1e-5 -1.56088,0.13673 -2.00684,0.41016 -0.44596,0.27345 -0.66894,0.6836 -0.66894,1.23047 0,0.41667 0.1595,0.74382 0.47851,0.98144 0.31901,0.23764 0.96029,0.46388 1.92383,0.67871 l 0.61524,0.13672 c 1.27603,0.27345 2.18261,0.65919 2.71972,1.15723 0.5371,0.49805 0.80566,1.19304 0.80567,2.08496 -1e-5,1.01563 -0.40203,1.81966 -1.20606,2.41211 -0.80404,0.59245 -1.90918,0.88867 -3.31543,0.88867 -0.58594,0 -1.19629,-0.057 -1.83105,-0.1709 -0.63477,-0.11393 -1.30371,-0.28483 -2.00684,-0.51269 l 0,-1.85547 c 0.66406,0.34505 1.31836,0.60384 1.96289,0.77637 0.64453,0.17252 1.28255,0.25879 1.91407,0.25879 0.84634,0 1.49738,-0.14486 1.95312,-0.43458 0.45572,-0.28971 0.68359,-0.69823 0.68359,-1.22558 0,-0.48828 -0.16439,-0.86263 -0.49316,-1.12305 -0.32878,-0.26041 -1.04981,-0.51106 -2.16309,-0.75195 l -0.625,-0.14649 c -1.11328,-0.23437 -1.91732,-0.59407 -2.41211,-1.0791 -0.49479,-0.48502 -0.74218,-1.15071 -0.74218,-1.99707 0,-1.02863 0.36458,-1.8229 1.09375,-2.38281 0.72916,-0.55988 1.76432,-0.83983 3.10547,-0.83984 0.66405,1e-5 1.28905,0.0488 1.875,0.14648 0.58593,0.0977 1.12629,0.24415 1.62109,0.43945 l 0,0 z m 5.23437,-3.42773 0,3.10547 3.70118,0 0,1.39648 -3.70118,0 0,5.9375 c 0,0.89193 0.12207,1.46485 0.36622,1.71875 0.24413,0.25391 0.74055,0.38086 1.48925,0.38086 l 1.84571,0 0,1.50391 -1.84571,0 c -1.38672,0 -2.34375,-0.25879 -2.87109,-0.77637 -0.52735,-0.51758 -0.79102,-1.45996 -0.79102,-2.82715 l 0,-5.9375 -1.31836,0 0,-1.39648 1.31836,0 0,-3.10547 1.80664,0 z m 13.27149,4.76562 0,-5.91796 1.79687,0 0,15.19531 -1.79687,0 0,-1.64063 c -0.37761,0.65105 -0.8545,1.13444 -1.43067,1.4502 -0.57617,0.31575 -1.26791,0.47363 -2.07519,0.47363 -1.32162,0 -2.39746,-0.52734 -3.22754,-1.58203 -0.83008,-1.05468 -1.24512,-2.4414 -1.24512,-4.16016 0,-1.71874 0.41504,-3.10546 1.24512,-4.16015 0.83008,-1.05468 1.90592,-1.58202 3.22754,-1.58203 0.80728,1e-5 1.49902,0.15789 2.07519,0.47363 0.57617,0.31576 1.05306,0.79916 1.43067,1.45019 l 0,0 z m -6.12305,3.81836 c 0,1.32162 0.27181,2.35841 0.81543,3.11036 0.54362,0.75195 1.29069,1.12793 2.24121,1.12793 0.95052,0 1.69921,-0.37598 2.2461,-1.12793 0.54686,-0.75195 0.8203,-1.78874 0.82031,-3.11036 -10e-6,-1.3216 -0.27345,-2.35839 -0.82031,-3.11035 -0.54689,-0.75194 -1.29558,-1.12792 -2.2461,-1.12793 -0.95052,1e-5 -1.69759,0.37599 -2.24121,1.12793 -0.54362,0.75196 -0.81543,1.78875 -0.81543,3.11035 l 0,0 z m 20.97656,-0.45898 0,0.87891 -8.26171,0 c 0.0781,1.23698 0.45084,2.17936 1.11816,2.82714 0.66731,0.64779 1.59667,0.97169 2.78809,0.97168 0.69009,1e-5 1.35904,-0.0846 2.00683,-0.2539 0.64778,-0.16927 1.29068,-0.42318 1.92871,-0.76172 l 0,1.69922 c -0.64454,0.27344 -1.30535,0.48177 -1.98242,0.625 -0.67709,0.14323 -1.36394,0.21484 -2.06055,0.21484 -1.74479,0 -3.12663,-0.50781 -4.1455,-1.52344 -1.01889,-1.01562 -1.52833,-2.38932 -1.52832,-4.12109 -1e-5,-1.79036 0.48339,-3.21125 1.45019,-4.2627 0.96679,-1.05142 2.2705,-1.57713 3.91113,-1.57714 1.47135,1e-5 2.63509,0.47364 3.49121,1.42089 0.85611,0.94728 1.28417,2.23471 1.28418,3.86231 l 0,0 z m -1.79687,-0.52734 c -0.013,-0.98307 -0.2881,-1.76757 -0.8252,-2.35352 -0.53711,-0.58593 -1.24838,-0.8789 -2.13378,-0.87891 -1.00261,1e-5 -1.80502,0.28322 -2.40723,0.84961 -0.60222,0.56642 -0.9489,1.36394 -1.04004,2.39258 l 6.40625,-0.01 z m 11.08398,-2.8125 c -0.20183,-0.11718 -0.42155,-0.20345 -0.65918,-0.25879 -0.23763,-0.0553 -0.49968,-0.083 -0.78613,-0.083 -1.01563,1e-5 -1.79525,0.33041 -2.33887,0.99121 -0.54362,0.66082 -0.81543,1.60971 -0.81543,2.84668 l 0,5.76172 -1.80664,0 0,-10.9375 1.80664,0 0,1.69922 c 0.3776,-0.66406 0.86914,-1.15722 1.47461,-1.4795 0.60547,-0.32225 1.34114,-0.48338 2.20704,-0.48339 0.12369,1e-5 0.2604,0.008 0.41015,0.0244 0.14973,0.0163 0.31575,0.0407 0.49805,0.0732 l 0.01,1.84571 z m 8.24219,0 c -0.20183,-0.11718 -0.42156,-0.20345 -0.65918,-0.25879 -0.23764,-0.0553 -0.49968,-0.083 -0.78613,-0.083 -1.01563,1e-5 -1.79525,0.33041 -2.33887,0.99121 -0.54362,0.66082 -0.81543,1.60971 -0.81543,2.84668 l 0,5.76172 -1.80664,0 0,-10.9375 1.80664,0 0,1.69922 c 0.3776,-0.66406 0.86914,-1.15722 1.47461,-1.4795 0.60546,-0.32225 1.34114,-0.48338 2.20703,-0.48339 0.12369,1e-5 0.26041,0.008 0.41016,0.0244 0.14973,0.0163 0.31575,0.0407 0.49805,0.0732 l 0.01,1.84571 z" />
  <path
     inkscape:connector-curvature="0"
     style="fill:#ffffff;fill-opacity:1;stroke:none"
     id="path12039"
     d="m 373.21833,314.54994 c -53.29345,0 -96.53126,16.40347 -96.53125,36.59375 0,20.19029 43.23781,36.56248 96.53125,36.5625 53.29345,0 96.5625,-16.37221 96.5625,-36.5625 0,-20.19029 -43.26904,-36.59375 -96.5625,-36.59375 z" />
  <path
     inkscape:connector-curvature="0"
     style="fill:#ffffff;fill-opacity:1;stroke:none"
     id="path12079"
     d="m 375.5107,183.59655 c -53.29345,0 -96.53126,16.40347 -96.53125,36.59375 0,20.19029 43.23781,36.56251 96.53125,36.5625 53.29345,0 96.5625,-16.37221 96.5625,-36.5625 0,-20.19029 -43.26904,-36.59375 -96.5625,-36.59375 z" />
  <path
     inkscape:connector-curvature="0"
     style="fill:#000000;fill-opacity:1;stroke:none"
     id="path11851"
     d="m 373.20966,313.85462 c -26.74459,0 -50.97055,4.10934 -68.58562,10.78283 -8.80753,3.33673 -15.96461,7.32789 -20.95411,11.79454 -4.9895,4.46666 -7.8187,9.43869 -7.8187,14.69659 0,5.25791 2.8292,10.25656 7.8187,14.72322 4.9895,4.46665 12.14658,8.43118 20.95411,11.76792 17.61507,6.67349 41.84103,10.78283 68.58562,10.78283 26.7446,0 50.97056,-4.10934 68.58563,-10.78283 8.80753,-3.33674 15.99588,-7.30127 20.98538,-11.76792 4.98951,-4.46666 7.78743,-9.46531 7.78743,-14.72322 0,-5.2579 -2.79792,-10.22993 -7.78743,-14.69659 -4.9895,-4.46665 -12.17785,-8.45781 -20.98538,-11.79454 -17.61507,-6.67349 -41.84104,-10.78283 -68.58563,-10.78283 z m 0,1.38446 c 26.54886,0 50.59422,4.10908 67.92886,10.67633 8.66731,3.28362 15.66792,7.16413 20.45371,11.44843 4.7858,4.2843 7.34958,8.9275 7.34958,13.76474 0,4.83724 -2.56378,9.48045 -7.34958,13.76475 -4.78579,4.28429 -11.7864,8.19143 -20.45371,11.47505 -17.33464,6.56725 -41.38,10.64971 -67.92886,10.64971 -26.54886,0 -50.59423,-4.08246 -67.92885,-10.64971 -8.66731,-3.28362 -15.63664,-7.19076 -20.42244,-11.47505 -4.78579,-4.2843 -7.38085,-8.92751 -7.38085,-13.76475 0,-4.83724 2.59506,-9.48044 7.38085,-13.76474 4.7858,-4.2843 11.75513,-8.16481 20.42244,-11.44843 17.33462,-6.56725 41.38,-10.67633 67.92885,-10.67633 z" />
  <path
     inkscape:connector-curvature="0"
     style="font-size:20px;font-style:normal;font-variant:normal;font-weight:normal;font-stretch:normal;fill:#000000;fill-opacity:1;stroke:none;font-family:DejaVu Sans;-inkscape-font-specification:DejaVu Sans"
     id="text11216"
     d="m 393.96737,283.17809 0,1.69922 c -0.50783,-0.26041 -1.03517,-0.45572 -1.58204,-0.58594 -0.54688,-0.13019 -1.11328,-0.1953 -1.69921,-0.19531 -0.89194,10e-6 -1.56088,0.13673 -2.00684,0.41016 -0.44597,0.27344 -0.66895,0.6836 -0.66895,1.23047 0,0.41667 0.15951,0.74382 0.47852,0.98144 0.31901,0.23764 0.96028,0.46388 1.92383,0.67871 l 0.61523,0.13672 c 1.27604,0.27345 2.18261,0.65919 2.71973,1.15723 0.5371,0.49805 0.80565,1.19304 0.80566,2.08496 -10e-6,1.01563 -0.40202,1.81966 -1.20605,2.41211 -0.80405,0.59245 -1.90919,0.88867 -3.31543,0.88867 -0.58594,0 -1.19629,-0.057 -1.83106,-0.1709 -0.63476,-0.11393 -1.30371,-0.28483 -2.00683,-0.51269 l 0,-1.85547 c 0.66406,0.34505 1.31835,0.60384 1.96289,0.77637 0.64453,0.17252 1.28255,0.25879 1.91406,0.25878 0.84635,1e-5 1.49739,-0.14485 1.95313,-0.43457 0.45572,-0.28971 0.68358,-0.69824 0.68359,-1.22558 -1e-5,-0.48828 -0.1644,-0.86263 -0.49316,-1.12305 -0.32879,-0.26041 -1.04982,-0.51106 -2.16309,-0.75195 l -0.625,-0.14649 c -1.11329,-0.23437 -1.91732,-0.59407 -2.41211,-1.0791 -0.49479,-0.48502 -0.74219,-1.15071 -0.74219,-1.99707 0,-1.02864 0.36458,-1.82291 1.09375,-2.38281 0.72917,-0.55989 1.76432,-0.83983 3.10547,-0.83984 0.66406,1e-5 1.28906,0.0488 1.875,0.14648 0.58593,0.0977 1.1263,0.24415 1.6211,0.43945 l 0,0 z m 5.23437,-3.42773 0,3.10547 3.70117,0 0,1.39648 -3.70117,0 0,5.9375 c 0,0.89193 0.12207,1.46485 0.36621,1.71875 0.24414,0.25391 0.74056,0.38086 1.48926,0.38086 l 1.8457,0 0,1.50391 -1.8457,0 c -1.38672,0 -2.34375,-0.25879 -2.87109,-0.77637 -0.52735,-0.51758 -0.79102,-1.45996 -0.79102,-2.82715 l 0,-5.9375 -1.31836,0 0,-1.39648 1.31836,0 0,-3.10547 1.80664,0 z m 13.27148,4.76562 0,-5.91797 1.79688,0 0,15.19532 -1.79688,0 0,-1.64063 c -0.37761,0.65105 -0.8545,1.13444 -1.43066,1.4502 -0.57618,0.31575 -1.26791,0.47363 -2.07519,0.47363 -1.32162,0 -2.39747,-0.52734 -3.22754,-1.58203 -0.83008,-1.05469 -1.24512,-2.4414 -1.24512,-4.16016 0,-1.71874 0.41504,-3.10546 1.24512,-4.16015 0.83007,-1.05468 1.90592,-1.58202 3.22754,-1.58203 0.80728,1e-5 1.49901,0.15788 2.07519,0.47363 0.57616,0.31576 1.05305,0.79916 1.43066,1.45019 l 0,0 z m -6.12304,3.81836 c -1e-5,1.32162 0.2718,2.3584 0.81543,3.11035 0.54361,0.75196 1.29068,1.12794 2.24121,1.12793 0.95051,1e-5 1.69921,-0.37597 2.24609,-1.12793 0.54687,-0.75195 0.82031,-1.78873 0.82031,-3.11035 0,-1.3216 -0.27344,-2.35839 -0.82031,-3.11035 -0.54688,-0.75194 -1.29558,-1.12792 -2.24609,-1.12793 -0.95053,10e-6 -1.6976,0.37599 -2.24121,1.12793 -0.54363,0.75196 -0.81544,1.78875 -0.81543,3.11035 l 0,0 z m 15.85937,-4.21875 c -0.96354,10e-6 -1.72526,0.37599 -2.28515,1.12793 -0.5599,0.75196 -0.83985,1.78224 -0.83985,3.09082 0,1.3086 0.27832,2.33887 0.83496,3.09082 0.55664,0.75196 1.31999,1.12793 2.29004,1.12793 0.95703,0 1.71549,-0.3776 2.27539,-1.13281 0.55989,-0.7552 0.83984,-1.78385 0.83985,-3.08594 -1e-5,-1.29556 -0.27996,-2.32258 -0.83985,-3.08105 -0.5599,-0.75846 -1.31836,-1.13769 -2.27539,-1.1377 l 0,0 z m 0,-1.52343 c 1.56249,1e-5 2.78971,0.50782 3.68164,1.52343 0.89192,1.01564 1.33788,2.42189 1.33789,4.21875 -1e-5,1.79037 -0.44597,3.19499 -1.33789,4.21387 -0.89193,1.01888 -2.11915,1.52832 -3.68164,1.52832 -1.56901,0 -2.79785,-0.50944 -3.68652,-1.52832 -0.88867,-1.01888 -1.33301,-2.4235 -1.33301,-4.21387 0,-1.79686 0.44434,-3.20311 1.33301,-4.21875 0.88867,-1.01561 2.11751,-1.52342 3.68652,-1.52343 l 0,0 z m 7.80274,6.88476 0,-6.62109 1.79687,0 0,6.55273 c 0,1.03516 0.20182,1.81153 0.60547,2.3291 0.40364,0.51758 1.00911,0.77637 1.81641,0.77637 0.97004,0 1.73664,-0.30924 2.2998,-0.92773 0.56314,-0.61849 0.84472,-1.46159 0.84473,-2.5293 l 0,-6.20117 1.79687,0 0,10.9375 -1.79687,0 0,-1.67969 c -0.43621,0.66406 -0.94239,1.15723 -1.51856,1.47949 -0.57618,0.32227 -1.24512,0.4834 -2.00683,0.4834 -1.25652,0 -2.21029,-0.39062 -2.86133,-1.17187 -0.65104,-0.78125 -0.97656,-1.92383 -0.97656,-3.42774 l 0,0 z m 14.6582,-9.72656 0,3.10547 3.70117,0 0,1.39648 -3.70117,0 0,5.9375 c 0,0.89193 0.12207,1.46485 0.36621,1.71875 0.24414,0.25391 0.74056,0.38086 1.48926,0.38086 l 1.8457,0 0,1.50391 -1.8457,0 c -1.38672,0 -2.34375,-0.25879 -2.87109,-0.77637 -0.52735,-0.51758 -0.79102,-1.45996 -0.79102,-2.82715 l 0,-5.9375 -1.31836,0 0,-1.39648 1.31836,0 0,-3.10547 1.80664,0 z m 9.26758,-0.53711 1.66015,0 -5.07812,16.43555 -1.66016,0 5.07813,-16.43555 z m 10.53711,3.96484 0,1.69922 c -0.50782,-0.26041 -1.03517,-0.45572 -1.58203,-0.58594 -0.54689,-0.13019 -1.11329,-0.1953 -1.69922,-0.19531 -0.89193,10e-6 -1.56088,0.13673 -2.00684,0.41016 -0.44597,0.27344 -0.66895,0.6836 -0.66894,1.23047 -10e-6,0.41667 0.1595,0.74382 0.47851,0.98144 0.31901,0.23764 0.96028,0.46388 1.92383,0.67871 l 0.61523,0.13672 c 1.27604,0.27345 2.18261,0.65919 2.71973,1.15723 0.5371,0.49805 0.80566,1.19304 0.80567,2.08496 -1e-5,1.01563 -0.40203,1.81966 -1.20606,2.41211 -0.80404,0.59245 -1.90919,0.88867 -3.31543,0.88867 -0.58594,0 -1.19629,-0.057 -1.83105,-0.1709 -0.63477,-0.11393 -1.30372,-0.28483 -2.00684,-0.51269 l 0,-1.85547 c 0.66406,0.34505 1.31836,0.60384 1.96289,0.77637 0.64453,0.17252 1.28255,0.25879 1.91406,0.25878 0.84635,1e-5 1.49739,-0.14485 1.95313,-0.43457 0.45572,-0.28971 0.68358,-0.69824 0.68359,-1.22558 -1e-5,-0.48828 -0.16439,-0.86263 -0.49316,-1.12305 -0.32878,-0.26041 -1.04981,-0.51106 -2.16309,-0.75195 l -0.625,-0.14649 c -1.11328,-0.23437 -1.91732,-0.59407 -2.41211,-1.0791 -0.49479,-0.48502 -0.74219,-1.15071 -0.74218,-1.99707 -1e-5,-1.02864 0.36458,-1.82291 1.09375,-2.38281 0.72916,-0.55989 1.76431,-0.83983 3.10546,-0.83984 0.66406,1e-5 1.28906,0.0488 1.875,0.14648 0.58593,0.0977 1.1263,0.24415 1.6211,0.43945 l 0,0 z m 5.23437,-3.42773 0,3.10547 3.70117,0 0,1.39648 -3.70117,0 0,5.9375 c 0,0.89193 0.12207,1.46485 0.36621,1.71875 0.24414,0.25391 0.74056,0.38086 1.48926,0.38086 l 1.8457,0 0,1.50391 -1.8457,0 c -1.38672,0 -2.34375,-0.25879 -2.87109,-0.77637 -0.52735,-0.51758 -0.79102,-1.45996 -0.79102,-2.82715 l 0,-5.9375 -1.31836,0 0,-1.39648 1.31836,0 0,-3.10547 1.80664,0 z m 13.27149,4.76562 0,-5.91797 1.79687,0 0,15.19532 -1.79687,0 0,-1.64063 c -0.37762,0.65105 -0.8545,1.13444 -1.43067,1.4502 -0.57618,0.31575 -1.26791,0.47363 -2.07519,0.47363 -1.32162,0 -2.39747,-0.52734 -3.22754,-1.58203 -0.83008,-1.05469 -1.24512,-2.4414 -1.24512,-4.16016 0,-1.71874 0.41504,-3.10546 1.24512,-4.16015 0.83007,-1.05468 1.90592,-1.58202 3.22754,-1.58203 0.80728,1e-5 1.49901,0.15788 2.07519,0.47363 0.57617,0.31576 1.05305,0.79916 1.43067,1.45019 l 0,0 z m -6.12305,3.81836 c 0,1.32162 0.27181,2.3584 0.81543,3.11035 0.54362,0.75196 1.29068,1.12794 2.24121,1.12793 0.95051,1e-5 1.69921,-0.37597 2.24609,-1.12793 0.54687,-0.75195 0.82031,-1.78873 0.82032,-3.11035 -1e-5,-1.3216 -0.27345,-2.35839 -0.82032,-3.11035 -0.54688,-0.75194 -1.29558,-1.12792 -2.24609,-1.12793 -0.95053,10e-6 -1.69759,0.37599 -2.24121,1.12793 -0.54362,0.75196 -0.81543,1.78875 -0.81543,3.11035 l 0,0 z m 11.62109,-5.47851 1.79688,0 0,10.9375 -1.79688,0 0,-10.9375 z m 0,-4.25782 1.79688,0 0,2.2754 -1.79688,0 0,-2.2754 z m 14.63868,8.59375 0,6.60157 -1.79688,0 0,-6.54297 c -10e-6,-1.03515 -0.20183,-1.80989 -0.60547,-2.32422 -0.40365,-0.51431 -1.00912,-0.77147 -1.8164,-0.77148 -0.97006,1e-5 -1.73504,0.30925 -2.29493,0.92773 -0.5599,0.6185 -0.83984,1.4616 -0.83984,2.5293 l 0,6.18164 -1.80664,0 0,-10.9375 1.80664,0 0,1.69922 c 0.42968,-0.65755 0.93587,-1.14908 1.51855,-1.47461 0.58268,-0.32551 1.25488,-0.48827 2.01661,-0.48828 1.2565,1e-5 2.20702,0.389 2.85156,1.16699 0.64452,0.778 0.96678,1.92221 0.9668,3.43261 l 0,0 z" />
  <path
     inkscape:connector-curvature="0"
     style="fill:#000000;fill-opacity:1;stroke:none"
     id="path11849"
     d="m 375.50203,182.90123 c -26.74459,0 -50.97055,4.10934 -68.58562,10.78283 -8.80753,3.33673 -15.96461,7.32789 -20.95411,11.79454 -4.9895,4.46666 -7.8187,9.43869 -7.8187,14.69659 0,5.25791 2.8292,10.25656 7.8187,14.72322 4.9895,4.46665 12.14658,8.43118 20.95411,11.76792 17.61507,6.67349 41.84103,10.78283 68.58562,10.78283 26.7446,0 50.97056,-4.10934 68.58563,-10.78283 8.80753,-3.33674 15.99588,-7.30127 20.98538,-11.76792 4.98951,-4.46666 7.78743,-9.46531 7.78743,-14.72322 0,-5.2579 -2.79792,-10.22993 -7.78743,-14.69659 -4.9895,-4.46665 -12.17785,-8.45781 -20.98538,-11.79454 -17.61507,-6.67349 -41.84104,-10.78283 -68.58563,-10.78283 z m 0,1.38446 c 26.54886,0 50.59422,4.10908 67.92886,10.67633 8.66731,3.28362 15.66792,7.16413 20.45371,11.44843 4.7858,4.2843 7.34958,8.9275 7.34958,13.76474 0,4.83724 -2.56378,9.48045 -7.34958,13.76475 -4.78579,4.28429 -11.7864,8.19143 -20.45371,11.47505 -17.33464,6.56725 -41.38,10.64971 -67.92886,10.64971 -26.54886,0 -50.59423,-4.08246 -67.92885,-10.64971 -8.66731,-3.28362 -15.63664,-7.19076 -20.42244,-11.47505 -4.78579,-4.2843 -7.38085,-8.92751 -7.38085,-13.76475 0,-4.83724 2.59506,-9.48044 7.38085,-13.76474 4.7858,-4.2843 11.75513,-8.16481 20.42244,-11.44843 17.33462,-6.56725 41.38,-10.67633 67.92885,-10.67633 z" />
  <path
     inkscape:connector-curvature="0"
     style="fill:#ffffff;fill-opacity:1;stroke:none"
     id="path12081"
     d="m 375.5107,28.18129 c -53.29345,0 -96.53126,16.403473 -96.53125,36.593755 0,20.19029 43.23781,36.562495 96.53125,36.562505 53.29345,0 96.5625,-16.372215 96.5625,-36.562505 0,-20.190292 -43.26904,-36.593755 -96.5625,-36.593755 z" />
  <path
     inkscape:connector-curvature="0"
     style="fill:#000000;fill-opacity:1;stroke:none"
     id="path9048"
     d="m 375.50203,27.48597 c -26.74459,0 -50.97055,4.10933 -68.58562,10.782823 -8.80753,3.33674 -15.96461,7.32789 -20.95411,11.79455 -4.9895,4.46665 -7.8187,9.438692 -7.8187,14.696592 0,5.2579 2.8292,10.25656 7.8187,14.72321 4.9895,4.46666 12.14658,8.43119 20.95411,11.76793 17.61507,6.67349 41.84103,10.782825 68.58562,10.782825 26.7446,0 50.97056,-4.109335 68.58563,-10.782825 8.80753,-3.33674 15.99588,-7.30127 20.98538,-11.76793 4.98951,-4.46665 7.78743,-9.46531 7.78743,-14.72321 0,-5.2579 -2.79792,-10.229942 -7.78743,-14.696592 -4.9895,-4.46666 -12.17785,-8.45781 -20.98538,-11.79455 C 426.47259,31.5953 402.24662,27.48597 375.50203,27.48597 z m 0,1.38446 c 26.54886,0 50.59422,4.109083 67.92886,10.676333 8.66731,3.28361 15.66792,7.16413 20.45371,11.44843 4.7858,4.2843 7.34958,8.927502 7.34958,13.764742 0,4.83724 -2.56378,9.48044 -7.34958,13.76474 -4.78579,4.2843 -11.7864,8.19144 -20.45371,11.47506 -17.33464,6.56724 -41.38,10.649705 -67.92886,10.649705 -26.54886,0 -50.59423,-4.082465 -67.92885,-10.649705 -8.66731,-3.28362 -15.63664,-7.19076 -20.42244,-11.47506 -4.78579,-4.2843 -7.38085,-8.9275 -7.38085,-13.76474 0,-4.83724 2.59506,-9.480442 7.38085,-13.764742 4.7858,-4.2843 11.75513,-8.16482 20.42244,-11.44843 17.33462,-6.56725 41.38,-10.676333 67.92885,-10.676333 z" />
  <path
     inkscape:connector-curvature="0"
     style="fill:#ffffff;fill-opacity:1;stroke:none"
     id="path11881"
     d="m 48.944321,77.159232 149.908679,0 c 11.08,0 20,8.92 20,20 l 0,35.761448 c 0,11.08 -8.92,20 -20,20 l -149.908679,0 c -11.08,0 -20,-8.92 -20,-20 l 0,-35.761448 c 0,-11.08 8.92,-20 20,-20 z" />
  <path
     inkscape:connector-curvature="0"
     style="fill:#000000;fill-opacity:1;stroke:none"
     id="rect2729"
     d="m 48.929911,76.155867 c -11.616703,0 -21,9.383298 -21,21 l 0,35.750003 c 0,11.6167 9.383297,20.99999 21,21 l 149.937499,0 c 11.6167,0 20.99999,-9.3833 21,-21 l 0,-35.750003 c 0,-11.616703 -9.3833,-21 -21,-21 l -149.937499,0 z m 0,2 149.937499,0 c 10.54329,0 19,8.456703 19,19 l 0,35.750003 c 0,10.54329 -8.4567,19 -19,19 l -149.937499,0 c -10.543298,-1e-5 -19,-8.4567 -19,-19 l 0,-35.750003 c 0,-10.543297 8.456703,-19 19,-19 z" />
  <path
     inkscape:connector-curvature="0"
     style="font-size:20px;font-style:normal;font-variant:normal;font-weight:normal;font-stretch:normal;fill:#000000;fill-opacity:1;stroke:none;font-family:DejaVu Sans;-inkscape-font-specification:DejaVu Sans"
     id="text11853"
     d="m 235.34302,323.94248 0,1.69922 c -0.50782,-0.26041 -1.03516,-0.45572 -1.58203,-0.58594 -0.54688,-0.1302 -1.11329,-0.1953 -1.69922,-0.19531 -0.89193,10e-6 -1.56088,0.13673 -2.00684,0.41015 -0.44596,0.27345 -0.66894,0.68361 -0.66894,1.23047 0,0.41668 0.1595,0.74382 0.47851,0.98145 0.31901,0.23763 0.96029,0.46387 1.92383,0.67871 l 0.61524,0.13672 c 1.27603,0.27344 2.18261,0.65918 2.71972,1.15722 0.5371,0.49806 0.80566,1.19304 0.80567,2.08496 -1e-5,1.01563 -0.40203,1.81967 -1.20606,2.41211 -0.80404,0.59245 -1.90918,0.88868 -3.31543,0.88868 -0.58594,0 -1.19629,-0.057 -1.83105,-0.1709 -0.63477,-0.11393 -1.30371,-0.28483 -2.00684,-0.5127 l 0,-1.85547 c 0.66406,0.34506 1.31836,0.60385 1.96289,0.77637 0.64453,0.17253 1.28255,0.25879 1.91407,0.25879 0.84634,0 1.49738,-0.14486 1.95312,-0.43457 0.45572,-0.28971 0.68359,-0.69824 0.68359,-1.22559 0,-0.48827 -0.16439,-0.86262 -0.49316,-1.12304 -0.32878,-0.26042 -1.04981,-0.51107 -2.16309,-0.75196 l -0.625,-0.14648 c -1.11328,-0.23437 -1.91732,-0.59407 -2.41211,-1.0791 -0.49479,-0.48502 -0.74218,-1.15071 -0.74218,-1.99707 0,-1.02864 0.36458,-1.82291 1.09375,-2.38281 0.72916,-0.55989 1.76432,-0.83984 3.10547,-0.83985 0.66405,1e-5 1.28905,0.0488 1.875,0.14649 0.58593,0.0977 1.12629,0.24415 1.62109,0.43945 l 0,0 z m 5.23437,-3.42774 0,3.10547 3.70118,0 0,1.39649 -3.70118,0 0,5.9375 c 0,0.89193 0.12207,1.46484 0.36622,1.71875 0.24413,0.25391 0.74055,0.38086 1.48925,0.38086 l 1.84571,0 0,1.5039 -1.84571,0 c -1.38672,0 -2.34375,-0.25879 -2.87109,-0.77636 -0.52735,-0.51758 -0.79102,-1.45996 -0.79102,-2.82715 l 0,-5.9375 -1.31836,0 0,-1.39649 1.31836,0 0,-3.10547 1.80664,0 z m 13.27149,4.76563 0,-5.91797 1.79687,0 0,15.19531 -1.79687,0 0,-1.64062 c -0.37761,0.65104 -0.8545,1.13444 -1.43067,1.45019 -0.57617,0.31576 -1.26791,0.47364 -2.07519,0.47364 -1.32162,0 -2.39746,-0.52735 -3.22754,-1.58203 -0.83008,-1.05469 -1.24512,-2.44141 -1.24512,-4.16016 0,-1.71874 0.41504,-3.10546 1.24512,-4.16016 0.83008,-1.05467 1.90592,-1.58202 3.22754,-1.58203 0.80728,1e-5 1.49902,0.15789 2.07519,0.47363 0.57617,0.31577 1.05306,0.79917 1.43067,1.4502 l 0,0 z m -6.12305,3.81836 c 0,1.32162 0.27181,2.3584 0.81543,3.11035 0.54362,0.75196 1.29069,1.12793 2.24121,1.12793 0.95052,0 1.69921,-0.37597 2.2461,-1.12793 0.54686,-0.75195 0.8203,-1.78873 0.82031,-3.11035 -1e-5,-1.32161 -0.27345,-2.35839 -0.82031,-3.11035 -0.54689,-0.75195 -1.29558,-1.12792 -2.2461,-1.12793 -0.95052,10e-6 -1.69759,0.37598 -2.24121,1.12793 -0.54362,0.75196 -0.81543,1.78874 -0.81543,3.11035 l 0,0 z m 20.97656,-0.45899 0,0.87891 -8.26171,0 c 0.0781,1.23698 0.45084,2.17937 1.11816,2.82715 0.66731,0.64779 1.59667,0.97168 2.78809,0.97168 0.69009,0 1.35904,-0.0846 2.00683,-0.25391 0.64778,-0.16927 1.29068,-0.42317 1.92871,-0.76172 l 0,1.69922 c -0.64454,0.27344 -1.30535,0.48177 -1.98242,0.625 -0.67709,0.14323 -1.36394,0.21485 -2.06055,0.21485 -1.74479,0 -3.12663,-0.50782 -4.1455,-1.52344 -1.01889,-1.01562 -1.52833,-2.38932 -1.52832,-4.12109 -10e-6,-1.79036 0.48339,-3.21126 1.45019,-4.2627 0.96679,-1.05142 2.2705,-1.57714 3.91113,-1.57715 1.47135,1e-5 2.63509,0.47364 3.49121,1.4209 0.85611,0.94727 1.28417,2.23471 1.28418,3.8623 l 0,0 z m -1.79687,-0.52734 c -0.013,-0.98306 -0.2881,-1.76757 -0.8252,-2.35351 -0.53711,-0.58593 -1.24838,-0.8789 -2.13378,-0.87891 -1.00261,1e-5 -1.80502,0.28321 -2.40723,0.84961 -0.60222,0.56641 -0.9489,1.36394 -1.04004,2.39258 l 6.40625,-0.01 z m 11.08398,-2.8125 c -0.20183,-0.11718 -0.42155,-0.20344 -0.65918,-0.25879 -0.23763,-0.0553 -0.49968,-0.083 -0.78613,-0.083 -1.01563,1e-5 -1.79525,0.33042 -2.33887,0.99121 -0.54362,0.66082 -0.81543,1.60971 -0.81543,2.84668 l 0,5.76172 -1.80664,0 0,-10.9375 1.80664,0 0,1.69922 c 0.3776,-0.66405 0.86914,-1.15721 1.47461,-1.47949 0.60547,-0.32225 1.34114,-0.48339 2.20704,-0.4834 0.12369,10e-6 0.2604,0.008 0.41015,0.0244 0.14973,0.0163 0.31575,0.0407 0.49805,0.0732 l 0.01,1.8457 z m 8.24219,0 c -0.20183,-0.11718 -0.42156,-0.20344 -0.65918,-0.25879 -0.23764,-0.0553 -0.49968,-0.083 -0.78613,-0.083 -1.01563,1e-5 -1.79525,0.33042 -2.33887,0.99121 -0.54362,0.66082 -0.81543,1.60971 -0.81543,2.84668 l 0,5.76172 -1.80664,0 0,-10.9375 1.80664,0 0,1.69922 c 0.3776,-0.66405 0.86914,-1.15721 1.47461,-1.47949 0.60546,-0.32225 1.34114,-0.48339 2.20703,-0.4834 0.12369,10e-6 0.26041,0.008 0.41016,0.0244 0.14973,0.0163 0.31575,0.0407 0.49805,0.0732 l 0.01,1.8457 z" />
  <path
     inkscape:connector-curvature="0"
     style="font-size:20px;font-style:normal;font-variant:normal;font-weight:normal;font-stretch:normal;fill:#000000;fill-opacity:1;stroke:none;font-family:DejaVu Sans;-inkscape-font-specification:DejaVu Sans"
     id="text11857"
     d="m 242.16717,250.55054 0,1.69922 c -0.50782,-0.26041 -1.03516,-0.45572 -1.58203,-0.58594 -0.54688,-0.1302 -1.11329,-0.1953 -1.69922,-0.19531 -0.89193,1e-5 -1.56088,0.13673 -2.00684,0.41015 -0.44596,0.27345 -0.66894,0.68361 -0.66894,1.23047 0,0.41668 0.1595,0.74382 0.47851,0.98145 0.31901,0.23763 0.96029,0.46387 1.92383,0.67871 l 0.61524,0.13672 c 1.27603,0.27344 2.18261,0.65918 2.71972,1.15722 0.5371,0.49806 0.80566,1.19304 0.80567,2.08496 -1e-5,1.01563 -0.40203,1.81967 -1.20606,2.41211 -0.80404,0.59245 -1.90918,0.88868 -3.31543,0.88868 -0.58594,0 -1.19629,-0.057 -1.83105,-0.1709 -0.63477,-0.11393 -1.30371,-0.28483 -2.00684,-0.5127 l 0,-1.85547 c 0.66406,0.34506 1.31836,0.60385 1.96289,0.77637 0.64453,0.17253 1.28255,0.25879 1.91407,0.25879 0.84634,0 1.49738,-0.14486 1.95312,-0.43457 0.45572,-0.28971 0.68359,-0.69824 0.68359,-1.22559 0,-0.48827 -0.16439,-0.86262 -0.49316,-1.12304 -0.32878,-0.26042 -1.04981,-0.51107 -2.16309,-0.75196 l -0.625,-0.14648 c -1.11328,-0.23437 -1.91732,-0.59407 -2.41211,-1.0791 -0.49479,-0.48502 -0.74218,-1.15071 -0.74218,-1.99707 0,-1.02864 0.36458,-1.82291 1.09375,-2.38281 0.72916,-0.55989 1.76432,-0.83984 3.10547,-0.83985 0.66405,1e-5 1.28905,0.0488 1.875,0.14649 0.58593,0.0977 1.12629,0.24415 1.62109,0.43945 l 0,0 z m 5.23437,-3.42774 0,3.10547 3.70118,0 0,1.39649 -3.70118,0 0,5.9375 c 0,0.89193 0.12207,1.46484 0.36622,1.71875 0.24413,0.25391 0.74055,0.38086 1.48925,0.38086 l 1.84571,0 0,1.5039 -1.84571,0 c -1.38672,0 -2.34375,-0.25879 -2.87109,-0.77636 -0.52735,-0.51758 -0.79102,-1.45996 -0.79102,-2.82715 l 0,-5.9375 -1.31836,0 0,-1.39649 1.31836,0 0,-3.10547 1.80664,0 z m 13.27149,4.76563 0,-5.91797 1.79687,0 0,15.19531 -1.79687,0 0,-1.64062 c -0.37761,0.65104 -0.8545,1.13444 -1.43067,1.45019 -0.57617,0.31576 -1.26791,0.47364 -2.07519,0.47364 -1.32162,0 -2.39746,-0.52735 -3.22754,-1.58203 -0.83008,-1.05469 -1.24512,-2.44141 -1.24512,-4.16016 0,-1.71874 0.41504,-3.10546 1.24512,-4.16016 0.83008,-1.05467 1.90592,-1.58202 3.22754,-1.58203 0.80728,1e-5 1.49902,0.15789 2.07519,0.47363 0.57617,0.31577 1.05306,0.79917 1.43067,1.4502 l 0,0 z m -6.12305,3.81836 c 0,1.32162 0.27181,2.3584 0.81543,3.11035 0.54362,0.75196 1.29069,1.12793 2.24121,1.12793 0.95052,0 1.69921,-0.37597 2.2461,-1.12793 0.54686,-0.75195 0.8203,-1.78873 0.82031,-3.11035 -10e-6,-1.32161 -0.27345,-2.35839 -0.82031,-3.11035 -0.54689,-0.75195 -1.29558,-1.12792 -2.2461,-1.12793 -0.95052,1e-5 -1.69759,0.37598 -2.24121,1.12793 -0.54362,0.75196 -0.81543,1.78874 -0.81543,3.11035 l 0,0 z m 20.97656,-0.45899 0,0.87891 -8.26171,0 c 0.0781,1.23698 0.45084,2.17937 1.11816,2.82715 0.66731,0.64779 1.59667,0.97168 2.78809,0.97168 0.69009,0 1.35904,-0.0846 2.00683,-0.25391 0.64778,-0.16927 1.29068,-0.42317 1.92871,-0.76172 l 0,1.69922 c -0.64454,0.27344 -1.30535,0.48177 -1.98242,0.625 -0.67709,0.14323 -1.36394,0.21485 -2.06055,0.21485 -1.74479,0 -3.12663,-0.50782 -4.1455,-1.52344 -1.01889,-1.01562 -1.52833,-2.38932 -1.52832,-4.12109 -1e-5,-1.79036 0.48339,-3.21126 1.45019,-4.2627 0.96679,-1.05142 2.2705,-1.57714 3.91113,-1.57715 1.47135,1e-5 2.63509,0.47364 3.49121,1.4209 0.85611,0.94727 1.28417,2.23471 1.28418,3.8623 l 0,0 z m -1.79687,-0.52734 c -0.013,-0.98306 -0.2881,-1.76757 -0.8252,-2.35351 -0.53711,-0.58593 -1.24838,-0.8789 -2.13378,-0.87891 -1.00261,10e-6 -1.80502,0.28321 -2.40723,0.84961 -0.60222,0.56641 -0.9489,1.36394 -1.04004,2.39258 l 6.40625,-0.01 z m 11.08398,-2.8125 c -0.20183,-0.11718 -0.42155,-0.20344 -0.65918,-0.25879 -0.23763,-0.0553 -0.49968,-0.083 -0.78613,-0.083 -1.01563,1e-5 -1.79525,0.33042 -2.33887,0.99121 -0.54362,0.66082 -0.81543,1.60971 -0.81543,2.84668 l 0,5.76172 -1.80664,0 0,-10.9375 1.80664,0 0,1.69922 c 0.3776,-0.66405 0.86914,-1.15721 1.47461,-1.47949 0.60547,-0.32225 1.34114,-0.48339 2.20704,-0.4834 0.12369,1e-5 0.2604,0.008 0.41015,0.0244 0.14973,0.0163 0.31575,0.0407 0.49805,0.0732 l 0.01,1.8457 z m 8.24219,0 c -0.20183,-0.11718 -0.42156,-0.20344 -0.65918,-0.25879 -0.23764,-0.0553 -0.49968,-0.083 -0.78613,-0.083 -1.01563,1e-5 -1.79525,0.33042 -2.33887,0.99121 -0.54362,0.66082 -0.81543,1.60971 -0.81543,2.84668 l 0,5.76172 -1.80664,0 0,-10.9375 1.80664,0 0,1.69922 c 0.3776,-0.66405 0.86914,-1.15721 1.47461,-1.47949 0.60546,-0.32225 1.34114,-0.48339 2.20703,-0.4834 0.12369,1e-5 0.26041,0.008 0.41016,0.0244 0.14973,0.0163 0.31575,0.0407 0.49805,0.0732 l 0.01,1.8457 z" />
  <g
     id="text3040"
     style="font-size:40px;font-style:normal;font-weight:normal;line-height:125%;letter-spacing:0px;word-spacing:0px;fill:#000000;fill-opacity:1;stroke:none;font-family:Sans"
     transform="translate(4.7320847,-56.277396)">
    <path
       inkscape:connector-curvature="0"
       id="path3045"
       style="font-size:18px"
       d="m 219.35303,477.51196 0,1.5293 c -0.45704,-0.23437 -0.93165,-0.41015 -1.42383,-0.52734 -0.49219,-0.11718 -1.00196,-0.17578 -1.5293,-0.17579 -0.80274,1e-5 -1.40625,0.12306 -1.81054,0.36915 -0.39844,0.2461 -0.59766,0.61524 -0.59766,1.10742 0,0.375 0.14355,0.6709 0.43066,0.88769 0.28711,0.21095 0.86426,0.41309 1.73145,0.60645 l 0.55371,0.12304 c 1.14843,0.2461 1.96288,0.59474 2.44336,1.0459 0.48632,0.44532 0.72948,1.06934 0.72949,1.87207 -1e-5,0.91407 -0.36329,1.6377 -1.08984,2.1709 -0.72071,0.53321 -1.71388,0.79981 -2.97949,0.79981 -0.52735,0 -1.07813,-0.0527 -1.65235,-0.15821 -0.56836,-0.0996 -1.16895,-0.25195 -1.80176,-0.45703 l 0,-1.66992 c 0.59766,0.31055 1.18652,0.54492 1.76661,0.70313 0.58007,0.15234 1.15429,0.22851 1.72265,0.22851 0.76171,0 1.34765,-0.1289 1.75781,-0.38672 0.41015,-0.26367 0.61523,-0.63281 0.61524,-1.10742 -1e-5,-0.43945 -0.14942,-0.77636 -0.44824,-1.01074 -0.29298,-0.23437 -0.94044,-0.45996 -1.94239,-0.67676 l -0.5625,-0.13184 c -1.00195,-0.21093 -1.72558,-0.53319 -2.1709,-0.96679 -0.44531,-0.43945 -0.66796,-1.04004 -0.66796,-1.80176 0,-0.92577 0.32812,-1.64062 0.98437,-2.14453 0.65625,-0.5039 1.58789,-0.75585 2.79492,-0.75586 0.59765,10e-6 1.16015,0.0439 1.6875,0.13184 0.52734,0.0879 1.01367,0.21973 1.45899,0.3955" />
    <path
       inkscape:connector-curvature="0"
       id="path3047"
       style="font-size:18px"
       d="m 224.06396,474.427 0,2.79492 3.33106,0 0,1.25684 -3.33106,0 0,5.34375 c 0,0.80274 0.1084,1.31836 0.3252,1.54687 0.22265,0.22852 0.67089,0.34278 1.34473,0.34278 l 1.66113,0 0,1.35351 -1.66113,0 c -1.24805,0 -2.10938,-0.23144 -2.58399,-0.69433 -0.47461,-0.46875 -0.71191,-1.31836 -0.71191,-2.54883 l 0,-5.34375 -1.18653,0 0,-1.25684 1.18653,0 0,-2.79492 1.62597,0" />
    <path
       inkscape:connector-curvature="0"
       id="path3049"
       style="font-size:18px"
       d="m 236.0083,478.71606 0,-5.32617 1.61719,0 0,13.67578 -1.61719,0 0,-1.47656 c -0.33985,0.58594 -0.77051,1.02246 -1.29199,1.30957 -0.51563,0.28125 -1.13673,0.42188 -1.86328,0.42188 -1.18946,0 -2.15919,-0.47461 -2.90918,-1.42383 -0.74414,-0.94922 -1.11621,-2.19726 -1.11621,-3.74414 0,-1.54687 0.37207,-2.79492 1.11621,-3.74414 0.74999,-0.94921 1.71972,-1.42382 2.90918,-1.42383 0.72655,10e-6 1.34765,0.14356 1.86328,0.43066 0.52148,0.28126 0.95214,0.71486 1.29199,1.30078 m -5.51074,3.43653 c 0,1.18945 0.24316,2.12402 0.72949,2.80371 0.49218,0.67383 1.16601,1.01074 2.02149,1.01074 0.85546,0 1.52929,-0.33691 2.02148,-1.01074 0.49218,-0.67969 0.73827,-1.61426 0.73828,-2.80371 -1e-5,-1.18945 -0.2461,-2.12109 -0.73828,-2.79492 -0.49219,-0.67968 -1.16602,-1.01953 -2.02148,-1.01954 -0.85548,1e-5 -1.52931,0.33986 -2.02149,1.01954 -0.48633,0.67383 -0.72949,1.60547 -0.72949,2.79492" />
    <path
       inkscape:connector-curvature="0"
       id="path3051"
       style="font-size:18px"
       d="m 244.771,478.35571 c -0.8672,1e-5 -1.55274,0.33986 -2.05664,1.01953 -0.50391,0.67384 -0.75587,1.59962 -0.75586,2.77735 -10e-6,1.17774 0.24902,2.10645 0.74707,2.78613 0.5039,0.67383 1.19237,1.01074 2.06543,1.01074 0.86132,0 1.54393,-0.33984 2.04785,-1.01953 0.5039,-0.67968 0.75585,-1.60546 0.75586,-2.77734 -1e-5,-1.16601 -0.25196,-2.08886 -0.75586,-2.76856 -0.50392,-0.68554 -1.18653,-1.02831 -2.04785,-1.02832 m 0,-1.37109 c 1.40624,10e-6 2.51073,0.45704 3.31347,1.37109 0.80273,0.91407 1.20409,2.1797 1.2041,3.79688 -1e-5,1.61133 -0.40137,2.87695 -1.2041,3.79687 -0.80274,0.91407 -1.90723,1.3711 -3.31347,1.3711 -1.41212,0 -2.51954,-0.45703 -3.32227,-1.3711 -0.79688,-0.91992 -1.19531,-2.18554 -1.19531,-3.79687 0,-1.61718 0.39843,-2.88281 1.19531,-3.79688 0.80273,-0.91405 1.91015,-1.37108 3.32227,-1.37109" />
    <path
       inkscape:connector-curvature="0"
       id="path3053"
       style="font-size:18px"
       d="m 251.79346,483.18091 0,-5.95899 1.61718,0 0,5.89746 c 0,0.93165 0.18164,1.63184 0.54493,2.10059 0.36327,0.46289 0.90819,0.69434 1.63476,0.69434 0.87304,0 1.56152,-0.27832 2.06543,-0.83496 0.50976,-0.55664 0.76464,-1.31543 0.76465,-2.27637 l 0,-5.58106 1.61719,0 0,9.84375 -1.61719,0 0,-1.51171 c -0.39259,0.59765 -0.84962,1.04296 -1.37109,1.33593 -0.51563,0.28711 -1.11622,0.43067 -1.80176,0.43067 -1.13086,0 -1.98926,-0.35157 -2.5752,-1.05469 -0.58594,-0.70312 -0.8789,-1.73144 -0.8789,-3.08496 m 4.06933,-6.19629 0,0" />
    <path
       inkscape:connector-curvature="0"
       id="path3055"
       style="font-size:18px"
       d="m 264.98584,474.427 0,2.79492 3.33105,0 0,1.25684 -3.33105,0 0,5.34375 c 0,0.80274 0.10839,1.31836 0.3252,1.54687 0.22265,0.22852 0.67089,0.34278 1.34472,0.34278 l 1.66113,0 0,1.35351 -1.66113,0 c -1.24805,0 -2.10938,-0.23144 -2.58398,-0.69433 -0.47461,-0.46875 -0.71192,-1.31836 -0.71192,-2.54883 l 0,-5.34375 -1.18652,0 0,-1.25684 1.18652,0 0,-2.79492 1.62598,0" />
  </g>
  <text
     xml:space="preserve"
     style="font-size:32px;font-style:normal;font-variant:normal;font-weight:normal;font-stretch:normal;text-align:start;line-height:125%;letter-spacing:0px;word-spacing:0px;writing-mode:lr-tb;text-anchor:start;fill:#000000;fill-opacity:1;stroke:none;font-family:Sans;-inkscape-font-specification:Sans"
     x="64.906471"
     y="126.96965"
     id="text3072"
     sodipodi:linespacing="125%"><tspan
       sodipodi:role="line"
       id="tspan3074"
       x="64.906471"
       y="126.96965">Teclado</tspan></text>
  <text
     xml:space="preserve"
     style="font-size:32px;font-style:normal;font-variant:normal;font-weight:normal;font-stretch:normal;text-align:start;line-height:125%;letter-spacing:0px;word-spacing:0px;writing-mode:lr-tb;text-anchor:start;fill:#000000;fill-opacity:1;stroke:none;font-family:Sans;-inkscape-font-specification:Sans"
     x="63.836159"
     y="354.57733"
     id="text3072-3"
     sodipodi:linespacing="125%"><tspan
       sodipodi:role="line"
       id="tspan3074-9"
       x="63.836159"
       y="354.57733">Display</tspan></text>
  <text
     xml:space="preserve"
     style="font-size:40px;font-style:normal;font-weight:normal;line-height:125%;letter-spacing:0px;word-spacing:0px;fill:#000000;fill-opacity:1;stroke:none;font-family:Sans"
     x="41.252174"
     y="50.876217"
     id="text3097"
     sodipodi:linespacing="125%"><tspan
       sodipodi:role="line"
       id="tspan3099"
       x="41.252174"
       y="50.876217">Terminal</tspan></text>
  <text
     xml:space="preserve"
     style="font-size:24px;font-style:normal;font-variant:normal;font-weight:normal;font-stretch:normal;text-align:start;line-height:125%;letter-spacing:0px;word-spacing:0px;writing-mode:lr-tb;text-anchor:start;fill:#000000;fill-opacity:1;stroke:none;font-family:Sans;-inkscape-font-specification:Sans"
     x="313.72076"
     y="73.707207"
     id="text3109"
     sodipodi:linespacing="125%"><tspan
       sodipodi:role="line"
       id="tspan3111"
       x="313.72076"
       y="73.707207">Corotina 1</tspan></text>
  <text
     xml:space="preserve"
     style="font-size:24px;font-style:normal;font-variant:normal;font-weight:normal;font-stretch:normal;text-align:start;line-height:125%;letter-spacing:0px;word-spacing:0px;writing-mode:lr-tb;text-anchor:start;fill:#000000;fill-opacity:1;stroke:none;font-family:Sans;-inkscape-font-specification:Sans"
     x="313.83881"
     y="229.12195"
     id="text3109-9"
     sodipodi:linespacing="125%"><tspan
       sodipodi:role="line"
       id="tspan3111-6"
       x="313.83881"
       y="229.12195">Corotina 2</tspan></text>
  <text
     xml:space="preserve"
     style="font-size:24px;font-style:normal;font-variant:normal;font-weight:normal;font-stretch:normal;text-align:start;line-height:125%;letter-spacing:0px;word-spacing:0px;writing-mode:lr-tb;text-anchor:start;fill:#000000;fill-opacity:1;stroke:none;font-family:Sans;-inkscape-font-specification:Sans"
     x="310.97147"
     y="360.55206"
     id="text3109-7"
     sodipodi:linespacing="125%"><tspan
       sodipodi:role="line"
       id="tspan3111-0"
       x="310.97147"
       y="360.55206">Corotina 3</tspan></text>
  <path
     style="fill:none;stroke:#000000;stroke-width:1px;stroke-linecap:butt;stroke-linejoin:miter;stroke-opacity:1;marker-end:url(#Arrow1Lend)"
     d="M 344.55874,99.416342 157.74686,308.48415"
     id="path3149"
     inkscape:connector-type="polyline"
     inkscape:connector-curvature="0"
     inkscape:connection-start="#path12081"
     inkscape:connection-start-point="d4"
     inkscape:connection-end-point="d4"
     inkscape:connection-end="#path11879" />
  <path
     style="fill:none;stroke:#000000;stroke-width:1px;stroke-linecap:butt;stroke-linejoin:miter;stroke-opacity:1;marker-end:url(#Arrow1Lend)"
     d="M 317.32631,249.36399 201.16436,307.62321"
     id="path3151"
     inkscape:connector-type="polyline"
     inkscape:connector-curvature="0"
     inkscape:connection-end-point="d4"
     inkscape:connection-end="#rect9054"
     inkscape:connection-start-point="d4"
     inkscape:connection-start="#path12079" />
  <path
     style="fill:none;stroke:#000000;stroke-width:1px;stroke-linecap:butt;stroke-linejoin:miter;stroke-opacity:1;marker-end:url(#Arrow1Lend)"
     d="m 375.52632,101.33755 0,82.259"
     id="path3159"
     inkscape:connector-type="polyline"
     inkscape:connector-curvature="0"
     inkscape:connection-start="#path12081"
     inkscape:connection-start-point="d4"
     inkscape:connection-end="#path12079"
     inkscape:connection-end-point="d4" />
  <path
     style="fill:none;stroke:#000000;stroke-width:1px;stroke-linecap:butt;stroke-linejoin:miter;stroke-opacity:1;marker-end:url(#Arrow1Lend)"
     d="m 374.88603,256.75205 -1.01178,57.79872"
     id="path3161"
     inkscape:connector-type="polyline"
     inkscape:connector-curvature="0"
     inkscape:connection-start="#path12079"
     inkscape:connection-start-point="d4"
     inkscape:connection-end-point="d4"
     inkscape:connection-end="#path12039" />
  <path
     style="fill:none;stroke:#000000;stroke-width:1px;stroke-linecap:butt;stroke-linejoin:miter;stroke-opacity:1;marker-end:url(#Arrow1Lend)"
     d="M 218.82422,96.071819 290.10573,81.828263"
     id="path3169"
     inkscape:connector-type="polyline"
     inkscape:connector-curvature="0"
     inkscape:connection-start="#path11881"
     inkscape:connection-start-point="d4"
     inkscape:connection-end="#path12081"
     inkscape:connection-end-point="d4" />
  <path
     style="fill:none;stroke:#000000;stroke-width:1px;stroke-linecap:butt;stroke-linejoin:miter;stroke-opacity:1;marker-end:url(#Arrow1Lend)"
     d="M 276.80959,349.28602 218.853,348.17884"
     id="path3171"
     inkscape:connector-type="polyline"
     inkscape:connector-curvature="0"
     inkscape:connection-start="#path12039"
     inkscape:connection-start-point="d4"
     inkscape:connection-end="#path11879"
     inkscape:connection-end-point="d4" />
  <path
     style="fill:none;stroke:#000000;stroke-width:1px;stroke-linecap:butt;stroke-linejoin:miter;stroke-opacity:1;marker-end:url(#Arrow1Lend)"
     d="m 372.51175,386.00439 0,24.06991 -259.03814,0 0,-24.06991"
     id="path4943"
     inkscape:connector-curvature="0" />
</svg>
