<svg xmlns="http://www.w3.org/2000/svg" version="1.1" style="font-family:Lato, &#x27;Helvetica Neue&#x27;, Helvetica, Arial, sans-serif;font-size:18px;background-color:white;text-rendering:optimizeLegibility;-webkit-font-smoothing:antialiased" width="850" height="600"><g class="HeaderView"><g transform="translate(774, 15) scale(0.29)"><svg width="210" height="120" viewBox="0 0 210 120" fill="none" xmlns="http://www.w3.org/2000/svg">
    <g clip-path="url(#clip0)">
        <path d="M0 0H210V107.89H0V0Z" fill="#002147"/>
        <path d="M40.9788 32.248C40.9788 34.6093 40.6048 36.78 39.8568 38.76C39.1088 40.7253 38.0528 42.4193 36.6888 43.842C35.3248 45.2647 33.6821 46.372 31.7608 47.164C29.8541 47.9413 27.7421 48.33 25.4248 48.33C23.1074 48.33 20.9954 47.9413 19.0888 47.164C17.1821 46.372 15.5468 45.2647 14.1828 43.842C12.8188 42.4193 11.7628 40.7253 11.0148 38.76C10.2668 36.78 9.89277 34.6093 9.89277 32.248C9.89277 29.8867 10.2668 27.7233 11.0148 25.758C11.7628 23.778 12.8188 22.0767 14.1828 20.654C15.5468 19.2167 17.1821 18.102 19.0888 17.31C20.9954 16.518 23.1074 16.122 25.4248 16.122C27.7421 16.122 29.8541 16.518 31.7608 17.31C33.6821 18.102 35.3248 19.2167 36.6888 20.654C38.0528 22.0767 39.1088 23.778 39.8568 25.758C40.6048 27.7233 40.9788 29.8867 40.9788 32.248ZM36.6008 32.248C36.6008 30.312 36.3368 28.574 35.8088 27.034C35.2808 25.494 34.5328 24.196 33.5648 23.14C32.5968 22.0693 31.4234 21.248 30.0448 20.676C28.6661 20.104 27.1261 19.818 25.4248 19.818C23.7381 19.818 22.2054 20.104 20.8268 20.676C19.4481 21.248 18.2674 22.0693 17.2848 23.14C16.3168 24.196 15.5688 25.494 15.0408 27.034C14.5128 28.574 14.2488 30.312 14.2488 32.248C14.2488 34.184 14.5128 35.922 15.0408 37.462C15.5688 38.9873 16.3168 40.2853 17.2848 41.356C18.2674 42.412 19.4481 43.226 20.8268 43.798C22.2054 44.3553 23.7381 44.634 25.4248 44.634C27.1261 44.634 28.6661 44.3553 30.0448 43.798C31.4234 43.226 32.5968 42.412 33.5648 41.356C34.5328 40.2853 35.2808 38.9873 35.8088 37.462C36.3368 35.922 36.6008 34.184 36.6008 32.248ZM62.8234 25.714V48H60.4914C59.9341 48 59.5821 47.7287 59.4354 47.186L59.1274 44.788C58.1594 45.8587 57.0741 46.724 55.8714 47.384C54.6687 48.0293 53.2901 48.352 51.7354 48.352C50.5181 48.352 49.4401 48.154 48.5014 47.758C47.5774 47.3473 46.8001 46.7753 46.1694 46.042C45.5387 45.3087 45.0621 44.4213 44.7394 43.38C44.4314 42.3387 44.2774 41.1873 44.2774 39.926V25.714H48.1934V39.926C48.1934 41.6127 48.5747 42.918 49.3374 43.842C50.1147 44.766 51.2954 45.228 52.8794 45.228C54.0381 45.228 55.1161 44.9567 56.1134 44.414C57.1254 43.8567 58.0567 43.094 58.9074 42.126V25.714H62.8234ZM71.4305 30.18C72.1346 28.6547 72.9999 27.4667 74.0266 26.616C75.0532 25.7507 76.3072 25.318 77.7886 25.318C78.2579 25.318 78.7052 25.3693 79.1306 25.472C79.5706 25.5747 79.9592 25.736 80.2966 25.956L80.0106 28.882C79.9226 29.2487 79.7026 29.432 79.3506 29.432C79.1452 29.432 78.8446 29.388 78.4486 29.3C78.0526 29.212 77.6052 29.168 77.1066 29.168C76.4026 29.168 75.7719 29.2707 75.2146 29.476C74.6719 29.6813 74.1806 29.9893 73.7406 30.4C73.3152 30.796 72.9266 31.2947 72.5746 31.896C72.2372 32.4827 71.9292 33.1573 71.6506 33.92V48H67.7125V25.714H69.9566C70.3819 25.714 70.6752 25.7947 70.8366 25.956C70.9979 26.1173 71.1079 26.396 71.1666 26.792L71.4305 30.18ZM132.589 16.474L122.755 48H118.927L110.941 23.954C110.867 23.7193 110.794 23.47 110.721 23.206C110.662 22.942 110.596 22.6633 110.523 22.37C110.449 22.6633 110.376 22.942 110.303 23.206C110.23 23.47 110.156 23.7193 110.083 23.954L102.053 48H98.2248L88.3908 16.474H91.9328C92.3142 16.474 92.6295 16.5693 92.8788 16.76C93.1428 16.9507 93.3115 17.1927 93.3848 17.486L99.8968 39.398C99.9995 39.794 100.095 40.2193 100.183 40.674C100.285 41.1287 100.381 41.6127 100.469 42.126C100.571 41.6127 100.674 41.1287 100.777 40.674C100.894 40.2047 101.019 39.7793 101.151 39.398L108.565 17.486C108.653 17.2367 108.821 17.0093 109.071 16.804C109.335 16.584 109.65 16.474 110.017 16.474H111.249C111.63 16.474 111.938 16.5693 112.173 16.76C112.407 16.9507 112.583 17.1927 112.701 17.486L120.093 39.398C120.225 39.7793 120.342 40.19 120.445 40.63C120.562 41.07 120.672 41.532 120.775 42.016C120.848 41.532 120.929 41.07 121.017 40.63C121.105 40.19 121.2 39.7793 121.303 39.398L127.837 17.486C127.91 17.222 128.072 16.9873 128.321 16.782C128.585 16.5767 128.9 16.474 129.267 16.474H132.589ZM141.94 25.362C143.568 25.362 145.034 25.6333 146.34 26.176C147.645 26.7187 148.76 27.4887 149.684 28.486C150.608 29.4833 151.312 30.6933 151.796 32.116C152.294 33.524 152.544 35.1007 152.544 36.846C152.544 38.606 152.294 40.19 151.796 41.598C151.312 43.006 150.608 44.2087 149.684 45.206C148.76 46.2033 147.645 46.9733 146.34 47.516C145.034 48.044 143.568 48.308 141.94 48.308C140.297 48.308 138.816 48.044 137.496 47.516C136.19 46.9733 135.076 46.2033 134.152 45.206C133.228 44.2087 132.516 43.006 132.018 41.598C131.534 40.19 131.292 38.606 131.292 36.846C131.292 35.1007 131.534 33.524 132.018 32.116C132.516 30.6933 133.228 29.4833 134.152 28.486C135.076 27.4887 136.19 26.7187 137.496 26.176C138.816 25.6333 140.297 25.362 141.94 25.362ZM141.94 45.25C144.14 45.25 145.782 44.5167 146.868 43.05C147.953 41.5687 148.496 39.508 148.496 36.868C148.496 34.2133 147.953 32.1453 146.868 30.664C145.782 29.1827 144.14 28.442 141.94 28.442C140.825 28.442 139.85 28.6327 139.014 29.014C138.192 29.3953 137.503 29.9453 136.946 30.664C136.403 31.3827 135.992 32.27 135.714 33.326C135.45 34.3673 135.318 35.548 135.318 36.868C135.318 39.508 135.86 41.5687 136.946 43.05C138.046 44.5167 139.71 45.25 141.94 45.25ZM159.908 30.18C160.612 28.6547 161.478 27.4667 162.504 26.616C163.531 25.7507 164.785 25.318 166.266 25.318C166.736 25.318 167.183 25.3693 167.608 25.472C168.048 25.5747 168.437 25.736 168.774 25.956L168.488 28.882C168.4 29.2487 168.18 29.432 167.828 29.432C167.623 29.432 167.322 29.388 166.926 29.3C166.53 29.212 166.083 29.168 165.584 29.168C164.88 29.168 164.25 29.2707 163.692 29.476C163.15 29.6813 162.658 29.9893 162.218 30.4C161.793 30.796 161.404 31.2947 161.052 31.896C160.715 32.4827 160.407 33.1573 160.128 33.92V48H156.19V25.714H158.434C158.86 25.714 159.153 25.7947 159.314 25.956C159.476 26.1173 159.586 26.396 159.644 26.792L159.908 30.18ZM174.946 15.594V48H171.03V15.594H174.946ZM194.496 31.016C193.763 30.0333 192.971 29.3513 192.12 28.97C191.269 28.574 190.316 28.376 189.26 28.376C187.192 28.376 185.601 29.1167 184.486 30.598C183.371 32.0793 182.814 34.1913 182.814 36.934C182.814 38.386 182.939 39.6327 183.188 40.674C183.437 41.7007 183.804 42.5513 184.288 43.226C184.772 43.886 185.366 44.37 186.07 44.678C186.774 44.986 187.573 45.14 188.468 45.14C189.759 45.14 190.881 44.8467 191.834 44.26C192.802 43.6733 193.689 42.8447 194.496 41.774V31.016ZM198.412 15.594V48H196.08C195.523 48 195.171 47.7287 195.024 47.186L194.672 44.48C193.719 45.624 192.633 46.548 191.416 47.252C190.199 47.956 188.791 48.308 187.192 48.308C185.916 48.308 184.757 48.066 183.716 47.582C182.675 47.0833 181.787 46.3573 181.054 45.404C180.321 44.4507 179.756 43.2627 179.36 41.84C178.964 40.4173 178.766 38.782 178.766 36.934C178.766 35.2913 178.986 33.766 179.426 32.358C179.866 30.9353 180.497 29.7033 181.318 28.662C182.139 27.6207 183.144 26.8067 184.332 26.22C185.535 25.6187 186.884 25.318 188.38 25.318C189.744 25.318 190.91 25.5527 191.878 26.022C192.861 26.4767 193.733 27.1147 194.496 27.936V15.594H198.412ZM46.6139 70.714V93H42.6979V70.714H46.6139ZM47.4499 63.718C47.4499 64.0993 47.3692 64.4587 47.2079 64.796C47.0612 65.1187 46.8559 65.412 46.5919 65.676C46.3425 65.9253 46.0419 66.1233 45.6899 66.27C45.3525 66.4167 44.9932 66.49 44.6119 66.49C44.2305 66.49 43.8712 66.4167 43.5339 66.27C43.2112 66.1233 42.9252 65.9253 42.6759 65.676C42.4265 65.412 42.2285 65.1187 42.0819 64.796C41.9352 64.4587 41.8619 64.0993 41.8619 63.718C41.8619 63.3367 41.9352 62.9773 42.0819 62.64C42.2285 62.288 42.4265 61.9873 42.6759 61.738C42.9252 61.474 43.2112 61.2687 43.5339 61.122C43.8712 60.9753 44.2305 60.902 44.6119 60.902C44.9932 60.902 45.3525 60.9753 45.6899 61.122C46.0419 61.2687 46.3425 61.474 46.5919 61.738C46.8559 61.9873 47.0612 62.288 47.2079 62.64C47.3692 62.9773 47.4499 63.3367 47.4499 63.718ZM55.4242 73.948C55.9082 73.4053 56.4215 72.914 56.9642 72.474C57.5068 72.034 58.0788 71.66 58.6802 71.352C59.2962 71.0293 59.9415 70.7873 60.6162 70.626C61.3055 70.45 62.0462 70.362 62.8382 70.362C64.0555 70.362 65.1262 70.5673 66.0502 70.978C66.9888 71.374 67.7662 71.946 68.3822 72.694C69.0128 73.4273 69.4895 74.3147 69.8122 75.356C70.1348 76.3973 70.2962 77.5487 70.2962 78.81V93H66.3582V78.81C66.3582 77.1233 65.9695 75.818 65.1922 74.894C64.4295 73.9553 63.2635 73.486 61.6942 73.486C60.5355 73.486 59.4502 73.7647 58.4382 74.322C57.4408 74.8793 56.5168 75.6347 55.6662 76.588V93H51.7282V70.714H54.0822C54.6395 70.714 54.9842 70.9853 55.1162 71.528L55.4242 73.948ZM113.129 77.248C113.129 79.6093 112.755 81.758 112.007 83.694C111.259 85.63 110.203 87.2873 108.839 88.666C107.475 90.0447 105.832 91.1153 103.911 91.878C102.004 92.626 99.8925 93 97.5751 93H85.8051V61.474H97.5751C99.8925 61.474 102.004 61.8553 103.911 62.618C105.832 63.366 107.475 64.4367 108.839 65.83C110.203 67.2087 111.259 68.866 112.007 70.802C112.755 72.738 113.129 74.8867 113.129 77.248ZM108.751 77.248C108.751 75.312 108.487 73.5813 107.959 72.056C107.431 70.5307 106.683 69.24 105.715 68.184C104.747 67.128 103.574 66.3213 102.195 65.764C100.816 65.2067 99.2765 64.928 97.5751 64.928H90.0731V89.546H97.5751C99.2765 89.546 100.816 89.2673 102.195 88.71C103.574 88.1527 104.747 87.3533 105.715 86.312C106.683 85.256 107.431 83.9653 107.959 82.44C108.487 80.9147 108.751 79.184 108.751 77.248ZM128.553 82.968C126.749 83.0267 125.209 83.1733 123.933 83.408C122.672 83.628 121.638 83.9213 120.831 84.288C120.039 84.6547 119.46 85.0873 119.093 85.586C118.741 86.0847 118.565 86.642 118.565 87.258C118.565 87.8447 118.661 88.3507 118.851 88.776C119.042 89.2013 119.299 89.5533 119.621 89.832C119.959 90.096 120.347 90.294 120.787 90.426C121.242 90.5433 121.726 90.602 122.239 90.602C122.929 90.602 123.559 90.536 124.131 90.404C124.703 90.2573 125.239 90.052 125.737 89.788C126.251 89.524 126.735 89.2087 127.189 88.842C127.659 88.4753 128.113 88.0573 128.553 87.588V82.968ZM115.903 73.86C117.135 72.672 118.463 71.7847 119.885 71.198C121.308 70.6113 122.885 70.318 124.615 70.318C125.862 70.318 126.969 70.5233 127.937 70.934C128.905 71.3447 129.719 71.9167 130.379 72.65C131.039 73.3833 131.538 74.2707 131.875 75.312C132.213 76.3533 132.381 77.4973 132.381 78.744V93H130.643C130.262 93 129.969 92.9413 129.763 92.824C129.558 92.692 129.397 92.4427 129.279 92.076L128.839 89.964C128.253 90.5067 127.681 90.9907 127.123 91.416C126.566 91.8267 125.979 92.1787 125.363 92.472C124.747 92.7507 124.087 92.9633 123.383 93.11C122.694 93.2713 121.924 93.352 121.073 93.352C120.208 93.352 119.394 93.2347 118.631 93C117.869 92.7507 117.201 92.384 116.629 91.9C116.072 91.416 115.625 90.8073 115.287 90.074C114.965 89.326 114.803 88.446 114.803 87.434C114.803 86.554 115.045 85.7107 115.529 84.904C116.013 84.0827 116.798 83.3567 117.883 82.726C118.969 82.0953 120.384 81.582 122.129 81.186C123.875 80.7753 126.016 80.5407 128.553 80.482V78.744C128.553 77.0133 128.179 75.708 127.431 74.828C126.683 73.9333 125.591 73.486 124.153 73.486C123.185 73.486 122.371 73.6107 121.711 73.86C121.066 74.0947 120.501 74.366 120.017 74.674C119.548 74.9673 119.137 75.2387 118.785 75.488C118.448 75.7227 118.111 75.84 117.773 75.84C117.509 75.84 117.282 75.774 117.091 75.642C116.901 75.4953 116.739 75.3193 116.607 75.114L115.903 73.86ZM143.568 93.352C141.808 93.352 140.451 92.8607 139.498 91.878C138.559 90.8953 138.09 89.48 138.09 87.632V73.992H135.406C135.171 73.992 134.973 73.926 134.812 73.794C134.65 73.6473 134.57 73.4273 134.57 73.134V71.572L138.222 71.11L139.124 64.224C139.168 64.004 139.263 63.828 139.41 63.696C139.571 63.5493 139.776 63.476 140.026 63.476H142.006V71.154H148.452V73.992H142.006V87.368C142.006 88.3067 142.233 89.0033 142.688 89.458C143.142 89.9127 143.729 90.14 144.448 90.14C144.858 90.14 145.21 90.0887 145.504 89.986C145.812 89.8687 146.076 89.744 146.296 89.612C146.516 89.48 146.699 89.3627 146.846 89.26C147.007 89.1427 147.146 89.084 147.264 89.084C147.469 89.084 147.652 89.2087 147.814 89.458L148.958 91.328C148.283 91.9587 147.469 92.4573 146.516 92.824C145.562 93.176 144.58 93.352 143.568 93.352ZM163.253 82.968C161.449 83.0267 159.909 83.1733 158.633 83.408C157.372 83.628 156.338 83.9213 155.531 84.288C154.739 84.6547 154.16 85.0873 153.793 85.586C153.441 86.0847 153.265 86.642 153.265 87.258C153.265 87.8447 153.36 88.3507 153.551 88.776C153.742 89.2013 153.998 89.5533 154.321 89.832C154.658 90.096 155.047 90.294 155.487 90.426C155.942 90.5433 156.426 90.602 156.939 90.602C157.628 90.602 158.259 90.536 158.831 90.404C159.403 90.2573 159.938 90.052 160.437 89.788C160.95 89.524 161.434 89.2087 161.889 88.842C162.358 88.4753 162.813 88.0573 163.253 87.588V82.968ZM150.603 73.86C151.835 72.672 153.162 71.7847 154.585 71.198C156.008 70.6113 157.584 70.318 159.315 70.318C160.562 70.318 161.669 70.5233 162.637 70.934C163.605 71.3447 164.419 71.9167 165.079 72.65C165.739 73.3833 166.238 74.2707 166.575 75.312C166.912 76.3533 167.081 77.4973 167.081 78.744V93H165.343C164.962 93 164.668 92.9413 164.463 92.824C164.258 92.692 164.096 92.4427 163.979 92.076L163.539 89.964C162.952 90.5067 162.38 90.9907 161.823 91.416C161.266 91.8267 160.679 92.1787 160.063 92.472C159.447 92.7507 158.787 92.9633 158.083 93.11C157.394 93.2713 156.624 93.352 155.773 93.352C154.908 93.352 154.094 93.2347 153.331 93C152.568 92.7507 151.901 92.384 151.329 91.9C150.772 91.416 150.324 90.8073 149.987 90.074C149.664 89.326 149.503 88.446 149.503 87.434C149.503 86.554 149.745 85.7107 150.229 84.904C150.713 84.0827 151.498 83.3567 152.583 82.726C153.668 82.0953 155.084 81.582 156.829 81.186C158.574 80.7753 160.716 80.5407 163.253 80.482V78.744C163.253 77.0133 162.879 75.708 162.131 74.828C161.383 73.9333 160.29 73.486 158.853 73.486C157.885 73.486 157.071 73.6107 156.411 73.86C155.766 74.0947 155.201 74.366 154.717 74.674C154.248 74.9673 153.837 75.2387 153.485 75.488C153.148 75.7227 152.81 75.84 152.473 75.84C152.209 75.84 151.982 75.774 151.791 75.642C151.6 75.4953 151.439 75.3193 151.307 75.114L150.603 73.86Z" fill="white"/>
        <rect y="106.789" width="210" height="13.211" fill="#D42B21"/>
    </g>
    <defs>
        <clipPath id="clip0">
            <rect width="210" height="120" fill="white"/>
        </clipPath>
    </defs>
</svg></g><a href="https://ourworldindata.org/grapher/cancer-death-rates-by-type?country=BRA" target="_blank"><text font-size="25.20" x="15.0" y="35.2" fill="#555"><tspan x="15" y="35.160000000000004">Cancer death rates by type, Brazil</tspan></text></a><text font-size="14.40" x="15.0" y="53.7" fill="#666"><tspan x="15" y="53.72">Age-standardized death rates across cancer types, measured as the number of deaths per 100,000 individuals.</tspan><tspan x="15" y="69.56">Age-standardization assumes a constant population age &amp; structure to allow for comparisons between countries</tspan><tspan x="15" y="85.4">and with time without the effects of a changing age distribution within a population (e.g. aging).</tspan></text></g><g class="LineChart"><defs><clipPath id="boundsClip-11"><rect x="28.144000000000005" y="0" width="830" height="901.8"></rect></clipPath></defs><g class="AxisBoxView"><g class="HorizontalAxis"><text x="38.1" y="556.5" fill="#666" text-anchor="middle" font-size="16.2">1990</text><text x="138.5" y="556.5" fill="#666" text-anchor="middle" font-size="16.2">1995</text><text x="238.8" y="556.5" fill="#666" text-anchor="middle" font-size="16.2">2000</text><text x="339.1" y="556.5" fill="#666" text-anchor="middle" font-size="16.2">2005</text><text x="439.5" y="556.5" fill="#666" text-anchor="middle" font-size="16.2">2010</text><text x="580" y="556.5" fill="#666" text-anchor="middle" font-size="16.2">2017</text></g><g class="VerticalAxis"><text x="33.14" y="535.3" fill="#666" dominant-baseline="middle" text-anchor="end" font-size="16.2">0</text><text x="33.14" y="484.6" fill="#666" dominant-baseline="middle" text-anchor="end" font-size="16.2">2</text><text x="33.14" y="433.8" fill="#666" dominant-baseline="middle" text-anchor="end" font-size="16.2">4</text><text x="33.14" y="383.1" fill="#666" dominant-baseline="middle" text-anchor="end" font-size="16.2">6</text><text x="33.14" y="332.3" fill="#666" dominant-baseline="middle" text-anchor="end" font-size="16.2">8</text><text x="33.14" y="281.6" fill="#666" dominant-baseline="middle" text-anchor="end" font-size="16.2">10</text><text x="33.14" y="230.8" fill="#666" dominant-baseline="middle" text-anchor="end" font-size="16.2">12</text><text x="33.14" y="180.1" fill="#666" dominant-baseline="middle" text-anchor="end" font-size="16.2">14</text><text x="33.14" y="129.3" fill="#666" dominant-baseline="middle" text-anchor="end" font-size="16.2">16</text></g><g class="AxisGridLines"><line x1="38.14" y1="535.3" x2="579.95" y2="535.3" stroke="#ccc"></line><line x1="38.14" y1="484.6" x2="579.95" y2="484.6" stroke="#ddd" stroke-dasharray="3,2"></line><line x1="38.14" y1="433.8" x2="579.95" y2="433.8" stroke="#ddd" stroke-dasharray="3,2"></line><line x1="38.14" y1="383.1" x2="579.95" y2="383.1" stroke="#ddd" stroke-dasharray="3,2"></line><line x1="38.14" y1="332.3" x2="579.95" y2="332.3" stroke="#ddd" stroke-dasharray="3,2"></line><line x1="38.14" y1="281.6" x2="579.95" y2="281.6" stroke="#ddd" stroke-dasharray="3,2"></line><line x1="38.14" y1="230.8" x2="579.95" y2="230.8" stroke="#ddd" stroke-dasharray="3,2"></line><line x1="38.14" y1="180.1" x2="579.95" y2="180.1" stroke="#ddd" stroke-dasharray="3,2"></line><line x1="38.14" y1="129.3" x2="579.95" y2="129.3" stroke="#ddd" stroke-dasharray="3,2"></line></g></g><g clip-path="url(#boundsClip-11)"><g class="HeightedLegend"><g class="legendMark"><g class="indicator"><line x1="584.95" y1="531.4" x2="606.9738095238096" y2="531.4" stroke="#666" stroke-width="0.5"></line><line x1="606.9738095238096" y1="531.4" x2="606.9738095238096" y2="528.55" stroke="#666" stroke-width="0.5"></line><line x1="606.9738095238096" y1="528.55" x2="609.95" y2="528.55" stroke="#666" stroke-width="0.5"></line></g><rect x="579.95" y="521.8" width="138.005" height="13.5" fill="#fff" opacity="0"></rect><text font-size="13.50" x="615.0" y="532.6" fill="#3360a9"><tspan x="614.95" y="532.5999999999999">Testicular cancer</tspan></text></g><g class="legendMark"><g class="indicator"><line x1="584.95" y1="529.5" x2="606.0214285714286" y2="529.5" stroke="#666" stroke-width="0.5"></line><line x1="606.0214285714286" y1="529.5" x2="606.0214285714286" y2="513.05" stroke="#666" stroke-width="0.5"></line><line x1="606.0214285714286" y1="513.05" x2="609.95" y2="513.05" stroke="#666" stroke-width="0.5"></line></g><rect x="579.95" y="506.29999999999995" width="159.2" height="13.5" fill="#fff" opacity="0"></rect><text font-size="13.50" x="615.0" y="517.1" fill="#ca2628"><tspan x="614.95" y="517.0999999999999">Nasopharynx cancer</tspan></text></g><g class="legendMark"><g class="indicator"><line x1="584.95" y1="522.8" x2="605.0690476190476" y2="522.8" stroke="#666" stroke-width="0.5"></line><line x1="605.0690476190476" y1="522.8" x2="605.0690476190476" y2="497.54999999999995" stroke="#666" stroke-width="0.5"></line><line x1="605.0690476190476" y1="497.54999999999995" x2="609.95" y2="497.54999999999995" stroke="#666" stroke-width="0.5"></line></g><rect x="579.95" y="490.79999999999995" width="124.50500000000001" height="13.5" fill="#fff" opacity="0"></rect><text font-size="13.50" x="615.0" y="501.6" fill="#34983f"><tspan x="614.95" y="501.59999999999997">Thyroid cancer</tspan></text></g><g class="legendMark"><g class="indicator"><line x1="584.95" y1="506.7" x2="604.1166666666667" y2="506.7" stroke="#666" stroke-width="0.5"></line><line x1="604.1166666666667" y1="506.7" x2="604.1166666666667" y2="482.04999999999995" stroke="#666" stroke-width="0.5"></line><line x1="604.1166666666667" y1="482.04999999999995" x2="609.95" y2="482.04999999999995" stroke="#666" stroke-width="0.5"></line></g><rect x="579.95" y="475.29999999999995" width="123.02000000000001" height="13.5" fill="#fff" opacity="0"></rect><text font-size="13.50" x="615.0" y="486.1" fill="#f6a324"><tspan x="614.95" y="486.09999999999997">Uterine cancer</tspan></text></g><g class="legendMark"><g class="indicator"><line x1="584.95" y1="502.8" x2="603.1642857142857" y2="502.8" stroke="#666" stroke-width="0.5"></line><line x1="603.1642857142857" y1="502.8" x2="603.1642857142857" y2="466.54999999999995" stroke="#666" stroke-width="0.5"></line><line x1="603.1642857142857" y1="466.54999999999995" x2="609.95" y2="466.54999999999995" stroke="#666" stroke-width="0.5"></line></g><rect x="579.95" y="459.79999999999995" width="199.70000000000002" height="13.5" fill="#fff" opacity="0"></rect><text font-size="13.50" x="615.0" y="470.6" fill="#a652ba"><tspan x="614.95" y="470.59999999999997">Non-melanoma skin cancer</tspan></text></g><g class="legendMark"><g class="indicator"><line x1="584.95" y1="496.4" x2="602.2119047619049" y2="496.4" stroke="#666" stroke-width="0.5"></line><line x1="602.2119047619049" y1="496.4" x2="602.2119047619049" y2="451.04999999999995" stroke="#666" stroke-width="0.5"></line><line x1="602.2119047619049" y1="451.04999999999995" x2="609.95" y2="451.04999999999995" stroke="#666" stroke-width="0.5"></line></g><rect x="579.95" y="444.29999999999995" width="165.275" height="13.5" fill="#fff" opacity="0"></rect><text font-size="13.50" x="615.0" y="455.1" fill="#2a939b"><tspan x="614.95" y="455.09999999999997">Other pharynx cancer</tspan></text></g><g class="legendMark"><g class="indicator"><line x1="584.95" y1="490.4" x2="601.2595238095239" y2="490.4" stroke="#666" stroke-width="0.5"></line><line x1="601.2595238095239" y1="490.4" x2="601.2595238095239" y2="435.54999999999995" stroke="#666" stroke-width="0.5"></line><line x1="601.2595238095239" y1="435.54999999999995" x2="609.95" y2="435.54999999999995" stroke="#666" stroke-width="0.5"></line></g><rect x="579.95" y="428.79999999999995" width="120.86" height="13.5" fill="#fff" opacity="0"></rect><text font-size="13.50" x="615.0" y="439.6" fill="#e6332e"><tspan x="614.95" y="439.59999999999997">Kidney cancer</tspan></text></g><g class="legendMark"><g class="indicator"><line x1="584.95" y1="483.6" x2="600.3071428571429" y2="483.6" stroke="#666" stroke-width="0.5"></line><line x1="600.3071428571429" y1="483.6" x2="600.3071428571429" y2="420.04999999999995" stroke="#666" stroke-width="0.5"></line><line x1="600.3071428571429" y1="420.04999999999995" x2="609.95" y2="420.04999999999995" stroke="#666" stroke-width="0.5"></line></g><rect x="579.95" y="413.29999999999995" width="126.80000000000001" height="13.5" fill="#fff" opacity="0"></rect><text font-size="13.50" x="615.0" y="424.1" fill="#9ecc8a"><tspan x="614.95" y="424.09999999999997">Ovarian cancer</tspan></text></g><g class="legendMark"><g class="indicator"><line x1="584.95" y1="480.2" x2="599.354761904762" y2="480.2" stroke="#666" stroke-width="0.5"></line><line x1="599.354761904762" y1="480.2" x2="599.354761904762" y2="404.54999999999995" stroke="#666" stroke-width="0.5"></line><line x1="599.354761904762" y1="404.54999999999995" x2="609.95" y2="404.54999999999995" stroke="#666" stroke-width="0.5"></line></g><rect x="579.95" y="397.79999999999995" width="120.05000000000001" height="13.5" fill="#fff" opacity="0"></rect><text font-size="13.50" x="615.0" y="408.6" fill="#ffd53e"><tspan x="614.95" y="408.59999999999997">Larynx cancer</tspan></text></g><g class="legendMark"><g class="indicator"><line x1="584.95" y1="477.9" x2="598.402380952381" y2="477.9" stroke="#666" stroke-width="0.5"></line><line x1="598.402380952381" y1="477.9" x2="598.402380952381" y2="389.04999999999995" stroke="#666" stroke-width="0.5"></line><line x1="598.402380952381" y1="389.04999999999995" x2="609.95" y2="389.04999999999995" stroke="#666" stroke-width="0.5"></line></g><rect x="579.95" y="382.29999999999995" width="126.125" height="13.5" fill="#fff" opacity="0"></rect><text font-size="13.50" x="615.0" y="393.1" fill="#b077b1"><tspan x="614.95" y="393.09999999999997">Bladder cancer</tspan></text></g><g class="legendMark"><g class="indicator"><line x1="584.95" y1="477.3" x2="597.45" y2="477.3" stroke="#666" stroke-width="0.5"></line><line x1="597.45" y1="477.3" x2="597.45" y2="373.54999999999995" stroke="#666" stroke-width="0.5"></line><line x1="597.45" y1="373.54999999999995" x2="609.95" y2="373.54999999999995" stroke="#666" stroke-width="0.5"></line></g><rect x="579.95" y="366.79999999999995" width="188.63000000000002" height="13.5" fill="#fff" opacity="0"></rect><text font-size="13.50" x="615.0" y="377.6" fill="#7ec7ce"><tspan x="614.95" y="377.59999999999997">Lip and oral cavity cancer</tspan></text></g><g class="legendMark"><g class="indicator"><line x1="584.95" y1="475.8" x2="596.4976190476191" y2="475.8" stroke="#666" stroke-width="0.5"></line><line x1="596.4976190476191" y1="475.8" x2="596.4976190476191" y2="358.04999999999995" stroke="#666" stroke-width="0.5"></line><line x1="596.4976190476191" y1="358.04999999999995" x2="609.95" y2="358.04999999999995" stroke="#666" stroke-width="0.5"></line></g><rect x="579.95" y="351.29999999999995" width="244.25" height="13.5" fill="#fff" opacity="0"></rect><text font-size="13.50" x="615.0" y="362.1" fill="#e6332e"><tspan x="614.95" y="362.09999999999997">Gallbladder and biliary tract cancer</tspan></text></g><g class="legendMark"><g class="indicator"><line x1="584.95" y1="428.7" x2="595.5452380952381" y2="428.7" stroke="#666" stroke-width="0.5"></line><line x1="595.5452380952381" y1="428.7" x2="595.5452380952381" y2="342.54999999999995" stroke="#666" stroke-width="0.5"></line><line x1="595.5452380952381" y1="342.54999999999995" x2="609.95" y2="342.54999999999995" stroke="#666" stroke-width="0.5"></line></g><rect x="579.95" y="335.79999999999995" width="128.15" height="13.5" fill="#fff" opacity="0"></rect><text font-size="13.50" x="615.0" y="346.6" fill="#6bb537"><tspan x="614.95" y="346.59999999999997">Cervical cancer</tspan></text></g><g class="legendMark"><g class="indicator"><line x1="584.95" y1="420.6" x2="594.5928571428572" y2="420.6" stroke="#666" stroke-width="0.5"></line><line x1="594.5928571428572" y1="420.6" x2="594.5928571428572" y2="327.04999999999995" stroke="#666" stroke-width="0.5"></line><line x1="594.5928571428572" y1="327.04999999999995" x2="609.95" y2="327.04999999999995" stroke="#666" stroke-width="0.5"></line></g><rect x="579.95" y="320.29999999999995" width="236.01500000000001" height="13.5" fill="#fff" opacity="0"></rect><text font-size="13.50" x="615.0" y="331.1" fill="#f07f59"><tspan x="614.95" y="331.09999999999997">Brain and nervous system cancer</tspan></text></g><g class="legendMark"><g class="indicator"><line x1="584.95" y1="412.5" x2="593.6404761904762" y2="412.5" stroke="#666" stroke-width="0.5"></line><line x1="593.6404761904762" y1="412.5" x2="593.6404761904762" y2="311.54999999999995" stroke="#666" stroke-width="0.5"></line><line x1="593.6404761904762" y1="311.54999999999995" x2="609.95" y2="311.54999999999995" stroke="#666" stroke-width="0.5"></line></g><rect x="579.95" y="304.79999999999995" width="151.10000000000002" height="13.5" fill="#fff" opacity="0"></rect><text font-size="13.50" x="615.0" y="315.6" fill="#ce8ebd"><tspan x="614.95" y="315.59999999999997">Esophageal cancer</tspan></text></g><g class="legendMark"><g class="indicator"><line x1="584.95" y1="401.6" x2="592.6880952380952" y2="401.6" stroke="#666" stroke-width="0.5"></line><line x1="592.6880952380952" y1="401.6" x2="592.6880952380952" y2="296.04999999999995" stroke="#666" stroke-width="0.5"></line><line x1="592.6880952380952" y1="296.04999999999995" x2="609.95" y2="296.04999999999995" stroke="#666" stroke-width="0.5"></line></g><rect x="579.95" y="289.29999999999995" width="108.71000000000001" height="13.5" fill="#fff" opacity="0"></rect><text font-size="13.50" x="615.0" y="300.1" fill="#5eb77e"><tspan x="614.95" y="300.09999999999997">Liver cancer</tspan></text></g><g class="legendMark"><g class="indicator"><line x1="584.95" y1="392.2" x2="591.7357142857144" y2="392.2" stroke="#666" stroke-width="0.5"></line><line x1="591.7357142857144" y1="392.2" x2="591.7357142857144" y2="280.54999999999995" stroke="#666" stroke-width="0.5"></line><line x1="591.7357142857144" y1="280.54999999999995" x2="609.95" y2="280.54999999999995" stroke="#666" stroke-width="0.5"></line></g><rect x="579.95" y="273.79999999999995" width="143.405" height="13.5" fill="#fff" opacity="0"></rect><text font-size="13.50" x="615.0" y="284.6" fill="#818282"><tspan x="614.95" y="284.59999999999997">Pancreatic cancer</tspan></text></g><g class="legendMark"><g class="indicator"><line x1="584.95" y1="329.3" x2="590.7833333333334" y2="329.3" stroke="#666" stroke-width="0.5"></line><line x1="590.7833333333334" y1="329.3" x2="590.7833333333334" y2="265.04999999999995" stroke="#666" stroke-width="0.5"></line><line x1="590.7833333333334" y1="265.04999999999995" x2="609.95" y2="265.04999999999995" stroke="#666" stroke-width="0.5"></line></g><rect x="579.95" y="258.29999999999995" width="118.56500000000001" height="13.5" fill="#fff" opacity="0"></rect><text font-size="13.50" x="615.0" y="269.1" fill="#fceb8c"><tspan x="614.95" y="269.09999999999997">Breast cancer</tspan></text></g><g class="legendMark"><g class="indicator"><line x1="584.95" y1="300.7" x2="589.8309523809525" y2="300.7" stroke="#666" stroke-width="0.5"></line><line x1="589.8309523809525" y1="300.7" x2="589.8309523809525" y2="249.54999999999995" stroke="#666" stroke-width="0.5"></line><line x1="589.8309523809525" y1="249.54999999999995" x2="609.95" y2="249.54999999999995" stroke="#666" stroke-width="0.5"></line></g><rect x="579.95" y="242.79999999999995" width="129.905" height="13.5" fill="#fff" opacity="0"></rect><text font-size="13.50" x="615.0" y="253.6" fill="#9ecc8a"><tspan x="614.95" y="253.59999999999997">Prostate cancer</tspan></text></g><g class="legendMark"><g class="indicator"><line x1="584.95" y1="300" x2="588.8785714285715" y2="300" stroke="#666" stroke-width="0.5"></line><line x1="588.8785714285715" y1="300" x2="588.8785714285715" y2="234.04999999999995" stroke="#666" stroke-width="0.5"></line><line x1="588.8785714285715" y1="234.04999999999995" x2="609.95" y2="234.04999999999995" stroke="#666" stroke-width="0.5"></line></g><rect x="579.95" y="227.29999999999995" width="132.875" height="13.5" fill="#fff" opacity="0"></rect><text font-size="13.50" x="615.0" y="238.1" fill="#cfcd1e"><tspan x="614.95" y="238.09999999999997">Stomach cancer</tspan></text></g><g class="legendMark"><g class="indicator"><line x1="584.95" y1="274.6" x2="587.9261904761905" y2="274.6" stroke="#666" stroke-width="0.5"></line><line x1="587.9261904761905" y1="274.6" x2="587.9261904761905" y2="218.54999999999995" stroke="#666" stroke-width="0.5"></line><line x1="587.9261904761905" y1="218.54999999999995" x2="609.95" y2="218.54999999999995" stroke="#666" stroke-width="0.5"></line></g><rect x="579.95" y="211.79999999999995" width="186.335" height="13.5" fill="#fff" opacity="0"></rect><text font-size="13.50" x="615.0" y="222.6" fill="#58888f"><tspan x="614.95" y="222.59999999999997">Colon and rectum cancer</tspan></text></g><g class="legendMark"><g class="indicator"><line x1="584.95" y1="169.3" x2="597.45" y2="169.3" stroke="#666" stroke-width="0.5"></line><line x1="597.45" y1="169.3" x2="597.45" y2="169.3" stroke="#666" stroke-width="0.5"></line><line x1="597.45" y1="169.3" x2="609.95" y2="169.3" stroke="#666" stroke-width="0.5"></line></g><rect x="579.95" y="162.55" width="255.05" height="13.5" fill="#fff" opacity="0"></rect><text font-size="13.50" x="615.0" y="173.4" fill="#932834"><tspan x="614.95" y="173.35000000000002">Tracheal, bronchus, and lung cancer</tspan></text></g></g><g class="Lines"><rect x="38" y="106" width="542" height="430" fill="rgba(255,255,255,0)" opacity="0"></rect><g class="key-Brazil_0"><path stroke="#9ecc8a" stroke-linecap="round" d="M38 301L58 299L78 295L98 290L118 284L139 283L159 284L179 282L199 278L219 273L239 271L259 270L279 270L299 268L319 269L339 270L359 271L379 274L399 278L419 282L440 286L460 291L480 296L500 301L520 305L540 307L560 305L580 301" fill="none" stroke-width="1.5"></path></g><g class="key-Brazil_1"><path stroke="#fceb8c" stroke-linecap="round" d="M38 326L58 327L78 322L98 313L118 310L139 308L159 306L179 306L199 303L219 301L239 302L259 303L279 303L299 303L319 304L339 310L359 311L379 313L399 314L419 316L440 317L460 319L480 323L500 327L520 331L540 331L560 329L580 329" fill="none" stroke-width="1.5"></path></g><g class="key-Brazil_10"><path stroke="#34983f" stroke-linecap="round" d="M38 520L58 520L78 520L98 520L118 520L139 520L159 521L179 521L199 521L219 521L239 521L259 521L279 521L299 521L319 521L339 521L359 521L379 522L399 522L419 522L440 522L460 522L480 522L500 522L520 523L540 523L560 523L580 523" fill="none" stroke-width="1.5"></path></g><g class="key-Brazil_11"><path stroke="#f6a324" stroke-linecap="round" d="M38 500L58 501L78 500L98 500L118 500L139 500L159 500L179 501L199 502L219 502L239 503L259 503L279 504L299 504L319 505L339 505L359 506L379 506L399 506L419 506L440 506L460 506L480 507L500 507L520 507L540 507L560 507L580 507" fill="none" stroke-width="1.5"></path></g><g class="key-Brazil_12"><path stroke="#b077b1" stroke-linecap="round" d="M38 469L58 470L78 470L98 470L118 470L139 472L159 473L179 474L199 474L219 473L239 474L259 474L279 474L299 474L319 474L339 475L359 476L379 476L399 476L419 476L440 476L460 477L480 478L500 478L520 478L540 479L560 478L580 478" fill="none" stroke-width="1.5"></path></g><g class="key-Brazil_13"><path stroke="#6bb537" stroke-linecap="round" d="M38 365L58 368L78 367L98 365L118 367L139 369L159 372L179 375L199 376L219 377L239 381L259 385L279 389L299 392L319 396L339 401L359 405L379 408L399 411L419 413L440 416L460 418L480 421L500 424L520 428L540 429L560 429L580 429" fill="none" stroke-width="1.5"></path></g><g class="key-Brazil_14"><path stroke="#e6332e" stroke-linecap="round" d="M38 503L58 502L78 502L98 501L118 501L139 501L159 501L179 501L199 500L219 500L239 499L259 498L279 498L299 497L319 497L339 497L359 496L379 496L399 495L419 495L440 494L460 493L480 493L500 493L520 493L540 492L560 491L580 490" fill="none" stroke-width="1.5"></path></g><g class="key-Brazil_15"><path stroke="#cfcd1e" stroke-linecap="round" d="M38 106L58 120L78 123L98 122L118 132L139 143L159 151L179 160L199 165L219 169L239 177L259 184L279 190L299 195L319 202L339 217L359 226L379 235L399 244L419 251L440 257L460 265L480 274L500 282L520 291L540 297L560 298L580 300" fill="none" stroke-width="1.5"></path></g><g class="key-Brazil_16"><path stroke="#ca2628" stroke-linecap="round" d="M38 530L58 530L78 530L98 530L118 530L139 529L159 529L179 529L199 529L219 529L239 529L259 529L279 529L299 529L319 529L339 529L359 529L379 529L399 529L419 529L440 529L460 529L480 529L500 529L520 530L540 530L560 530L580 530" fill="none" stroke-width="1.5"></path></g><g class="key-Brazil_17"><path stroke="#3360a9" stroke-linecap="round" d="M38 532L58 532L78 532L98 532L118 532L139 532L159 532L179 532L199 532L219 532L239 532L259 532L279 532L299 532L319 532L339 532L359 532L379 532L399 531L419 531L440 531L460 531L480 531L500 531L520 531L540 531L560 531L580 531" fill="none" stroke-width="1.5"></path></g><g class="key-Brazil_18"><path stroke="#2a939b" stroke-linecap="round" d="M38 494L58 494L78 494L98 493L118 493L139 493L159 493L179 493L199 493L219 492L239 492L259 493L279 492L299 492L319 492L339 493L359 494L379 494L399 495L419 495L440 495L460 495L480 496L500 497L520 498L540 498L560 497L580 496" fill="none" stroke-width="1.5"></path></g><g class="key-Brazil_19"><path stroke="#ce8ebd" stroke-linecap="round" d="M38 383L58 386L78 385L98 383L118 385L139 388L159 390L179 393L199 393L219 393L239 395L259 396L279 397L299 396L319 396L339 400L359 401L379 402L399 404L419 405L440 406L460 407L480 409L500 411L520 414L540 415L560 415L580 413" fill="none" stroke-width="1.5"></path></g><g class="key-Brazil_2"><path stroke="#818282" stroke-linecap="round" d="M38 408L58 409L78 408L98 407L118 407L139 407L159 409L179 410L199 410L219 408L239 407L259 407L279 407L299 406L319 405L339 405L359 405L379 403L399 403L419 402L440 401L460 400L480 399L500 398L520 398L540 396L560 394L580 392" fill="none" stroke-width="1.5"></path></g><g class="key-Brazil_20"><path stroke="#a652ba" stroke-linecap="round" d="M38 505L58 505L78 505L98 505L118 504L139 505L159 505L179 506L199 505L219 505L239 505L259 504L279 504L299 504L319 504L339 504L359 504L379 504L399 504L419 504L440 503L460 503L480 503L500 503L520 504L540 503L560 503L580 503" fill="none" stroke-width="1.5"></path></g><g class="key-Brazil_21"><path stroke="#932834" stroke-linecap="round" d="M38 134L58 137L78 133L98 124L118 123L139 125L159 124L179 123L199 120L219 117L239 117L259 118L279 120L299 118L319 121L339 130L359 135L379 137L399 142L419 146L440 147L460 151L480 156L500 160L520 165L540 168L560 167L580 169" fill="none" stroke-width="1.5"></path></g><g class="key-Brazil_3"><path stroke="#f07f59" stroke-linecap="round" d="M38 471L58 470L78 469L98 466L118 463L139 459L159 451L179 444L199 439L219 434L239 431L259 430L279 429L299 427L319 427L339 427L359 427L379 426L399 426L419 425L440 424L460 424L480 424L500 424L520 424L540 423L560 422L580 421" fill="none" stroke-width="1.5"></path></g><g class="key-Brazil_4"><path stroke="#7ec7ce" stroke-linecap="round" d="M38 474L58 474L78 473L98 472L118 472L139 473L159 472L179 473L199 473L219 472L239 472L259 472L279 472L299 472L319 472L339 473L359 474L379 474L399 475L419 475L440 476L460 476L480 477L500 478L520 478L540 479L560 478L580 477" fill="none" stroke-width="1.5"></path></g><g class="key-Brazil_5"><path stroke="#58888f" stroke-linecap="round" d="M38 313L58 314L78 310L98 302L118 298L139 296L159 294L179 291L199 286L219 282L239 279L259 276L279 274L299 270L319 269L339 271L359 271L379 271L399 271L419 271L440 269L460 270L480 273L500 274L520 277L540 278L560 275L580 275" fill="none" stroke-width="1.5"></path></g><g class="key-Brazil_6"><path stroke="#e6332e" stroke-linecap="round" d="M38 444L58 446L78 446L98 446L118 447L139 450L159 453L179 456L199 457L219 459L239 460L259 461L279 463L299 464L319 465L339 467L359 468L379 469L399 470L419 471L440 471L460 472L480 474L500 475L520 476L540 477L560 476L580 476" fill="none" stroke-width="1.5"></path></g><g class="key-Brazil_7"><path stroke="#5eb77e" stroke-linecap="round" d="M38 407L58 407L78 407L98 407L118 408L139 410L159 412L179 412L199 415L219 416L239 416L259 416L279 416L299 416L319 416L339 416L359 416L379 416L399 416L419 416L440 415L460 413L480 411L500 410L520 409L540 407L560 405L580 402" fill="none" stroke-width="1.5"></path></g><g class="key-Brazil_8"><path stroke="#ffd53e" stroke-linecap="round" d="M38 468L58 469L78 468L98 467L118 467L139 468L159 468L179 469L199 470L219 470L239 472L259 472L279 472L299 473L319 473L339 474L359 475L379 475L399 475L419 476L440 476L460 476L480 477L500 478L520 479L540 480L560 480L580 480" fill="none" stroke-width="1.5"></path></g><g class="key-Brazil_9"><path stroke="#9ecc8a" stroke-linecap="round" d="M38 486L58 486L78 486L98 484L118 484L139 483L159 483L179 482L199 482L219 481L239 481L259 482L279 481L299 481L319 481L339 482L359 483L379 483L399 483L419 484L440 484L460 484L480 485L500 485L520 486L540 485L560 484L580 484" fill="none" stroke-width="1.5"></path></g></g></g></g><g class="SourcesFooter" style="fill:#777"><g class="clickable" style="fill:#777"><text font-size="12.60" x="15.0" y="581.6"><tspan x="15" y="581.58">Source: IHME, Global Burden of Disease (GBD)</tspan></text></g><text font-size="12.60" x="796.4" y="581.6"><tspan x="796.444" y="581.58"><a style="fill: #777;" class="cclogo" href="http://creativecommons.org/licenses/by/4.0/deed.en_US" target="_blank">CC BY</a></tspan></text></g></svg>